Signika-Regular.ufo
<glyph name="exclam" format="2">
  <advance width="576"/>
  <unicode hex="0021"/>
  <outline>
    <contour>
      <point x="204" y="389" type="curve"/>
      <point x="229" y="381"/>
      <point x="261" y="379"/>
      <point x="284" y="379" type="curve" smooth="yes"/>
      <point x="308" y="379"/>
      <point x="338" y="381"/>
      <point x="364" y="389" type="curve"/>
      <point x="379" y="654"/>
      <point x="401" y="918"/>
      <point x="401" y="1183" type="curve" smooth="yes"/>
      <point x="401" y="1364" type="line"/>
      <point x="343" y="1381"/>
      <point x="225" y="1381"/>
      <point x="167" y="1365" type="curve"/>
      <point x="167" y="1184" type="line" smooth="yes"/>
      <point x="167" y="918"/>
      <point x="189" y="655"/>
    </contour>
    <contour>
      <point x="284" y="219" type="curve" smooth="yes"/>
      <point x="242" y="219"/>
      <point x="198" y="210"/>
      <point x="171" y="194" type="curve"/>
      <point x="161" y="176"/>
      <point x="154" y="128"/>
      <point x="154" y="101" type="curve" smooth="yes"/>
      <point x="154" y="73"/>
      <point x="161" y="26"/>
      <point x="171" y="7" type="curve"/>
      <point x="198" y="-8"/>
      <point x="242" y="-18"/>
      <point x="284" y="-18" type="curve" smooth="yes"/>
      <point x="325" y="-18"/>
      <point x="370" y="-8"/>
      <point x="396" y="7" type="curve"/>
      <point x="407" y="26"/>
      <point x="414" y="73"/>
      <point x="414" y="101" type="curve" smooth="yes"/>
      <point x="414" y="128"/>
      <point x="407" y="176"/>
      <point x="396" y="194" type="curve"/>
      <point x="370" y="210"/>
      <point x="325" y="219"/>
    </contour>
  </outline>
</glyph>
<glyph name="numbersign" format="2">
  <advance width="1291"/>
  <unicode hex="0023"/>
  <outline>
    <contour>
      <point x="201" y="27" type="curve"/>
      <point x="481" y="1278" type="line"/>
      <point x="505" y="1287"/>
      <point x="540" y="1292"/>
      <point x="575" y="1292" type="curve" smooth="yes"/>
      <point x="611" y="1292"/>
      <point x="645" y="1287"/>
      <point x="668" y="1278" type="curve"/>
      <point x="388" y="27" type="line"/>
      <point x="365" y="16"/>
      <point x="330" y="12"/>
      <point x="293" y="12" type="curve" smooth="yes"/>
      <point x="258" y="12"/>
      <point x="222" y="16"/>
    </contour>
    <contour>
      <point x="639" y="27" type="curve"/>
      <point x="919" y="1278" type="line"/>
      <point x="943" y="1287"/>
      <point x="978" y="1292"/>
      <point x="1013" y="1292" type="curve" smooth="yes"/>
      <point x="1049" y="1292"/>
      <point x="1084" y="1287"/>
      <point x="1106" y="1278" type="curve"/>
      <point x="826" y="27" type="line"/>
      <point x="803" y="16"/>
      <point x="768" y="12"/>
      <point x="732" y="12" type="curve" smooth="yes"/>
      <point x="696" y="12"/>
      <point x="660" y="16"/>
    </contour>
    <contour>
      <point x="1142" y="309" type="curve"/>
      <point x="59" y="309" type="line"/>
      <point x="51" y="333"/>
      <point x="47" y="364"/>
      <point x="47" y="395" type="curve" smooth="yes"/>
      <point x="47" y="426"/>
      <point x="51" y="457"/>
      <point x="59" y="481" type="curve"/>
      <point x="1142" y="481" type="line"/>
      <point x="1151" y="457"/>
      <point x="1155" y="426"/>
      <point x="1155" y="395" type="curve" smooth="yes"/>
      <point x="1155" y="364"/>
      <point x="1151" y="333"/>
    </contour>
    <contour>
      <point x="1237" y="824" type="curve"/>
      <point x="154" y="824" type="line"/>
      <point x="146" y="847"/>
      <point x="142" y="879"/>
      <point x="142" y="909" type="curve" smooth="yes"/>
      <point x="142" y="941"/>
      <point x="146" y="972"/>
      <point x="154" y="995" type="curve"/>
      <point x="1237" y="995" type="line"/>
      <point x="1246" y="972"/>
      <point x="1250" y="941"/>
      <point x="1250" y="909" type="curve" smooth="yes"/>
      <point x="1250" y="879"/>
      <point x="1246" y="847"/>
    </contour>
  </outline>
</glyph>
<glyph name="dollar" format="2">
  <advance width="1080"/>
  <unicode hex="0024"/>
  <outline>
    <contour>
      <point x="523" y="54" type="curve" smooth="yes"/>
      <point x="772" y="54"/>
      <point x="932" y="189"/>
      <point x="932" y="378" type="curve" smooth="yes"/>
      <point x="932" y="547"/>
      <point x="833" y="651"/>
      <point x="677" y="707" type="curve" smooth="yes"/>
      <point x="493" y="774" type="line" smooth="yes"/>
      <point x="411" y="803"/>
      <point x="355" y="835"/>
      <point x="355" y="913" type="curve" smooth="yes"/>
      <point x="355" y="994"/>
      <point x="425" y="1046"/>
      <point x="535" y="1046" type="curve" smooth="yes"/>
      <point x="630" y="1046"/>
      <point x="730" y="1014"/>
      <point x="823" y="964" type="curve"/>
      <point x="866" y="1002"/>
      <point x="896" y="1069"/>
      <point x="896" y="1127" type="curve"/>
      <point x="800" y="1177"/>
      <point x="671" y="1219"/>
      <point x="520" y="1219" type="curve" smooth="yes"/>
      <point x="296" y="1219"/>
      <point x="143" y="1079"/>
      <point x="143" y="891" type="curve" smooth="yes"/>
      <point x="143" y="746"/>
      <point x="236" y="652"/>
      <point x="381" y="601" type="curve" smooth="yes"/>
      <point x="575" y="532" type="line" smooth="yes"/>
      <point x="675" y="497"/>
      <point x="718" y="439"/>
      <point x="717" y="366" type="curve" smooth="yes"/>
      <point x="716" y="276"/>
      <point x="634" y="226"/>
      <point x="521" y="226" type="curve" smooth="yes"/>
      <point x="405" y="227"/>
      <point x="279" y="280"/>
      <point x="188" y="339" type="curve"/>
      <point x="146" y="312"/>
      <point x="107" y="235"/>
      <point x="106" y="178" type="curve"/>
      <point x="191" y="119"/>
      <point x="355" y="54"/>
    </contour>
    <contour>
      <point x="511" y="-125" type="curve" smooth="yes"/>
      <point x="542" y="-125"/>
      <point x="573" y="-122"/>
      <point x="593" y="-117" type="curve"/>
      <point x="593" y="112" type="line"/>
      <point x="428" y="112" type="line"/>
      <point x="428" y="-117" type="line"/>
      <point x="449" y="-122"/>
      <point x="481" y="-125"/>
    </contour>
    <contour>
      <point x="448" y="1154" type="line"/>
      <point x="613" y="1154" type="line"/>
      <point x="613" y="1389" type="line"/>
      <point x="591" y="1395"/>
      <point x="560" y="1397"/>
      <point x="531" y="1397" type="curve" smooth="yes"/>
      <point x="503" y="1397"/>
      <point x="471" y="1395"/>
      <point x="448" y="1389" type="curve"/>
    </contour>
  </outline>
</glyph>
<glyph name="percent" format="2">
  <advance width="1815"/>
  <unicode hex="0025"/>
  <outline>
    <contour>
      <point x="1719" y="386" type="curve" smooth="yes"/>
      <point x="1719" y="628"/>
      <point x="1631" y="796"/>
      <point x="1403" y="796" type="curve" smooth="yes"/>
      <point x="1176" y="796"/>
      <point x="1088" y="629"/>
      <point x="1088" y="386" type="curve" smooth="yes"/>
      <point x="1088" y="146"/>
      <point x="1174" y="-25"/>
      <point x="1403" y="-25" type="curve" smooth="yes"/>
      <point x="1630" y="-25"/>
      <point x="1719" y="142"/>
    </contour>
    <contour>
      <point x="1266" y="386" type="curve" smooth="yes"/>
      <point x="1266" y="529"/>
      <point x="1290" y="659"/>
      <point x="1404" y="659" type="curve" smooth="yes"/>
      <point x="1517" y="659"/>
      <point x="1541" y="529"/>
      <point x="1541" y="386" type="curve" smooth="yes"/>
      <point x="1541" y="242"/>
      <point x="1517" y="112"/>
      <point x="1404" y="112" type="curve" smooth="yes"/>
      <point x="1290" y="112"/>
      <point x="1266" y="242"/>
    </contour>
    <contour>
      <point x="728" y="882" type="curve" smooth="yes"/>
      <point x="728" y="1123"/>
      <point x="640" y="1291"/>
      <point x="412" y="1291" type="curve" smooth="yes"/>
      <point x="185" y="1291"/>
      <point x="97" y="1125"/>
      <point x="97" y="882" type="curve" smooth="yes"/>
      <point x="97" y="641"/>
      <point x="183" y="471"/>
      <point x="412" y="471" type="curve" smooth="yes"/>
      <point x="638" y="471"/>
      <point x="728" y="637"/>
    </contour>
    <contour>
      <point x="274" y="882" type="curve" smooth="yes"/>
      <point x="274" y="1025"/>
      <point x="298" y="1154"/>
      <point x="413" y="1154" type="curve" smooth="yes"/>
      <point x="526" y="1154"/>
      <point x="550" y="1025"/>
      <point x="550" y="882" type="curve" smooth="yes"/>
      <point x="550" y="738"/>
      <point x="526" y="607"/>
      <point x="413" y="607" type="curve" smooth="yes"/>
      <point x="298" y="607"/>
      <point x="274" y="738"/>
    </contour>
    <component base="fraction" xOffset="710"/>
  </outline>
</glyph>
<glyph name="ampersand" format="2">
  <advance width="1245"/>
  <unicode hex="0026"/>
  <outline>
    <contour>
      <point x="993" y="813" type="curve" smooth="yes"/>
      <point x="625" y="813" type="line" smooth="yes"/>
      <point x="454" y="813"/>
      <point x="378" y="895"/>
      <point x="378" y="1021" type="curve" smooth="yes"/>
      <point x="378" y="1138"/>
      <point x="456" y="1222"/>
      <point x="596" y="1222" type="curve" smooth="yes"/>
      <point x="704" y="1222"/>
      <point x="799" y="1197"/>
      <point x="887" y="1170" type="curve" smooth="yes"/>
      <point x="924" y="1209"/>
      <point x="945" y="1278"/>
      <point x="943" y="1333" type="curve"/>
      <point x="852" y="1366"/>
      <point x="712" y="1392"/>
      <point x="577" y="1392" type="curve" smooth="yes"/>
      <point x="312" y="1392"/>
      <point x="158" y="1235"/>
      <point x="158" y="1035" type="curve" smooth="yes"/>
      <point x="158" y="861"/>
      <point x="289" y="721"/>
      <point x="447" y="716" type="curve"/>
      <point x="447" y="745" type="line"/>
      <point x="277" y="743"/>
      <point x="100" y="582"/>
      <point x="100" y="359" type="curve" smooth="yes"/>
      <point x="100" y="141"/>
      <point x="232" y="-26"/>
      <point x="483" y="-26" type="curve" smooth="yes"/>
      <point x="601" y="-26"/>
      <point x="717" y="16"/>
      <point x="804" y="80" type="curve"/>
      <point x="819" y="-1" type="line"/>
      <point x="844" y="-8"/>
      <point x="879" y="-11"/>
      <point x="916" y="-11" type="curve" smooth="yes"/>
      <point x="955" y="-11"/>
      <point x="988" y="-8"/>
      <point x="1014" y="0" type="curve"/>
      <point x="1006" y="90"/>
      <point x="1001" y="210"/>
      <point x="1001" y="303" type="curve" smooth="yes"/>
      <point x="1001" y="510" type="line" smooth="yes"/>
      <point x="1001" y="565"/>
      <point x="999" y="662"/>
      <point x="995" y="729" type="curve"/>
      <point x="801" y="729" type="line"/>
      <point x="797" y="662"/>
      <point x="795" y="566"/>
      <point x="795" y="508" type="curve" smooth="yes"/>
      <point x="795" y="236" type="line"/>
      <point x="739" y="188"/>
      <point x="641" y="143"/>
      <point x="532" y="143" type="curve" smooth="yes"/>
      <point x="404" y="143"/>
      <point x="321" y="225"/>
      <point x="321" y="371" type="curve" smooth="yes"/>
      <point x="321" y="502"/>
      <point x="401" y="634"/>
      <point x="605" y="634" type="curve" smooth="yes"/>
      <point x="1061" y="634" type="line" smooth="yes"/>
      <point x="1149" y="634"/>
      <point x="1212" y="661"/>
      <point x="1212" y="745" type="curve" smooth="yes"/>
      <point x="1212" y="780"/>
      <point x="1202" y="821"/>
      <point x="1184" y="844" type="curve"/>
      <point x="1138" y="823"/>
      <point x="1065" y="813"/>
    </contour>
  </outline>
</glyph>
<glyph name="quotesingle" format="2">
  <advance width="422"/>
  <unicode hex="0027"/>
  <outline>
    <contour>
      <point x="91" y="1407" type="curve" smooth="yes"/>
      <point x="91" y="1373"/>
      <point x="119" y="1180"/>
      <point x="151" y="984" type="curve"/>
      <point x="176" y="970"/>
      <point x="232" y="970"/>
      <point x="255" y="984" type="curve"/>
      <point x="287" y="1179"/>
      <point x="315" y="1373"/>
      <point x="315" y="1407" type="curve" smooth="yes"/>
      <point x="315" y="1439"/>
      <point x="311" y="1471"/>
      <point x="303" y="1503" type="curve"/>
      <point x="279" y="1518"/>
      <point x="242" y="1528"/>
      <point x="203" y="1528" type="curve" smooth="yes"/>
      <point x="161" y="1528"/>
      <point x="128" y="1518"/>
      <point x="102" y="1503" type="curve"/>
      <point x="95" y="1471"/>
      <point x="91" y="1439"/>
    </contour>
  </outline>
</glyph>
<glyph name="parenleft" format="2">
  <advance width="663"/>
  <unicode hex="0028"/>
  <outline>
    <contour>
      <point x="347" y="549" type="curve" smooth="yes"/>
      <point x="347" y="859"/>
      <point x="434" y="1188"/>
      <point x="632" y="1446" type="curve"/>
      <point x="605" y="1506"/>
      <point x="558" y="1542"/>
      <point x="508" y="1558" type="curve"/>
      <point x="259" y="1314"/>
      <point x="125" y="900"/>
      <point x="125" y="549" type="curve" smooth="yes"/>
      <point x="125" y="198"/>
      <point x="259" y="-216"/>
      <point x="508" y="-460" type="curve"/>
      <point x="558" y="-444"/>
      <point x="605" y="-408"/>
      <point x="632" y="-347" type="curve"/>
      <point x="434" y="-90"/>
      <point x="347" y="239"/>
    </contour>
  </outline>
</glyph>
<glyph name="parenright" format="2">
  <advance width="663"/>
  <unicode hex="0029"/>
  <outline>
    <contour>
      <point x="316" y="549" type="curve" smooth="yes"/>
      <point x="316" y="859"/>
      <point x="229" y="1188"/>
      <point x="31" y="1446" type="curve"/>
      <point x="58" y="1506"/>
      <point x="105" y="1542"/>
      <point x="155" y="1558" type="curve"/>
      <point x="404" y="1314"/>
      <point x="538" y="900"/>
      <point x="538" y="549" type="curve" smooth="yes"/>
      <point x="538" y="198"/>
      <point x="404" y="-216"/>
      <point x="155" y="-460" type="curve"/>
      <point x="105" y="-444"/>
      <point x="58" y="-408"/>
      <point x="31" y="-347" type="curve"/>
      <point x="229" y="-90"/>
      <point x="316" y="239"/>
    </contour>
  </outline>
</glyph>
<glyph name="asterisk" format="2">
  <advance width="1009"/>
  <unicode hex="002A"/>
  <outline>
    <contour>
      <point x="414" y="1461" type="curve"/>
      <point x="415" y="1350" type="line" smooth="yes"/>
      <point x="416" y="1258"/>
      <point x="445" y="1158"/>
      <point x="465" y="1076" type="curve"/>
      <point x="477" y="1061"/>
      <point x="491" y="1054"/>
      <point x="504" y="1054" type="curve" smooth="yes"/>
      <point x="517" y="1054"/>
      <point x="531" y="1062"/>
      <point x="543" y="1076" type="curve"/>
      <point x="562" y="1158"/>
      <point x="592" y="1258"/>
      <point x="593" y="1350" type="curve" smooth="yes"/>
      <point x="594" y="1461" type="line"/>
      <point x="550" y="1480"/>
      <point x="456" y="1480"/>
    </contour>
    <contour>
      <point x="89" y="1095" type="curve"/>
      <point x="195" y="1062" type="line" smooth="yes"/>
      <point x="283" y="1033"/>
      <point x="387" y="1030"/>
      <point x="471" y="1025" type="curve"/>
      <point x="490" y="1030"/>
      <point x="499" y="1041"/>
      <point x="504" y="1054" type="curve" smooth="yes"/>
      <point x="509" y="1067"/>
      <point x="506" y="1082"/>
      <point x="496" y="1098" type="curve"/>
      <point x="424" y="1140"/>
      <point x="337" y="1201"/>
      <point x="250" y="1231" type="curve" smooth="yes"/>
      <point x="146" y="1266" type="line"/>
      <point x="113" y="1229"/>
      <point x="84" y="1141"/>
    </contour>
    <contour>
      <point x="337" y="673" type="curve"/>
      <point x="401" y="763" type="line" smooth="yes"/>
      <point x="455" y="838"/>
      <point x="491" y="935"/>
      <point x="522" y="1015" type="curve"/>
      <point x="523" y="1033"/>
      <point x="515" y="1046"/>
      <point x="504" y="1054" type="curve" smooth="yes"/>
      <point x="493" y="1062"/>
      <point x="478" y="1064"/>
      <point x="458" y="1059" type="curve"/>
      <point x="397" y="1006"/>
      <point x="312" y="941"/>
      <point x="258" y="867" type="curve" smooth="yes"/>
      <point x="191" y="779" type="line"/>
      <point x="218" y="736"/>
      <point x="292" y="683"/>
    </contour>
    <contour>
      <point x="815" y="778" type="curve"/>
      <point x="750" y="866" type="line" smooth="yes"/>
      <point x="696" y="940"/>
      <point x="614" y="1006"/>
      <point x="548" y="1059" type="curve"/>
      <point x="530" y="1066"/>
      <point x="515" y="1062"/>
      <point x="504" y="1054" type="curve" smooth="yes"/>
      <point x="493" y="1046"/>
      <point x="486" y="1033"/>
      <point x="486" y="1013" type="curve"/>
      <point x="518" y="936"/>
      <point x="552" y="837"/>
      <point x="606" y="762" type="curve" smooth="yes"/>
      <point x="669" y="672" type="line"/>
      <point x="719" y="683"/>
      <point x="792" y="738"/>
    </contour>
    <contour>
      <point x="863" y="1264" type="curve"/>
      <point x="758" y="1229" type="line" smooth="yes"/>
      <point x="671" y="1201"/>
      <point x="584" y="1144"/>
      <point x="513" y="1097" type="curve"/>
      <point x="502" y="1082"/>
      <point x="499" y="1067"/>
      <point x="504" y="1054" type="curve" smooth="yes"/>
      <point x="509" y="1041"/>
      <point x="519" y="1031"/>
      <point x="539" y="1025" type="curve"/>
      <point x="620" y="1032"/>
      <point x="725" y="1034"/>
      <point x="813" y="1061" type="curve" smooth="yes"/>
      <point x="920" y="1094" type="line"/>
      <point x="924" y="1144"/>
      <point x="893" y="1231"/>
    </contour>
  </outline>
</glyph>
<glyph name="plus" format="2">
  <advance width="1080"/>
  <unicode hex="002B"/>
  <outline>
    <contour>
      <point x="123" y="716" type="curve"/>
      <point x="350" y="716" type="line" smooth="yes"/>
      <point x="383" y="716"/>
      <point x="423" y="714"/>
      <point x="456" y="714" type="curve" smooth="yes"/>
      <point x="624" y="714" type="line" smooth="yes"/>
      <point x="657" y="714"/>
      <point x="697" y="716"/>
      <point x="730" y="716" type="curve" smooth="yes"/>
      <point x="957" y="716" type="line"/>
      <point x="963" y="686"/>
      <point x="966" y="662"/>
      <point x="966" y="627" type="curve" smooth="yes"/>
      <point x="966" y="594"/>
      <point x="963" y="565"/>
      <point x="957" y="538" type="curve"/>
      <point x="730" y="538" type="line" smooth="yes"/>
      <point x="697" y="538"/>
      <point x="657" y="540"/>
      <point x="624" y="540" type="curve" smooth="yes"/>
      <point x="456" y="540" type="line" smooth="yes"/>
      <point x="423" y="540"/>
      <point x="383" y="538"/>
      <point x="350" y="538" type="curve" smooth="yes"/>
      <point x="123" y="538" type="line"/>
      <point x="117" y="564"/>
      <point x="114" y="594"/>
      <point x="114" y="627" type="curve" smooth="yes"/>
      <point x="114" y="662"/>
      <point x="117" y="688"/>
    </contour>
    <contour>
      <point x="446" y="812" type="curve" smooth="yes"/>
      <point x="446" y="1058" type="line"/>
      <point x="476" y="1065"/>
      <point x="506" y="1067"/>
      <point x="540" y="1067" type="curve" smooth="yes"/>
      <point x="573" y="1067"/>
      <point x="606" y="1065"/>
      <point x="634" y="1058" type="curve"/>
      <point x="634" y="812" type="line" smooth="yes"/>
      <point x="634" y="779"/>
      <point x="632" y="739"/>
      <point x="632" y="707" type="curve" smooth="yes"/>
      <point x="632" y="548" type="line" smooth="yes"/>
      <point x="632" y="516"/>
      <point x="634" y="477"/>
      <point x="634" y="444" type="curve" smooth="yes"/>
      <point x="634" y="197" type="line"/>
      <point x="606" y="190"/>
      <point x="575" y="188"/>
      <point x="541" y="188" type="curve" smooth="yes"/>
      <point x="507" y="188"/>
      <point x="476" y="190"/>
      <point x="446" y="197" type="curve"/>
      <point x="446" y="444" type="line" smooth="yes"/>
      <point x="446" y="477"/>
      <point x="448" y="516"/>
      <point x="448" y="548" type="curve" smooth="yes"/>
      <point x="448" y="707" type="line" smooth="yes"/>
      <point x="448" y="739"/>
      <point x="446" y="779"/>
    </contour>
  </outline>
</glyph>
<glyph name="comma" format="2">
  <advance width="538"/>
  <unicode hex="002C"/>
  <outline>
    <contour>
      <point x="394" y="208" type="curve"/>
      <point x="371" y="224"/>
      <point x="314" y="235"/>
      <point x="274" y="235" type="curve" smooth="yes"/>
      <point x="233" y="235"/>
      <point x="176" y="221"/>
      <point x="152" y="208" type="curve"/>
      <point x="141" y="190"/>
      <point x="133" y="140"/>
      <point x="133" y="107" type="curve" smooth="yes"/>
      <point x="133" y="73"/>
      <point x="142" y="29"/>
      <point x="152" y="11" type="curve"/>
      <point x="170" y="-3"/>
      <point x="206" y="-13"/>
      <point x="233" y="-17" type="curve"/>
      <point x="227" y="-105"/>
      <point x="158" y="-179"/>
      <point x="67" y="-219" type="curve"/>
      <point x="63" y="-257"/>
      <point x="84" y="-303"/>
      <point x="121" y="-322" type="curve"/>
      <point x="318" y="-255"/>
      <point x="416" y="-92"/>
      <point x="416" y="76" type="curve" smooth="yes"/>
      <point x="416" y="123"/>
      <point x="409" y="173"/>
    </contour>
  </outline>
</glyph>
<glyph name="hyphen" format="2">
  <advance width="700"/>
  <unicode hex="002D"/>
  <outline>
    <contour>
      <point x="102" y="445" type="curve"/>
      <point x="598" y="445" type="line"/>
      <point x="605" y="472"/>
      <point x="607" y="506"/>
      <point x="607" y="532" type="curve" smooth="yes"/>
      <point x="607" y="560"/>
      <point x="605" y="594"/>
      <point x="598" y="623" type="curve"/>
      <point x="102" y="623" type="line"/>
      <point x="95" y="594"/>
      <point x="93" y="560"/>
      <point x="93" y="532" type="curve" smooth="yes"/>
      <point x="93" y="506"/>
      <point x="95" y="472"/>
    </contour>
  </outline>
</glyph>
<glyph name="period" format="2">
  <advance width="526"/>
  <unicode hex="002E"/>
  <outline>
    <contour>
      <point x="122" y="109" type="curve" smooth="yes"/>
      <point x="122" y="85"/>
      <point x="128" y="34"/>
      <point x="141" y="10" type="curve"/>
      <point x="167" y="-6"/>
      <point x="221" y="-17"/>
      <point x="263" y="-17" type="curve" smooth="yes"/>
      <point x="303" y="-17"/>
      <point x="361" y="-6"/>
      <point x="385" y="10" type="curve"/>
      <point x="398" y="34"/>
      <point x="404" y="85"/>
      <point x="404" y="109" type="curve" smooth="yes"/>
      <point x="404" y="133"/>
      <point x="398" y="185"/>
      <point x="385" y="209" type="curve"/>
      <point x="360" y="224"/>
      <point x="303" y="235"/>
      <point x="263" y="235" type="curve" smooth="yes"/>
      <point x="221" y="235"/>
      <point x="167" y="224"/>
      <point x="141" y="209" type="curve"/>
      <point x="128" y="185"/>
      <point x="122" y="133"/>
    </contour>
  </outline>
</glyph>
<glyph name="slash" format="2">
  <advance width="845"/>
  <unicode hex="002F"/>
  <outline>
    <contour>
      <point x="646" y="1423" type="curve"/>
      <point x="14" y="-254" type="line"/>
      <point x="66" y="-294"/>
      <point x="133" y="-317"/>
      <point x="194" y="-322" type="curve"/>
      <point x="825" y="1355" type="line"/>
      <point x="775" y="1394"/>
      <point x="705" y="1417"/>
    </contour>
  </outline>
</glyph>
<glyph name="zero" format="2">
  <advance width="1080"/>
  <unicode hex="0030"/>
  <outline>
    <contour>
      <point x="102" y="633" type="curve" smooth="yes"/>
      <point x="102" y="388"/>
      <point x="127" y="214"/>
      <point x="248" y="87" type="curve" smooth="yes"/>
      <point x="319" y="19"/>
      <point x="402" y="-26"/>
      <point x="540" y="-26" type="curve" smooth="yes"/>
      <point x="679" y="-26"/>
      <point x="761" y="19"/>
      <point x="832" y="87" type="curve" smooth="yes"/>
      <point x="953" y="214"/>
      <point x="978" y="388"/>
      <point x="978" y="633" type="curve" smooth="yes"/>
      <point x="978" y="877"/>
      <point x="953" y="1052"/>
      <point x="832" y="1179" type="curve" smooth="yes"/>
      <point x="761" y="1247"/>
      <point x="680" y="1292"/>
      <point x="541" y="1292" type="curve" smooth="yes"/>
      <point x="402" y="1292"/>
      <point x="317" y="1247"/>
      <point x="248" y="1179" type="curve" smooth="yes"/>
      <point x="126" y="1052"/>
      <point x="102" y="877"/>
    </contour>
    <contour>
      <point x="319" y="633" type="curve" smooth="yes"/>
      <point x="319" y="858"/>
      <point x="340" y="987"/>
      <point x="395" y="1059" type="curve" smooth="yes"/>
      <point x="428" y="1106"/>
      <point x="477" y="1129"/>
      <point x="540" y="1129" type="curve" smooth="yes"/>
      <point x="603" y="1129"/>
      <point x="652" y="1106"/>
      <point x="685" y="1059" type="curve" smooth="yes"/>
      <point x="740" y="987"/>
      <point x="761" y="858"/>
      <point x="761" y="633" type="curve" smooth="yes"/>
      <point x="761" y="410"/>
      <point x="740" y="279"/>
      <point x="685" y="207" type="curve" smooth="yes"/>
      <point x="652" y="160"/>
      <point x="603" y="137"/>
      <point x="540" y="137" type="curve" smooth="yes"/>
      <point x="477" y="137"/>
      <point x="428" y="160"/>
      <point x="395" y="207" type="curve" smooth="yes"/>
      <point x="340" y="279"/>
      <point x="319" y="410"/>
    </contour>
  </outline>
</glyph>
<glyph name="one" format="2">
  <advance width="1080"/>
  <unicode hex="0031"/>
  <outline>
    <contour>
      <point x="699" y="306" type="curve" smooth="yes"/>
      <point x="699" y="1266" type="line"/>
      <point x="662" y="1273"/>
      <point x="630" y="1275"/>
      <point x="601" y="1275" type="curve" smooth="yes"/>
      <point x="572" y="1275"/>
      <point x="537" y="1273"/>
      <point x="502" y="1266" type="curve"/>
      <point x="506" y="1048" type="line" smooth="yes"/>
      <point x="507" y="974"/>
      <point x="494" y="799"/>
      <point x="494" y="731" type="curve" smooth="yes"/>
      <point x="494" y="306" type="line" smooth="yes"/>
      <point x="494" y="252"/>
      <point x="496" y="207"/>
      <point x="496" y="151" type="curve" smooth="yes"/>
      <point x="496" y="83" type="line"/>
      <point x="697" y="83" type="line"/>
      <point x="697" y="151" type="line" smooth="yes"/>
      <point x="697" y="207"/>
      <point x="699" y="252"/>
    </contour>
    <contour>
      <point x="382" y="173" type="curve" smooth="yes"/>
      <point x="199" y="173" type="line"/>
      <point x="193" y="146"/>
      <point x="189" y="115"/>
      <point x="189" y="87" type="curve" smooth="yes"/>
      <point x="189" y="58"/>
      <point x="193" y="29"/>
      <point x="199" y="0" type="curve"/>
      <point x="951" y="0" type="line"/>
      <point x="958" y="28"/>
      <point x="961" y="58"/>
      <point x="961" y="87" type="curve" smooth="yes"/>
      <point x="961" y="115"/>
      <point x="958" y="146"/>
      <point x="951" y="173" type="curve"/>
      <point x="814" y="173" type="line" smooth="yes"/>
      <point x="788" y="173"/>
      <point x="720" y="171"/>
      <point x="693" y="171" type="curve" smooth="yes"/>
      <point x="500" y="171" type="line" smooth="yes"/>
      <point x="473" y="171"/>
      <point x="409" y="173"/>
    </contour>
    <contour>
      <point x="127" y="882" type="curve"/>
      <point x="138" y="829"/>
      <point x="172" y="782"/>
      <point x="216" y="758" type="curve"/>
      <point x="361" y="822"/>
      <point x="526" y="954"/>
      <point x="579" y="1100" type="curve"/>
      <point x="502" y="1266" type="line"/>
      <point x="448" y="1143"/>
      <point x="322" y="1002"/>
    </contour>
  </outline>
</glyph>
<glyph name="two" format="2">
  <advance width="1080"/>
  <unicode hex="0032"/>
  <outline>
    <contour>
      <point x="132" y="1001" type="curve"/>
      <point x="160" y="956"/>
      <point x="230" y="933"/>
      <point x="281" y="930" type="curve"/>
      <point x="324" y="1036"/>
      <point x="409" y="1121"/>
      <point x="520" y="1121" type="curve" smooth="yes"/>
      <point x="633" y="1121"/>
      <point x="714" y="1044"/>
      <point x="714" y="923" type="curve" smooth="yes"/>
      <point x="714" y="818"/>
      <point x="656" y="746"/>
      <point x="563" y="667" type="curve" smooth="yes"/>
      <point x="367" y="501" type="line" smooth="yes"/>
      <point x="237" y="389"/>
      <point x="117" y="255"/>
      <point x="117" y="141" type="curve" smooth="yes"/>
      <point x="117" y="85"/>
      <point x="158" y="43"/>
      <point x="200" y="-1" type="curve"/>
      <point x="321" y="-1" type="line"/>
      <point x="325" y="149" type="line" smooth="yes"/>
      <point x="326" y="200"/>
      <point x="411" y="290"/>
      <point x="525" y="386" type="curve" smooth="yes"/>
      <point x="678" y="513" type="line" smooth="yes"/>
      <point x="809" y="624"/>
      <point x="928" y="727"/>
      <point x="928" y="921" type="curve" smooth="yes"/>
      <point x="928" y="1139"/>
      <point x="777" y="1292"/>
      <point x="538" y="1292" type="curve" smooth="yes"/>
      <point x="333" y="1292"/>
      <point x="189" y="1156"/>
    </contour>
    <contour>
      <point x="959" y="181" type="curve"/>
      <point x="592" y="181" type="line" smooth="yes"/>
      <point x="487" y="181"/>
      <point x="273" y="170"/>
      <point x="153" y="135" type="curve"/>
      <point x="214" y="-1" type="line"/>
      <point x="821" y="-1" type="line" smooth="yes"/>
      <point x="921" y="-1"/>
      <point x="959" y="39"/>
    </contour>
  </outline>
</glyph>
<glyph name="three" format="2">
  <advance width="1080"/>
  <unicode hex="0033"/>
  <outline>
    <contour>
      <point x="743" y="404" type="curve" smooth="yes"/>
      <point x="743" y="233"/>
      <point x="628" y="144"/>
      <point x="479" y="144" type="curve" smooth="yes"/>
      <point x="369" y="144"/>
      <point x="277" y="186"/>
      <point x="198" y="245" type="curve"/>
      <point x="155" y="212"/>
      <point x="117" y="154"/>
      <point x="107" y="105" type="curve"/>
      <point x="195" y="30"/>
      <point x="335" y="-26"/>
      <point x="506" y="-26" type="curve" smooth="yes"/>
      <point x="730" y="-26"/>
      <point x="960" y="113"/>
      <point x="960" y="396" type="curve" smooth="yes"/>
      <point x="960" y="648"/>
      <point x="782" y="765"/>
      <point x="573" y="765" type="curve" smooth="yes"/>
      <point x="465" y="765"/>
      <point x="371" y="740"/>
      <point x="298" y="704" type="curve"/>
      <point x="309" y="660"/>
      <point x="344" y="613"/>
      <point x="382" y="592" type="curve"/>
      <point x="421" y="613"/>
      <point x="475" y="625"/>
      <point x="518" y="625" type="curve" smooth="yes"/>
      <point x="655" y="625"/>
      <point x="743" y="545"/>
    </contour>
    <contour>
      <point x="659" y="828" type="curve" smooth="yes"/>
      <point x="869" y="1042" type="line" smooth="yes"/>
      <point x="900" y="1075"/>
      <point x="912" y="1104"/>
      <point x="912" y="1135" type="curve" smooth="yes"/>
      <point x="912" y="1163"/>
      <point x="899" y="1206"/>
      <point x="867" y="1266" type="curve"/>
      <point x="169" y="1266" type="line"/>
      <point x="156" y="1231"/>
      <point x="152" y="1194"/>
      <point x="152" y="1163" type="curve" smooth="yes"/>
      <point x="152" y="1144"/>
      <point x="154" y="1116"/>
      <point x="163" y="1087" type="curve"/>
      <point x="447" y="1087" type="line" smooth="yes"/>
      <point x="529" y="1087"/>
      <point x="631" y="1094"/>
      <point x="678" y="1105" type="curve"/>
      <point x="684" y="1096" type="line"/>
      <point x="650" y="1067"/>
      <point x="579" y="997"/>
      <point x="548" y="965" type="curve" smooth="yes"/>
      <point x="298" y="704" type="line"/>
      <point x="419" y="662" type="line"/>
      <point x="483" y="692"/>
      <point x="591" y="758"/>
    </contour>
  </outline>
</glyph>
<glyph name="four" format="2">
  <advance width="1080"/>
  <unicode hex="0034"/>
  <outline>
    <contour>
      <point x="134" y="274" type="curve"/>
      <point x="495" y="274" type="line" smooth="yes"/>
      <point x="528" y="274"/>
      <point x="570" y="277"/>
      <point x="602" y="277" type="curve" smooth="yes"/>
      <point x="800" y="277" type="line" smooth="yes"/>
      <point x="832" y="277"/>
      <point x="859" y="276"/>
      <point x="892" y="276" type="curve" smooth="yes"/>
      <point x="990" y="276" type="line"/>
      <point x="1000" y="308"/>
      <point x="1004" y="346"/>
      <point x="1004" y="372" type="curve" smooth="yes"/>
      <point x="1004" y="396"/>
      <point x="1003" y="423"/>
      <point x="998" y="451" type="curve"/>
      <point x="892" y="451" type="line" smooth="yes"/>
      <point x="859" y="451"/>
      <point x="832" y="449"/>
      <point x="800" y="449" type="curve" smooth="yes"/>
      <point x="522" y="449" type="line" smooth="yes"/>
      <point x="480" y="449"/>
      <point x="370" y="447"/>
      <point x="293" y="441" type="curve"/>
      <point x="289" y="448" type="line"/>
      <point x="333" y="518"/>
      <point x="394" y="652"/>
      <point x="430" y="734" type="curve" smooth="yes"/>
      <point x="662" y="1240" type="line"/>
      <point x="623" y="1273"/>
      <point x="527" y="1291"/>
      <point x="468" y="1278" type="curve"/>
      <point x="127" y="525" type="line" smooth="yes"/>
      <point x="105" y="475"/>
      <point x="87" y="431"/>
      <point x="87" y="401" type="curve" smooth="yes"/>
      <point x="87" y="362"/>
      <point x="106" y="317"/>
    </contour>
    <contour>
      <point x="600" y="171" type="curve" smooth="yes"/>
      <point x="600" y="0" type="line"/>
      <point x="632" y="-6"/>
      <point x="667" y="-8"/>
      <point x="700" y="-8" type="curve" smooth="yes"/>
      <point x="735" y="-8"/>
      <point x="768" y="-6"/>
      <point x="802" y="0" type="curve"/>
      <point x="802" y="171" type="line" smooth="yes"/>
      <point x="802" y="204"/>
      <point x="800" y="245"/>
      <point x="800" y="277" type="curve" smooth="yes"/>
      <point x="800" y="449" type="line" smooth="yes"/>
      <point x="800" y="481"/>
      <point x="802" y="523"/>
      <point x="802" y="556" type="curve" smooth="yes"/>
      <point x="802" y="820" type="line"/>
      <point x="793" y="829" type="line"/>
      <point x="737" y="829" type="line" smooth="yes"/>
      <point x="652" y="829"/>
      <point x="600" y="771"/>
      <point x="600" y="671" type="curve" smooth="yes"/>
      <point x="600" y="514" type="line" smooth="yes"/>
      <point x="600" y="495"/>
      <point x="602" y="447"/>
      <point x="602" y="430" type="curve" smooth="yes"/>
      <point x="602" y="277" type="line" smooth="yes"/>
      <point x="602" y="245"/>
      <point x="600" y="204"/>
    </contour>
  </outline>
</glyph>
<glyph name="five" format="2">
  <advance width="1080"/>
  <unicode hex="0035"/>
  <outline>
    <contour>
      <point x="379" y="858" type="curve" smooth="yes"/>
      <point x="387" y="988" type="line" smooth="yes"/>
      <point x="390" y="1040"/>
      <point x="388" y="1167"/>
      <point x="380" y="1224" type="curve"/>
      <point x="197" y="1253" type="line"/>
      <point x="167" y="660" type="line"/>
      <point x="240" y="667"/>
      <point x="299" y="677"/>
      <point x="352" y="696" type="curve"/>
      <point x="367" y="746"/>
      <point x="376" y="804"/>
    </contour>
    <contour>
      <point x="122" y="101" type="curve"/>
      <point x="207" y="28"/>
      <point x="340" y="-26"/>
      <point x="497" y="-26" type="curve" smooth="yes"/>
      <point x="727" y="-26"/>
      <point x="956" y="118"/>
      <point x="956" y="436" type="curve" smooth="yes"/>
      <point x="956" y="688"/>
      <point x="795" y="842"/>
      <point x="549" y="842" type="curve" smooth="yes"/>
      <point x="385" y="842"/>
      <point x="245" y="748"/>
      <point x="167" y="660" type="curve"/>
      <point x="186" y="630"/>
      <point x="231" y="596"/>
      <point x="268" y="589" type="curve"/>
      <point x="336" y="647"/>
      <point x="416" y="677"/>
      <point x="494" y="677" type="curve" smooth="yes"/>
      <point x="609" y="677"/>
      <point x="740" y="618"/>
      <point x="740" y="424" type="curve" smooth="yes"/>
      <point x="740" y="231"/>
      <point x="617" y="144"/>
      <point x="484" y="144" type="curve" smooth="yes"/>
      <point x="376" y="144"/>
      <point x="291" y="184"/>
      <point x="210" y="240" type="curve"/>
      <point x="168" y="209"/>
      <point x="130" y="144"/>
    </contour>
    <contour>
      <point x="888" y="1266" type="curve"/>
      <point x="210" y="1266" type="line"/>
      <point x="197" y="1253" type="line"/>
      <point x="204" y="1100" type="line"/>
      <point x="249" y="1095"/>
      <point x="362" y="1088"/>
      <point x="464" y="1088" type="curve" smooth="yes"/>
      <point x="810" y="1088" type="line" smooth="yes"/>
      <point x="870" y="1088"/>
      <point x="902" y="1120"/>
      <point x="902" y="1181" type="curve" smooth="yes"/>
      <point x="902" y="1202"/>
      <point x="899" y="1235"/>
    </contour>
  </outline>
</glyph>
<glyph name="six" format="2">
  <advance width="1080"/>
  <unicode hex="0036"/>
  <outline>
    <contour>
      <point x="553" y="-26" type="curve" smooth="yes"/>
      <point x="801" y="-26"/>
      <point x="981" y="154"/>
      <point x="981" y="421" type="curve" smooth="yes"/>
      <point x="981" y="712"/>
      <point x="833" y="846"/>
      <point x="616" y="846" type="curve" smooth="yes"/>
      <point x="441" y="846"/>
      <point x="290" y="731"/>
      <point x="230" y="602" type="curve"/>
      <point x="272" y="489" type="line"/>
      <point x="340" y="600"/>
      <point x="458" y="671"/>
      <point x="563" y="671" type="curve" smooth="yes"/>
      <point x="681" y="671"/>
      <point x="769" y="606"/>
      <point x="769" y="408" type="curve" smooth="yes"/>
      <point x="769" y="244"/>
      <point x="696" y="134"/>
      <point x="556" y="134" type="curve" smooth="yes"/>
      <point x="490" y="134"/>
      <point x="442" y="166"/>
      <point x="409" y="208" type="curve" smooth="yes"/>
      <point x="349" y="285"/>
      <point x="327" y="424"/>
      <point x="327" y="528" type="curve" smooth="yes"/>
      <point x="327" y="701" type="line" smooth="yes"/>
      <point x="327" y="939"/>
      <point x="414" y="1125"/>
      <point x="638" y="1125" type="curve" smooth="yes"/>
      <point x="723" y="1125"/>
      <point x="790" y="1103"/>
      <point x="840" y="1081" type="curve"/>
      <point x="883" y="1113"/>
      <point x="910" y="1175"/>
      <point x="915" y="1229" type="curve"/>
      <point x="845" y="1268"/>
      <point x="740" y="1292"/>
      <point x="625" y="1292" type="curve" smooth="yes"/>
      <point x="289" y="1292"/>
      <point x="110" y="1036"/>
      <point x="110" y="634" type="curve" smooth="yes"/>
      <point x="110" y="253"/>
      <point x="215" y="146"/>
      <point x="250" y="102" type="curve" smooth="yes"/>
      <point x="287" y="59"/>
      <point x="378" y="-26"/>
    </contour>
  </outline>
</glyph>
<glyph name="seven" format="2">
  <advance width="1080"/>
  <unicode hex="0037"/>
  <outline>
    <contour>
      <point x="940" y="1266" type="curve"/>
      <point x="148" y="1266" type="line"/>
      <point x="137" y="1234"/>
      <point x="130" y="1197"/>
      <point x="130" y="1159" type="curve" smooth="yes"/>
      <point x="130" y="1135"/>
      <point x="133" y="1108"/>
      <point x="139" y="1087" type="curve"/>
      <point x="468" y="1087" type="line" smooth="yes"/>
      <point x="519" y="1087"/>
      <point x="718" y="1092"/>
      <point x="773" y="1104" type="curve"/>
      <point x="780" y="1096" type="line"/>
      <point x="532" y="835"/>
      <point x="356" y="448"/>
      <point x="321" y="83" type="curve" smooth="yes"/>
      <point x="313" y="0" type="line"/>
      <point x="343" y="-7"/>
      <point x="383" y="-9"/>
      <point x="421" y="-9" type="curve" smooth="yes"/>
      <point x="461" y="-9"/>
      <point x="500" y="-7"/>
      <point x="528" y="0" type="curve"/>
      <point x="534" y="72" type="line" smooth="yes"/>
      <point x="570" y="438"/>
      <point x="678" y="691"/>
      <point x="941" y="1043" type="curve" smooth="yes"/>
      <point x="968" y="1080"/>
      <point x="979" y="1110"/>
      <point x="979" y="1136" type="curve" smooth="yes"/>
      <point x="979" y="1172"/>
      <point x="959" y="1226"/>
    </contour>
  </outline>
</glyph>
<glyph name="eight" format="2">
  <advance width="1080"/>
  <unicode hex="0038"/>
  <outline>
    <contour>
      <point x="98" y="319" type="curve" smooth="yes"/>
      <point x="98" y="99"/>
      <point x="272" y="-26"/>
      <point x="530" y="-26" type="curve" smooth="yes"/>
      <point x="775" y="-26"/>
      <point x="980" y="108"/>
      <point x="980" y="334" type="curve" smooth="yes"/>
      <point x="980" y="550"/>
      <point x="815" y="676"/>
      <point x="606" y="739" type="curve" smooth="yes"/>
      <point x="572" y="750" type="line" smooth="yes"/>
      <point x="431" y="789"/>
      <point x="341" y="851"/>
      <point x="341" y="959" type="curve" smooth="yes"/>
      <point x="341" y="1067"/>
      <point x="428" y="1139"/>
      <point x="538" y="1139" type="curve" smooth="yes"/>
      <point x="651" y="1139"/>
      <point x="739" y="1070"/>
      <point x="739" y="956" type="curve" smooth="yes"/>
      <point x="739" y="844"/>
      <point x="655" y="747"/>
      <point x="514" y="707" type="curve"/>
      <point x="663" y="646" type="line"/>
      <point x="810" y="688"/>
      <point x="944" y="804"/>
      <point x="944" y="966" type="curve" smooth="yes"/>
      <point x="944" y="1157"/>
      <point x="779" y="1292"/>
      <point x="539" y="1292" type="curve" smooth="yes"/>
      <point x="309" y="1292"/>
      <point x="133" y="1152"/>
      <point x="133" y="957" type="curve" smooth="yes"/>
      <point x="133" y="766"/>
      <point x="282" y="658"/>
      <point x="484" y="594" type="curve" smooth="yes"/>
      <point x="519" y="583" type="line" smooth="yes"/>
      <point x="649" y="544"/>
      <point x="766" y="468"/>
      <point x="766" y="336" type="curve" smooth="yes"/>
      <point x="766" y="207"/>
      <point x="665" y="125"/>
      <point x="537" y="125" type="curve" smooth="yes"/>
      <point x="410" y="125"/>
      <point x="310" y="200"/>
      <point x="310" y="333" type="curve" smooth="yes"/>
      <point x="310" y="458"/>
      <point x="399" y="582"/>
      <point x="574" y="635" type="curve"/>
      <point x="418" y="695" type="line"/>
      <point x="258" y="647"/>
      <point x="98" y="505"/>
    </contour>
  </outline>
</glyph>
<glyph name="nine" format="2">
  <advance width="1080"/>
  <unicode hex="0039"/>
  <outline>
    <contour>
      <point x="527" y="1292" type="curve" smooth="yes"/>
      <point x="279" y="1292"/>
      <point x="99" y="1112"/>
      <point x="99" y="845" type="curve" smooth="yes"/>
      <point x="99" y="554"/>
      <point x="247" y="420"/>
      <point x="464" y="420" type="curve" smooth="yes"/>
      <point x="639" y="420"/>
      <point x="790" y="535"/>
      <point x="850" y="664" type="curve"/>
      <point x="808" y="777" type="line"/>
      <point x="740" y="666"/>
      <point x="622" y="595"/>
      <point x="517" y="595" type="curve" smooth="yes"/>
      <point x="399" y="595"/>
      <point x="311" y="660"/>
      <point x="311" y="858" type="curve" smooth="yes"/>
      <point x="311" y="1022"/>
      <point x="384" y="1132"/>
      <point x="524" y="1132" type="curve" smooth="yes"/>
      <point x="590" y="1132"/>
      <point x="638" y="1100"/>
      <point x="671" y="1058" type="curve" smooth="yes"/>
      <point x="732" y="982"/>
      <point x="753" y="842"/>
      <point x="753" y="738" type="curve" smooth="yes"/>
      <point x="753" y="565" type="line" smooth="yes"/>
      <point x="753" y="327"/>
      <point x="666" y="141"/>
      <point x="442" y="141" type="curve" smooth="yes"/>
      <point x="357" y="141"/>
      <point x="290" y="163"/>
      <point x="240" y="185" type="curve"/>
      <point x="197" y="153"/>
      <point x="170" y="91"/>
      <point x="165" y="37" type="curve"/>
      <point x="235" y="-2"/>
      <point x="340" y="-26"/>
      <point x="455" y="-26" type="curve" smooth="yes"/>
      <point x="791" y="-26"/>
      <point x="970" y="230"/>
      <point x="970" y="632" type="curve" smooth="yes"/>
      <point x="970" y="1013"/>
      <point x="865" y="1120"/>
      <point x="830" y="1164" type="curve" smooth="yes"/>
      <point x="793" y="1208"/>
      <point x="702" y="1292"/>
    </contour>
  </outline>
</glyph>
<glyph name="less" format="2">
  <advance width="1080"/>
  <unicode hex="003C"/>
  <outline>
    <contour>
      <point x="856" y="1112" type="curve"/>
      <point x="117" y="708" type="line"/>
      <point x="101" y="657"/>
      <point x="104" y="592"/>
      <point x="117" y="543" type="curve"/>
      <point x="856" y="138" type="line"/>
      <point x="903" y="167"/>
      <point x="945" y="233"/>
      <point x="952" y="302" type="curve"/>
      <point x="477" y="551" type="line" smooth="yes"/>
      <point x="440" y="570"/>
      <point x="362" y="605"/>
      <point x="330" y="619" type="curve"/>
      <point x="330" y="633" type="line"/>
      <point x="362" y="647"/>
      <point x="440" y="681"/>
      <point x="477" y="701" type="curve" smooth="yes"/>
      <point x="952" y="950" type="line"/>
      <point x="947" y="1019"/>
      <point x="905" y="1082"/>
    </contour>
  </outline>
</glyph>
<glyph name="equal" format="2">
  <advance width="1080"/>
  <unicode hex="003D"/>
  <outline>
    <contour>
      <point x="123" y="348" type="curve"/>
      <point x="957" y="348" type="line"/>
      <point x="964" y="376"/>
      <point x="966" y="409"/>
      <point x="966" y="436" type="curve" smooth="yes"/>
      <point x="966" y="464"/>
      <point x="964" y="498"/>
      <point x="957" y="526" type="curve"/>
      <point x="123" y="526" type="line"/>
      <point x="116" y="498"/>
      <point x="114" y="464"/>
      <point x="114" y="436" type="curve" smooth="yes"/>
      <point x="114" y="409"/>
      <point x="116" y="376"/>
    </contour>
    <contour>
      <point x="123" y="733" type="curve"/>
      <point x="957" y="733" type="line"/>
      <point x="964" y="761"/>
      <point x="966" y="794"/>
      <point x="966" y="821" type="curve" smooth="yes"/>
      <point x="966" y="849"/>
      <point x="964" y="883"/>
      <point x="957" y="911" type="curve"/>
      <point x="123" y="911" type="line"/>
      <point x="116" y="883"/>
      <point x="114" y="849"/>
      <point x="114" y="821" type="curve" smooth="yes"/>
      <point x="114" y="794"/>
      <point x="116" y="761"/>
    </contour>
  </outline>
</glyph>
<glyph name="greater" format="2">
  <advance width="1067"/>
  <unicode hex="003E"/>
  <outline>
    <contour>
      <point x="217" y="141" type="curve"/>
      <point x="956" y="545" type="line"/>
      <point x="973" y="596"/>
      <point x="969" y="661"/>
      <point x="956" y="710" type="curve"/>
      <point x="218" y="1115" type="line"/>
      <point x="171" y="1086"/>
      <point x="128" y="1020"/>
      <point x="122" y="951" type="curve"/>
      <point x="597" y="702" type="line" smooth="yes"/>
      <point x="633" y="683"/>
      <point x="711" y="648"/>
      <point x="744" y="634" type="curve"/>
      <point x="744" y="620" type="line"/>
      <point x="711" y="606"/>
      <point x="633" y="572"/>
      <point x="597" y="552" type="curve" smooth="yes"/>
      <point x="122" y="303" type="line"/>
      <point x="127" y="234"/>
      <point x="168" y="171"/>
    </contour>
  </outline>
</glyph>
<glyph name="question" format="2">
  <advance width="792"/>
  <unicode hex="003F"/>
  <outline>
    <contour>
      <point x="22" y="1290" type="curve"/>
      <point x="26" y="1234"/>
      <point x="61" y="1166"/>
      <point x="98" y="1135" type="curve"/>
      <point x="177" y="1176"/>
      <point x="267" y="1209"/>
      <point x="357" y="1209" type="curve" smooth="yes"/>
      <point x="481" y="1209"/>
      <point x="554" y="1137"/>
      <point x="554" y="1030" type="curve" smooth="yes"/>
      <point x="554" y="913"/>
      <point x="458" y="831"/>
      <point x="317" y="759" type="curve" smooth="yes"/>
      <point x="219" y="710" type="line"/>
      <point x="202" y="687" type="line"/>
      <point x="214" y="389" type="line"/>
      <point x="238" y="381"/>
      <point x="270" y="379"/>
      <point x="296" y="379" type="curve" smooth="yes"/>
      <point x="322" y="379"/>
      <point x="349" y="381"/>
      <point x="373" y="389" type="curve"/>
      <point x="389" y="593" type="line"/>
      <point x="514" y="663" type="line" smooth="yes"/>
      <point x="660" y="745"/>
      <point x="775" y="865"/>
      <point x="775" y="1050" type="curve" smooth="yes"/>
      <point x="775" y="1256"/>
      <point x="631" y="1392"/>
      <point x="403" y="1392" type="curve" smooth="yes"/>
      <point x="264" y="1392"/>
      <point x="130" y="1349"/>
    </contour>
    <contour>
      <point x="295" y="217" type="curve" smooth="yes"/>
      <point x="253" y="217"/>
      <point x="209" y="208"/>
      <point x="182" y="192" type="curve"/>
      <point x="172" y="174"/>
      <point x="165" y="126"/>
      <point x="165" y="98" type="curve" smooth="yes"/>
      <point x="165" y="71"/>
      <point x="172" y="24"/>
      <point x="182" y="5" type="curve"/>
      <point x="209" y="-10"/>
      <point x="253" y="-20"/>
      <point x="295" y="-20" type="curve" smooth="yes"/>
      <point x="335" y="-20"/>
      <point x="382" y="-10"/>
      <point x="408" y="5" type="curve"/>
      <point x="419" y="24"/>
      <point x="426" y="71"/>
      <point x="426" y="98" type="curve" smooth="yes"/>
      <point x="426" y="126"/>
      <point x="419" y="174"/>
      <point x="408" y="192" type="curve"/>
      <point x="382" y="208"/>
      <point x="335" y="217"/>
    </contour>
  </outline>
</glyph>
<glyph name="at" format="2">
  <advance width="1898"/>
  <unicode hex="0040"/>
  <outline>
    <contour>
      <point x="1324" y="315" type="curve" smooth="yes"/>
      <point x="1324" y="825" type="line"/>
      <point x="1245" y="900"/>
      <point x="1117" y="962"/>
      <point x="975" y="962" type="curve" smooth="yes"/>
      <point x="712" y="962"/>
      <point x="567" y="736"/>
      <point x="567" y="453" type="curve" smooth="yes"/>
      <point x="567" y="184"/>
      <point x="686" y="10"/>
      <point x="886" y="10" type="curve" smooth="yes"/>
      <point x="1043" y="10"/>
      <point x="1193" y="140"/>
      <point x="1243" y="257" type="curve"/>
      <point x="1167" y="359" type="line"/>
      <point x="1129" y="266"/>
      <point x="1020" y="173"/>
      <point x="930" y="173" type="curve" smooth="yes"/>
      <point x="815" y="173"/>
      <point x="769" y="286"/>
      <point x="769" y="458" type="curve" smooth="yes"/>
      <point x="769" y="651"/>
      <point x="834" y="812"/>
      <point x="975" y="812" type="curve" smooth="yes"/>
      <point x="1040" y="812"/>
      <point x="1096" y="785"/>
      <point x="1129" y="753" type="curve"/>
      <point x="1129" y="286" type="line" smooth="yes"/>
      <point x="1129" y="131"/>
      <point x="1234" y="18"/>
      <point x="1406" y="18" type="curve" smooth="yes"/>
      <point x="1611" y="18"/>
      <point x="1815" y="208"/>
      <point x="1815" y="580" type="curve" smooth="yes"/>
      <point x="1815" y="1055"/>
      <point x="1469" y="1355"/>
      <point x="981" y="1355" type="curve" smooth="yes"/>
      <point x="466" y="1355"/>
      <point x="101" y="970"/>
      <point x="101" y="451" type="curve" smooth="yes"/>
      <point x="101" y="-95"/>
      <point x="433" y="-377"/>
      <point x="893" y="-377" type="curve" smooth="yes"/>
      <point x="1054" y="-377"/>
      <point x="1226" y="-342"/>
      <point x="1367" y="-288" type="curve"/>
      <point x="1367" y="-238"/>
      <point x="1345" y="-175"/>
      <point x="1311" y="-142" type="curve"/>
      <point x="1189" y="-192"/>
      <point x="1052" y="-216"/>
      <point x="906" y="-216" type="curve" smooth="yes"/>
      <point x="549" y="-216"/>
      <point x="308" y="15"/>
      <point x="308" y="451" type="curve" smooth="yes"/>
      <point x="308" y="879"/>
      <point x="574" y="1201"/>
      <point x="981" y="1201" type="curve" smooth="yes"/>
      <point x="1363" y="1201"/>
      <point x="1610" y="958"/>
      <point x="1610" y="587" type="curve" smooth="yes"/>
      <point x="1610" y="280"/>
      <point x="1510" y="175"/>
      <point x="1412" y="175" type="curve" smooth="yes"/>
      <point x="1352" y="175"/>
      <point x="1324" y="213"/>
    </contour>
  </outline>
</glyph>
<glyph name="A" format="2">
  <advance width="1223"/>
  <unicode hex="0041"/>
  <anchor x="614" y="0" name="bottom"/>
  <anchor x="1183" y="13" name="ogonek"/>
  <anchor x="613" y="1464" name="top"/>
  <outline>
    <contour>
      <point x="491" y="1366" type="curve"/>
      <point x="40" y="14" type="line"/>
      <point x="46" y="4" type="line"/>
      <point x="74" y="-5"/>
      <point x="112" y="-10"/>
      <point x="150" y="-10" type="curve" smooth="yes"/>
      <point x="182" y="-10"/>
      <point x="215" y="-8"/>
      <point x="242" y="-2" type="curve"/>
      <point x="518" y="866" type="line" smooth="yes"/>
      <point x="539" y="939"/>
      <point x="576" y="1066"/>
      <point x="596" y="1155" type="curve"/>
      <point x="607" y="1155" type="line"/>
      <point x="634" y="1050"/>
      <point x="675" y="910"/>
      <point x="711" y="794" type="curve" smooth="yes"/>
      <point x="932" y="99" type="line" smooth="yes"/>
      <point x="959" y="10"/>
      <point x="991" y="-14"/>
      <point x="1059" y="-14" type="curve" smooth="yes"/>
      <point x="1104" y="-14"/>
      <point x="1152" y="-5"/>
      <point x="1183" y="13" type="curve"/>
      <point x="734" y="1365" type="line"/>
      <point x="705" y="1371"/>
      <point x="648" y="1374"/>
      <point x="615" y="1374" type="curve" smooth="yes"/>
      <point x="579" y="1374"/>
      <point x="525" y="1371"/>
    </contour>
    <contour>
      <point x="464" y="330" type="curve" smooth="yes"/>
      <point x="739" y="330" type="line" smooth="yes"/>
      <point x="757" y="330"/>
      <point x="854" y="332"/>
      <point x="874" y="332" type="curve" smooth="yes"/>
      <point x="972" y="332" type="line"/>
      <point x="915" y="505" type="line"/>
      <point x="826" y="505" type="line" smooth="yes"/>
      <point x="807" y="505"/>
      <point x="722" y="507"/>
      <point x="704" y="507" type="curve" smooth="yes"/>
      <point x="505" y="507" type="line" smooth="yes"/>
      <point x="486" y="507"/>
      <point x="405" y="505"/>
      <point x="385" y="505" type="curve" smooth="yes"/>
      <point x="298" y="505" type="line"/>
      <point x="232" y="332" type="line"/>
      <point x="330" y="332" type="line" smooth="yes"/>
      <point x="350" y="332"/>
      <point x="446" y="330"/>
    </contour>
  </outline>
</glyph>
<glyph name="B" format="2">
  <advance width="1210"/>
  <unicode hex="0042"/>
  <anchor x="593" y="0" name="bottom"/>
  <anchor x="565" y="1464" name="top"/>
  <outline>
    <contour>
      <point x="194" y="1367" type="curve"/>
      <point x="181" y="1355" type="line"/>
      <point x="181" y="11" type="line"/>
      <point x="194" y="-1" type="line"/>
      <point x="345" y="-4"/>
      <point x="473" y="-8"/>
      <point x="635" y="-8" type="curve" smooth="yes"/>
      <point x="968" y="-8"/>
      <point x="1112" y="160"/>
      <point x="1112" y="382" type="curve" smooth="yes"/>
      <point x="1112" y="586"/>
      <point x="950" y="740"/>
      <point x="784" y="744" type="curve"/>
      <point x="784" y="714" type="line"/>
      <point x="939" y="732"/>
      <point x="1047" y="860"/>
      <point x="1047" y="1013" type="curve" smooth="yes"/>
      <point x="1047" y="1238"/>
      <point x="905" y="1374"/>
      <point x="610" y="1374" type="curve" smooth="yes"/>
      <point x="477" y="1374"/>
      <point x="341" y="1370"/>
    </contour>
    <contour>
      <point x="392" y="152" type="curve"/>
      <point x="392" y="1213" type="line"/>
      <point x="457" y="1211"/>
      <point x="551" y="1211"/>
      <point x="606" y="1211" type="curve" smooth="yes"/>
      <point x="794" y="1211"/>
      <point x="832" y="1104"/>
      <point x="832" y="1007" type="curve" smooth="yes"/>
      <point x="832" y="911"/>
      <point x="790" y="799"/>
      <point x="602" y="799" type="curve" smooth="yes"/>
      <point x="308" y="799" type="line"/>
      <point x="308" y="635" type="line"/>
      <point x="622" y="635" type="line" smooth="yes"/>
      <point x="837" y="635"/>
      <point x="894" y="494"/>
      <point x="894" y="394" type="curve" smooth="yes"/>
      <point x="894" y="293"/>
      <point x="851" y="154"/>
      <point x="635" y="154" type="curve" smooth="yes"/>
      <point x="560" y="154"/>
      <point x="476" y="153"/>
    </contour>
  </outline>
</glyph>
<glyph name="C" format="2">
  <advance width="1207"/>
  <unicode hex="0043"/>
  <anchor x="641" y="0" name="bottom"/>
  <anchor x="642" y="1466" name="top"/>
  <outline>
    <contour>
      <point x="921" y="894" type="curve"/>
      <point x="953" y="885"/>
      <point x="976" y="881"/>
      <point x="1008" y="881" type="curve" smooth="yes"/>
      <point x="1094" y="881"/>
      <point x="1129" y="929"/>
      <point x="1129" y="1002" type="curve" smooth="yes"/>
      <point x="1129" y="1204"/>
      <point x="943" y="1393"/>
      <point x="646" y="1393" type="curve" smooth="yes"/>
      <point x="351" y="1393"/>
      <point x="99" y="1174"/>
      <point x="99" y="677" type="curve" smooth="yes"/>
      <point x="99" y="322"/>
      <point x="235" y="-26"/>
      <point x="619" y="-26" type="curve" smooth="yes"/>
      <point x="824" y="-26"/>
      <point x="1008" y="64"/>
      <point x="1117" y="174" type="curve"/>
      <point x="1104" y="224"/>
      <point x="1057" y="282"/>
      <point x="1011" y="312" type="curve"/>
      <point x="896" y="215"/>
      <point x="779" y="160"/>
      <point x="654" y="160" type="curve" smooth="yes"/>
      <point x="447" y="160"/>
      <point x="323" y="346"/>
      <point x="323" y="676" type="curve" smooth="yes"/>
      <point x="323" y="1031"/>
      <point x="431" y="1219"/>
      <point x="642" y="1219" type="curve" smooth="yes"/>
      <point x="858" y="1219"/>
      <point x="922" y="1045"/>
    </contour>
  </outline>
</glyph>
<glyph name="D" format="2">
  <advance width="1296"/>
  <unicode hex="0044"/>
  <guideline x="617" y="902" angle="90.0"/>
  <anchor x="614" y="0" name="bottom"/>
  <anchor x="617" y="1464" name="top"/>
  <outline>
    <contour>
      <point x="1194" y="683" type="curve" smooth="yes"/>
      <point x="1194" y="915"/>
      <point x="1161" y="1125"/>
      <point x="983" y="1273" type="curve" smooth="yes"/>
      <point x="896" y="1345"/>
      <point x="740" y="1374"/>
      <point x="634" y="1374" type="curve" smooth="yes"/>
      <point x="472" y="1374"/>
      <point x="367" y="1373"/>
      <point x="194" y="1367" type="curve"/>
      <point x="181" y="1355" type="line"/>
      <point x="181" y="11" type="line"/>
      <point x="194" y="-1" type="line"/>
      <point x="368" y="-5"/>
      <point x="472" y="-9"/>
      <point x="634" y="-9" type="curve" smooth="yes"/>
      <point x="740" y="-9"/>
      <point x="895" y="20"/>
      <point x="983" y="92" type="curve" smooth="yes"/>
      <point x="1163" y="240"/>
      <point x="1194" y="449"/>
    </contour>
    <contour>
      <point x="973" y="683" type="curve" smooth="yes"/>
      <point x="973" y="445"/>
      <point x="930" y="162"/>
      <point x="633" y="162" type="curve" smooth="yes"/>
      <point x="549" y="162"/>
      <point x="485" y="164"/>
      <point x="394" y="163" type="curve"/>
      <point x="394" y="1204" type="line"/>
      <point x="485" y="1204"/>
      <point x="549" y="1202"/>
      <point x="633" y="1202" type="curve" smooth="yes"/>
      <point x="930" y="1202"/>
      <point x="973" y="922"/>
    </contour>
  </outline>
</glyph>
<glyph name="F" format="2">
  <advance width="1043"/>
  <unicode hex="0046"/>
  <anchor x="595" y="1464" name="top"/>
  <outline>
    <contour>
      <point x="394" y="0" type="curve"/>
      <point x="394" y="950" type="line" smooth="yes"/>
      <point x="394" y="1051"/>
      <point x="392" y="1157"/>
      <point x="392" y="1260" type="curve" smooth="yes"/>
      <point x="392" y="1366" type="line"/>
      <point x="194" y="1366" type="line"/>
      <point x="181" y="1354" type="line"/>
      <point x="181" y="0" type="line"/>
      <point x="214" y="-6"/>
      <point x="255" y="-8"/>
      <point x="288" y="-8" type="curve" smooth="yes"/>
      <point x="322" y="-8"/>
      <point x="361" y="-6"/>
    </contour>
    <contour>
      <point x="986" y="1366" type="curve"/>
      <point x="309" y="1366" type="line"/>
      <point x="309" y="1189" type="line"/>
      <point x="385" y="1185"/>
      <point x="474" y="1183"/>
      <point x="583" y="1183" type="curve" smooth="yes"/>
      <point x="877" y="1183" type="line" smooth="yes"/>
      <point x="959" y="1183"/>
      <point x="998" y="1212"/>
      <point x="998" y="1282" type="curve" smooth="yes"/>
      <point x="998" y="1308"/>
      <point x="994" y="1342"/>
    </contour>
    <contour>
      <point x="880" y="776" type="curve"/>
      <point x="479" y="776" type="line" smooth="yes"/>
      <point x="430" y="776"/>
      <point x="365" y="774"/>
      <point x="314" y="774" type="curve"/>
      <point x="314" y="601" type="line"/>
      <point x="365" y="600"/>
      <point x="430" y="598"/>
      <point x="479" y="598" type="curve" smooth="yes"/>
      <point x="880" y="598" type="line"/>
      <point x="887" y="627"/>
      <point x="891" y="664"/>
      <point x="891" y="688" type="curve" smooth="yes"/>
      <point x="891" y="711"/>
      <point x="887" y="749"/>
    </contour>
  </outline>
</glyph>
<glyph name="G" format="2">
  <advance width="1286"/>
  <unicode hex="0047"/>
  <anchor x="677" y="0" name="bottom"/>
  <anchor x="689" y="1464" name="top"/>
  <outline>
    <contour>
      <point x="1157" y="1245" type="curve"/>
      <point x="1038" y="1335"/>
      <point x="862" y="1392"/>
      <point x="696" y="1392" type="curve" smooth="yes"/>
      <point x="396" y="1392"/>
      <point x="99" y="1182"/>
      <point x="99" y="673" type="curve" smooth="yes"/>
      <point x="99" y="299"/>
      <point x="248" y="-26"/>
      <point x="677" y="-26" type="curve" smooth="yes"/>
      <point x="850" y="-26"/>
      <point x="1040" y="14"/>
      <point x="1160" y="58" type="curve"/>
      <point x="1050" y="217" type="line"/>
      <point x="986" y="190"/>
      <point x="856" y="150"/>
      <point x="715" y="150" type="curve" smooth="yes"/>
      <point x="451" y="150"/>
      <point x="319" y="316"/>
      <point x="319" y="671" type="curve" smooth="yes"/>
      <point x="319" y="1066"/>
      <point x="484" y="1210"/>
      <point x="699" y="1210" type="curve" smooth="yes"/>
      <point x="827" y="1210"/>
      <point x="959" y="1159"/>
      <point x="1054" y="1087" type="curve"/>
      <point x="1097" y="1116"/>
      <point x="1147" y="1179"/>
    </contour>
    <contour>
      <point x="956" y="408" type="curve" smooth="yes"/>
      <point x="956" y="56" type="line"/>
      <point x="1160" y="58" type="line"/>
      <point x="1160" y="581" type="line"/>
      <point x="975" y="644" type="line"/>
      <point x="960" y="582"/>
      <point x="956" y="501"/>
    </contour>
    <contour>
      <point x="1007" y="719" type="curve" smooth="yes"/>
      <point x="700" y="719" type="line"/>
      <point x="691" y="693"/>
      <point x="683" y="657"/>
      <point x="683" y="627" type="curve" smooth="yes"/>
      <point x="683" y="548"/>
      <point x="737" y="535"/>
      <point x="789" y="535" type="curve" smooth="yes"/>
      <point x="1160" y="535" type="line"/>
      <point x="1160" y="581" type="line" smooth="yes"/>
      <point x="1160" y="669"/>
      <point x="1121" y="719"/>
    </contour>
  </outline>
</glyph>
<glyph name="H" format="2">
  <advance width="1349"/>
  <unicode hex="0048"/>
  <anchor x="675" y="0" name="bottom"/>
  <anchor x="674" y="1465" name="top"/>
  <outline>
    <contour>
      <point x="506" y="614" type="curve" smooth="yes"/>
      <point x="843" y="614" type="line"/>
      <point x="862" y="614"/>
      <point x="937" y="616"/>
      <point x="957" y="616" type="curve" smooth="yes"/>
      <point x="998" y="616"/>
      <point x="1042" y="614"/>
      <point x="1083" y="614" type="curve"/>
      <point x="1083" y="797" type="line"/>
      <point x="1042" y="797"/>
      <point x="998" y="795"/>
      <point x="957" y="795" type="curve" smooth="yes"/>
      <point x="937" y="795"/>
      <point x="862" y="797"/>
      <point x="843" y="797" type="curve" smooth="yes"/>
      <point x="506" y="797" type="line" smooth="yes"/>
      <point x="487" y="797"/>
      <point x="412" y="795"/>
      <point x="392" y="795" type="curve" smooth="yes"/>
      <point x="351" y="795"/>
      <point x="308" y="797"/>
      <point x="266" y="797" type="curve"/>
      <point x="266" y="614" type="line"/>
      <point x="308" y="614"/>
      <point x="351" y="616"/>
      <point x="392" y="616" type="curve" smooth="yes"/>
      <point x="412" y="616"/>
      <point x="487" y="614"/>
    </contour>
    <contour>
      <point x="394" y="0" type="curve"/>
      <point x="394" y="468" type="line" smooth="yes"/>
      <point x="394" y="524"/>
      <point x="392" y="562"/>
      <point x="392" y="616" type="curve" smooth="yes"/>
      <point x="392" y="795" type="line" smooth="yes"/>
      <point x="392" y="849"/>
      <point x="394" y="887"/>
      <point x="394" y="943" type="curve" smooth="yes"/>
      <point x="394" y="1366" type="line"/>
      <point x="361" y="1372"/>
      <point x="320" y="1374"/>
      <point x="287" y="1374" type="curve" smooth="yes"/>
      <point x="256" y="1374"/>
      <point x="212" y="1372"/>
      <point x="181" y="1366" type="curve"/>
      <point x="181" y="0" type="line"/>
      <point x="212" y="-6"/>
      <point x="256" y="-8"/>
      <point x="287" y="-8" type="curve" smooth="yes"/>
      <point x="320" y="-8"/>
      <point x="361" y="-6"/>
    </contour>
    <contour>
      <point x="955" y="468" type="curve" smooth="yes"/>
      <point x="955" y="0" type="line"/>
      <point x="987" y="-6"/>
      <point x="1028" y="-8"/>
      <point x="1061" y="-8" type="curve" smooth="yes"/>
      <point x="1096" y="-8"/>
      <point x="1134" y="-6"/>
      <point x="1168" y="0" type="curve"/>
      <point x="1168" y="1366" type="line"/>
      <point x="1136" y="1372"/>
      <point x="1092" y="1374"/>
      <point x="1060" y="1374" type="curve" smooth="yes"/>
      <point x="1028" y="1374"/>
      <point x="986" y="1372"/>
      <point x="955" y="1366" type="curve"/>
      <point x="955" y="943" type="line" smooth="yes"/>
      <point x="955" y="887"/>
      <point x="957" y="849"/>
      <point x="957" y="795" type="curve" smooth="yes"/>
      <point x="957" y="616" type="line" smooth="yes"/>
      <point x="957" y="562"/>
      <point x="955" y="524"/>
    </contour>
  </outline>
</glyph>
<glyph name="I" format="2">
  <advance width="589"/>
  <unicode hex="0049"/>
  <anchor x="293" y="0" name="bottom"/>
  <anchor x="401" y="0" name="ogonek"/>
  <anchor x="294" y="1465" name="top"/>
  <outline>
    <contour>
      <point x="188" y="1366" type="curve"/>
      <point x="188" y="0" type="line"/>
      <point x="219" y="-6"/>
      <point x="262" y="-8"/>
      <point x="293" y="-8" type="curve" smooth="yes"/>
      <point x="327" y="-8"/>
      <point x="368" y="-6"/>
      <point x="401" y="0" type="curve"/>
      <point x="401" y="1366" type="line"/>
      <point x="368" y="1372"/>
      <point x="327" y="1374"/>
      <point x="293" y="1374" type="curve" smooth="yes"/>
      <point x="262" y="1374"/>
      <point x="219" y="1372"/>
    </contour>
  </outline>
</glyph>
<glyph name="J" format="2">
  <advance width="897"/>
  <unicode hex="004A"/>
  <anchor x="635" y="1464" name="top"/>
  <outline>
    <contour>
      <point x="99" y="224" type="curve"/>
      <point x="59" y="180"/>
      <point x="31" y="123"/>
      <point x="20" y="64" type="curve"/>
      <point x="107" y="11"/>
      <point x="228" y="-20"/>
      <point x="331" y="-20" type="curve" smooth="yes"/>
      <point x="678" y="-20"/>
      <point x="741" y="205"/>
      <point x="741" y="497" type="curve" smooth="yes"/>
      <point x="741" y="1366" type="line"/>
      <point x="709" y="1372"/>
      <point x="668" y="1374"/>
      <point x="635" y="1374" type="curve" smooth="yes"/>
      <point x="603" y="1374"/>
      <point x="560" y="1372"/>
      <point x="528" y="1366" type="curve"/>
      <point x="528" y="467" type="line" smooth="yes"/>
      <point x="528" y="253"/>
      <point x="478" y="159"/>
      <point x="314" y="159" type="curve" smooth="yes"/>
      <point x="240" y="159"/>
      <point x="159" y="187"/>
    </contour>
  </outline>
</glyph>
<glyph name="K" format="2">
  <advance width="1193"/>
  <unicode hex="004B"/>
  <anchor x="626" y="0" name="bottom"/>
  <anchor x="619" y="1464" name="top"/>
  <outline>
    <contour>
      <point x="181" y="1366" type="curve"/>
      <point x="181" y="0" type="line"/>
      <point x="212" y="-6"/>
      <point x="256" y="-8"/>
      <point x="287" y="-8" type="curve" smooth="yes"/>
      <point x="320" y="-8"/>
      <point x="361" y="-6"/>
      <point x="394" y="0" type="curve"/>
      <point x="394" y="1366" type="line"/>
      <point x="361" y="1372"/>
      <point x="320" y="1374"/>
      <point x="287" y="1374" type="curve" smooth="yes"/>
      <point x="256" y="1374"/>
      <point x="212" y="1372"/>
    </contour>
    <contour>
      <point x="1160" y="55" type="curve"/>
      <point x="1125" y="85"/>
      <point x="1102" y="116"/>
      <point x="1071" y="200" type="curve" smooth="yes"/>
      <point x="962" y="490" type="line" smooth="yes"/>
      <point x="900" y="654"/>
      <point x="833" y="744"/>
      <point x="628" y="744" type="curve" smooth="yes"/>
      <point x="285" y="744" type="line"/>
      <point x="285" y="604" type="line"/>
      <point x="406" y="611"/>
      <point x="488" y="614"/>
      <point x="529" y="614" type="curve" smooth="yes"/>
      <point x="648" y="614"/>
      <point x="711" y="561"/>
      <point x="767" y="410" type="curve" smooth="yes"/>
      <point x="875" y="117" type="line" smooth="yes"/>
      <point x="905" y="31"/>
      <point x="932" y="-13"/>
      <point x="1016" y="-13" type="curve" smooth="yes"/>
      <point x="1069" y="-13"/>
      <point x="1131" y="12"/>
    </contour>
    <contour>
      <point x="839" y="1286" type="curve" smooth="yes"/>
      <point x="582" y="852" type="line" smooth="yes"/>
      <point x="559" y="811"/>
      <point x="546" y="796"/>
      <point x="506" y="796" type="curve" smooth="yes"/>
      <point x="441" y="796"/>
      <point x="352" y="794"/>
      <point x="285" y="791" type="curve"/>
      <point x="285" y="668" type="line"/>
      <point x="521" y="668" type="line" smooth="yes"/>
      <point x="655" y="668"/>
      <point x="740" y="732"/>
      <point x="799" y="835" type="curve" smooth="yes"/>
      <point x="1102" y="1349" type="line"/>
      <point x="1088" y="1367" type="line"/>
      <point x="1046" y="1370"/>
      <point x="1003" y="1373"/>
      <point x="967" y="1373" type="curve" smooth="yes"/>
      <point x="895" y="1373"/>
      <point x="871" y="1343"/>
    </contour>
  </outline>
</glyph>
<glyph name="L" format="2">
  <advance width="1024"/>
  <unicode hex="004C"/>
  <anchor x="575" y="0" name="bottom"/>
  <anchor x="1023" y="786" name="periodcentered"/>
  <anchor x="285" y="1460" name="top"/>
  <anchor x="479" y="880" name="topright"/>
  <outline>
    <contour>
      <point x="394" y="-2" type="line"/>
      <point x="394" y="1238" type="line" smooth="yes"/>
      <point x="394" y="1332"/>
      <point x="361" y="1375"/>
      <point x="274" y="1375" type="curve" smooth="yes"/>
      <point x="193" y="1375" type="line"/>
      <point x="181" y="1362" type="line"/>
      <point x="181" y="130" type="line" smooth="yes"/>
      <point x="181" y="45"/>
      <point x="232" y="-2"/>
      <point x="304" y="-2" type="curve" smooth="yes"/>
    </contour>
    <contour>
      <point x="969" y="183" type="curve"/>
      <point x="571" y="183" type="line" smooth="yes"/>
      <point x="461" y="183"/>
      <point x="318" y="175"/>
      <point x="195" y="154" type="curve"/>
      <point x="304" y="-2" type="line"/>
      <point x="826" y="-2" type="line" smooth="yes"/>
      <point x="928" y="-2"/>
      <point x="969" y="40"/>
    </contour>
  </outline>
</glyph>
<glyph name="M" format="2">
  <advance width="1615"/>
  <unicode hex="004D"/>
  <anchor x="808" y="0" name="bottom"/>
  <anchor x="807" y="1464" name="top"/>
  <outline>
    <contour>
      <point x="254" y="1365" type="curve"/>
      <point x="148" y="3" type="line"/>
      <point x="176" y="-5"/>
      <point x="219" y="-9"/>
      <point x="254" y="-9" type="curve" smooth="yes"/>
      <point x="287" y="-9"/>
      <point x="320" y="-7"/>
      <point x="351" y="-2" type="curve"/>
      <point x="398" y="730" type="line" smooth="yes"/>
      <point x="405" y="839"/>
      <point x="410" y="1017"/>
      <point x="414" y="1136" type="curve"/>
      <point x="426" y="1136" type="line"/>
      <point x="700" y="209" type="line"/>
      <point x="731" y="204"/>
      <point x="775" y="201"/>
      <point x="807" y="201" type="curve" smooth="yes"/>
      <point x="838" y="201"/>
      <point x="883" y="204"/>
      <point x="915" y="209" type="curve"/>
      <point x="1190" y="1136" type="line"/>
      <point x="1201" y="1136" type="line"/>
      <point x="1204" y="1017"/>
      <point x="1210" y="839"/>
      <point x="1217" y="730" type="curve" smooth="yes"/>
      <point x="1264" y="-2" type="line"/>
      <point x="1296" y="-7"/>
      <point x="1326" y="-9"/>
      <point x="1359" y="-9" type="curve" smooth="yes"/>
      <point x="1394" y="-9"/>
      <point x="1438" y="-5"/>
      <point x="1468" y="3" type="curve"/>
      <point x="1362" y="1365" type="line"/>
      <point x="1311" y="1373"/>
      <point x="1251" y="1375"/>
      <point x="1218" y="1375" type="curve" smooth="yes"/>
      <point x="1182" y="1375"/>
      <point x="1133" y="1373"/>
      <point x="1082" y="1365" type="curve"/>
      <point x="892" y="739" type="line" smooth="yes"/>
      <point x="873" y="678"/>
      <point x="822" y="477"/>
      <point x="813" y="422" type="curve"/>
      <point x="802" y="422" type="line"/>
      <point x="793" y="477"/>
      <point x="742" y="678"/>
      <point x="723" y="739" type="curve" smooth="yes"/>
      <point x="533" y="1365" type="line"/>
      <point x="486" y="1373"/>
      <point x="433" y="1375"/>
      <point x="398" y="1375" type="curve" smooth="yes"/>
      <point x="364" y="1375"/>
      <point x="302" y="1373"/>
    </contour>
  </outline>
</glyph>
<glyph name="N" format="2">
  <advance width="1360"/>
  <unicode hex="004E"/>
  <anchor x="680" y="0" name="bottom"/>
  <anchor x="686" y="1464" name="top"/>
  <outline>
    <contour>
      <point x="181" y="1364" type="curve"/>
      <point x="181" y="0" type="line"/>
      <point x="215" y="-6"/>
      <point x="254" y="-8"/>
      <point x="281" y="-8" type="curve" smooth="yes"/>
      <point x="309" y="-8"/>
      <point x="343" y="-6"/>
      <point x="379" y="0" type="curve"/>
      <point x="379" y="625" type="line" smooth="yes"/>
      <point x="379" y="773"/>
      <point x="371" y="976"/>
      <point x="362" y="1115" type="curve"/>
      <point x="379" y="1118" type="line"/>
      <point x="435" y="1366" type="line"/>
      <point x="393" y="1372"/>
      <point x="342" y="1374"/>
      <point x="308" y="1374" type="curve" smooth="yes"/>
      <point x="276" y="1374"/>
      <point x="215" y="1371"/>
    </contour>
    <contour>
      <point x="497" y="839" type="curve" smooth="yes"/>
      <point x="922" y="0" type="line"/>
      <point x="1097" y="128" type="line"/>
      <point x="992" y="239" type="line"/>
      <point x="954" y="321"/>
      <point x="909" y="423"/>
      <point x="858" y="528" type="curve" smooth="yes"/>
      <point x="435" y="1366" type="line"/>
      <point x="269" y="1237" type="line"/>
      <point x="369" y="1116" type="line"/>
      <point x="407" y="1031"/>
      <point x="448" y="938"/>
    </contour>
    <contour>
      <point x="1179" y="1363" type="line"/>
      <point x="1166" y="1375" type="line"/>
      <point x="1097" y="1375" type="line" smooth="yes"/>
      <point x="1010" y="1375"/>
      <point x="982" y="1336"/>
      <point x="982" y="1242" type="curve" smooth="yes"/>
      <point x="982" y="743" type="line" smooth="yes"/>
      <point x="982" y="605"/>
      <point x="988" y="401"/>
      <point x="999" y="240" type="curve"/>
      <point x="981" y="237" type="line"/>
      <point x="922" y="0" type="line"/>
      <point x="964" y="-6"/>
      <point x="1010" y="-8"/>
      <point x="1050" y="-8" type="curve" smooth="yes"/>
      <point x="1089" y="-8"/>
      <point x="1144" y="-5"/>
      <point x="1179" y="2" type="curve"/>
    </contour>
  </outline>
</glyph>
<glyph name="O" format="2">
  <advance width="1316"/>
  <unicode hex="004F"/>
  <anchor x="658" y="0" name="bottom"/>
  <anchor x="851" y="5" name="ogonek"/>
  <anchor x="658" y="1464" name="top"/>
  <anchor x="1038" y="1342" name="topright"/>
  <outline>
    <contour>
      <point x="322" y="684" type="curve" smooth="yes"/>
      <point x="322" y="926"/>
      <point x="379" y="1222"/>
      <point x="658" y="1222" type="curve" smooth="yes"/>
      <point x="937" y="1222"/>
      <point x="992" y="926"/>
      <point x="992" y="684" type="curve" smooth="yes"/>
      <point x="992" y="442"/>
      <point x="937" y="144"/>
      <point x="658" y="144" type="curve" smooth="yes"/>
      <point x="379" y="144"/>
      <point x="322" y="442"/>
    </contour>
    <contour>
      <point x="99" y="684" type="curve" smooth="yes"/>
      <point x="99" y="282"/>
      <point x="275" y="-26"/>
      <point x="658" y="-26" type="curve" smooth="yes"/>
      <point x="1038" y="-26"/>
      <point x="1217" y="279"/>
      <point x="1217" y="684" type="curve" smooth="yes"/>
      <point x="1217" y="1085"/>
      <point x="1040" y="1392"/>
      <point x="658" y="1392" type="curve" smooth="yes"/>
      <point x="278" y="1392"/>
      <point x="99" y="1088"/>
    </contour>
  </outline>
</glyph>
<glyph name="P" format="2">
  <advance width="1135"/>
  <unicode hex="0050"/>
  <anchor x="585" y="1464" name="top"/>
  <outline>
    <contour>
      <point x="1064" y="929" type="curve" smooth="yes"/>
      <point x="1064" y="1227"/>
      <point x="871" y="1374"/>
      <point x="606" y="1374" type="curve" smooth="yes"/>
      <point x="470" y="1374"/>
      <point x="345" y="1370"/>
      <point x="194" y="1367" type="curve"/>
      <point x="181" y="1355" type="line"/>
      <point x="181" y="0" type="line"/>
      <point x="212" y="-6"/>
      <point x="256" y="-8"/>
      <point x="287" y="-8" type="curve" smooth="yes"/>
      <point x="320" y="-8"/>
      <point x="361" y="-6"/>
      <point x="394" y="0" type="curve"/>
      <point x="394" y="1206" type="line"/>
      <point x="460" y="1204"/>
      <point x="542" y="1204"/>
      <point x="599" y="1204" type="curve" smooth="yes"/>
      <point x="798" y="1204"/>
      <point x="842" y="1051"/>
      <point x="842" y="929" type="curve" smooth="yes"/>
      <point x="842" y="809"/>
      <point x="798" y="652"/>
      <point x="599" y="652" type="curve" smooth="yes"/>
      <point x="542" y="652"/>
      <point x="371" y="650"/>
      <point x="305" y="647" type="curve"/>
      <point x="305" y="483" type="line"/>
      <point x="606" y="483" type="line" smooth="yes"/>
      <point x="874" y="483"/>
      <point x="1064" y="636"/>
    </contour>
  </outline>
</glyph>
<glyph name="Q" format="2">
  <advance width="1303"/>
  <unicode hex="0051"/>
  <outline>
    <contour>
      <point x="320" y="684" type="curve" smooth="yes"/>
      <point x="320" y="929"/>
      <point x="372" y="1222"/>
      <point x="652" y="1222" type="curve" smooth="yes"/>
      <point x="931" y="1222"/>
      <point x="981" y="929"/>
      <point x="981" y="684" type="curve" smooth="yes"/>
      <point x="981" y="440"/>
      <point x="931" y="148"/>
      <point x="652" y="148" type="curve" smooth="yes"/>
      <point x="372" y="148"/>
      <point x="320" y="440"/>
    </contour>
    <contour>
      <point x="99" y="684" type="curve" smooth="yes"/>
      <point x="99" y="276"/>
      <point x="263" y="-26"/>
      <point x="658" y="-26" type="curve" smooth="yes"/>
      <point x="724" y="-26"/>
      <point x="756" y="-4"/>
      <point x="796" y="21" type="curve" smooth="yes"/>
      <point x="1078" y="26"/>
      <point x="1204" y="364"/>
      <point x="1204" y="683" type="curve" smooth="yes"/>
      <point x="1204" y="1087"/>
      <point x="1040" y="1392"/>
      <point x="652" y="1392" type="curve" smooth="yes"/>
      <point x="265" y="1392"/>
      <point x="99" y="1090"/>
    </contour>
    <contour>
      <point x="590" y="43" type="line"/>
      <point x="906" y="-201" type="line" smooth="yes"/>
      <point x="949" y="-234"/>
      <point x="995" y="-256"/>
      <point x="1060" y="-256" type="curve" smooth="yes"/>
      <point x="1130" y="-256"/>
      <point x="1199" y="-205"/>
      <point x="1203" y="-101" type="curve"/>
      <point x="1133" y="-100"/>
      <point x="1076" y="-80"/>
      <point x="950" y="10" type="curve" smooth="yes"/>
      <point x="807" y="113" type="line"/>
    </contour>
  </outline>
</glyph>
<glyph name="R" format="2">
  <advance width="1201"/>
  <unicode hex="0052"/>
  <anchor x="623" y="0" name="bottom"/>
  <anchor x="595" y="1464" name="top"/>
  <outline>
    <contour>
      <point x="1079" y="964" type="curve" smooth="yes"/>
      <point x="1079" y="1230"/>
      <point x="903" y="1374"/>
      <point x="625" y="1374" type="curve" smooth="yes"/>
      <point x="489" y="1374"/>
      <point x="345" y="1370"/>
      <point x="194" y="1367" type="curve"/>
      <point x="181" y="1355" type="line"/>
      <point x="181" y="0" type="line"/>
      <point x="212" y="-6"/>
      <point x="255" y="-8"/>
      <point x="286" y="-8" type="curve" smooth="yes"/>
      <point x="320" y="-8"/>
      <point x="360" y="-6"/>
      <point x="393" y="0" type="curve"/>
      <point x="393" y="1207" type="line"/>
      <point x="460" y="1205"/>
      <point x="557" y="1205"/>
      <point x="614" y="1205" type="curve" smooth="yes"/>
      <point x="810" y="1205"/>
      <point x="858" y="1086"/>
      <point x="858" y="964" type="curve" smooth="yes"/>
      <point x="858" y="847"/>
      <point x="810" y="723"/>
      <point x="614" y="723" type="curve" smooth="yes"/>
      <point x="536" y="723"/>
      <point x="393" y="720"/>
      <point x="306" y="716" type="curve"/>
      <point x="306" y="549" type="line"/>
      <point x="556" y="549" type="line" smooth="yes"/>
      <point x="680" y="549"/>
      <point x="725" y="478"/>
      <point x="758" y="387" type="curve" smooth="yes"/>
      <point x="858" y="116" type="line" smooth="yes"/>
      <point x="889" y="31"/>
      <point x="918" y="-14"/>
      <point x="998" y="-14" type="curve" smooth="yes"/>
      <point x="1051" y="-14"/>
      <point x="1114" y="10"/>
      <point x="1142" y="52" type="curve"/>
      <point x="1106" y="80"/>
      <point x="1082" y="117"/>
      <point x="1052" y="196" type="curve" smooth="yes"/>
      <point x="964" y="430" type="line" smooth="yes"/>
      <point x="935" y="508"/>
      <point x="888" y="577"/>
      <point x="822" y="600" type="curve"/>
      <point x="967" y="646"/>
      <point x="1079" y="779"/>
    </contour>
  </outline>
</glyph>
<glyph name="S" format="2">
  <advance width="1111"/>
  <unicode hex="0053"/>
  <anchor x="554" y="0" name="bottom"/>
  <anchor x="565" y="1464" name="top"/>
  <outline>
    <contour>
      <point x="61" y="123" type="curve"/>
      <point x="194" y="31"/>
      <point x="374" y="-26"/>
      <point x="540" y="-26" type="curve" smooth="yes"/>
      <point x="870" y="-26"/>
      <point x="1030" y="145"/>
      <point x="1030" y="375" type="curve" smooth="yes"/>
      <point x="1030" y="555"/>
      <point x="901" y="678"/>
      <point x="731" y="749" type="curve" smooth="yes"/>
      <point x="492" y="848" type="line" smooth="yes"/>
      <point x="393" y="889"/>
      <point x="326" y="941"/>
      <point x="326" y="1029" type="curve" smooth="yes"/>
      <point x="326" y="1134"/>
      <point x="416" y="1216"/>
      <point x="565" y="1216" type="curve" smooth="yes"/>
      <point x="667" y="1216"/>
      <point x="802" y="1174"/>
      <point x="907" y="1122" type="curve"/>
      <point x="952" y="1162"/>
      <point x="982" y="1228"/>
      <point x="984" y="1289" type="curve"/>
      <point x="880" y="1340"/>
      <point x="727" y="1392"/>
      <point x="561" y="1392" type="curve" smooth="yes"/>
      <point x="293" y="1392"/>
      <point x="108" y="1223"/>
      <point x="108" y="1005" type="curve" smooth="yes"/>
      <point x="108" y="834"/>
      <point x="215" y="728"/>
      <point x="384" y="657" type="curve" smooth="yes"/>
      <point x="625" y="556" type="line" smooth="yes"/>
      <point x="742" y="507"/>
      <point x="807" y="434"/>
      <point x="807" y="340" type="curve" smooth="yes"/>
      <point x="807" y="230"/>
      <point x="714" y="152"/>
      <point x="552" y="152" type="curve" smooth="yes"/>
      <point x="415" y="152"/>
      <point x="266" y="211"/>
      <point x="150" y="287" type="curve"/>
      <point x="107" y="252"/>
      <point x="66" y="185"/>
    </contour>
  </outline>
</glyph>
<glyph name="U" format="2">
  <advance width="1338"/>
  <unicode hex="0055"/>
  <anchor x="669" y="0" name="bottom"/>
  <anchor x="879" y="8" name="ogonek"/>
  <anchor x="667" y="1464" name="top"/>
  <anchor x="1174" y="1366" name="topright"/>
  <outline>
    <contour>
      <point x="1174" y="480" type="curve" smooth="yes"/>
      <point x="1174" y="1366" type="line"/>
      <point x="1142" y="1372"/>
      <point x="1097" y="1374"/>
      <point x="1065" y="1374" type="curve" smooth="yes"/>
      <point x="1032" y="1374"/>
      <point x="992" y="1372"/>
      <point x="961" y="1366" type="curve"/>
      <point x="961" y="480" type="line" smooth="yes"/>
      <point x="961" y="261"/>
      <point x="861" y="146"/>
      <point x="669" y="146" type="curve" smooth="yes"/>
      <point x="477" y="146"/>
      <point x="377" y="261"/>
      <point x="377" y="480" type="curve" smooth="yes"/>
      <point x="377" y="1238" type="line" smooth="yes"/>
      <point x="377" y="1332"/>
      <point x="345" y="1375"/>
      <point x="258" y="1375" type="curve" smooth="yes"/>
      <point x="177" y="1375" type="line"/>
      <point x="164" y="1362" type="line"/>
      <point x="164" y="480" type="line" smooth="yes"/>
      <point x="164" y="149"/>
      <point x="363" y="-26"/>
      <point x="668" y="-26" type="curve" smooth="yes"/>
      <point x="975" y="-26"/>
      <point x="1174" y="149"/>
    </contour>
  </outline>
</glyph>
<glyph name="V" format="2">
  <advance width="1149"/>
  <unicode hex="0056"/>
  <anchor x="576" y="0" name="bottom"/>
  <anchor x="585" y="1464" name="top"/>
  <outline>
    <contour>
      <point x="917" y="1366" type="curve"/>
      <point x="600" y="191" type="line"/>
      <point x="590" y="191"/>
      <point x="585" y="194"/>
      <point x="581" y="211" type="curve" smooth="yes"/>
      <point x="557" y="316"/>
      <point x="523" y="457"/>
      <point x="495" y="555" type="curve" smooth="yes"/>
      <point x="287" y="1276" type="line" smooth="yes"/>
      <point x="266" y="1352"/>
      <point x="230" y="1380"/>
      <point x="171" y="1380" type="curve" smooth="yes"/>
      <point x="125" y="1380"/>
      <point x="80" y="1366"/>
      <point x="41" y="1348" type="curve"/>
      <point x="409" y="93" type="line" smooth="yes"/>
      <point x="431" y="14"/>
      <point x="473" y="-9"/>
      <point x="555" y="-9" type="curve" smooth="yes"/>
      <point x="610" y="-9"/>
      <point x="667" y="-7"/>
      <point x="720" y="-1" type="curve"/>
      <point x="1116" y="1347" type="line"/>
      <point x="1107" y="1361" type="line"/>
      <point x="1080" y="1369"/>
      <point x="1040" y="1374"/>
      <point x="1009" y="1374" type="curve" smooth="yes"/>
      <point x="977" y="1374"/>
      <point x="945" y="1373"/>
    </contour>
  </outline>
</glyph>
<glyph name="W" format="2">
  <advance width="1700"/>
  <unicode hex="0057"/>
  <anchor x="856" y="0" name="bottom"/>
  <anchor x="856" y="1464" name="top"/>
  <outline>
    <contour>
      <point x="61" y="1355" type="curve"/>
      <point x="311" y="96" type="line" smooth="yes"/>
      <point x="330" y="4"/>
      <point x="386" y="-9"/>
      <point x="453" y="-9" type="curve" smooth="yes"/>
      <point x="508" y="-9"/>
      <point x="584" y="-6"/>
      <point x="636" y="1" type="curve"/>
      <point x="759" y="630" type="line" smooth="yes"/>
      <point x="785" y="764"/>
      <point x="818" y="952"/>
      <point x="846" y="1124" type="curve"/>
      <point x="860" y="1124" type="line"/>
      <point x="886" y="952"/>
      <point x="918" y="761"/>
      <point x="941" y="630" type="curve" smooth="yes"/>
      <point x="1037" y="94" type="line" smooth="yes"/>
      <point x="1051" y="4"/>
      <point x="1103" y="-9"/>
      <point x="1168" y="-9" type="curve" smooth="yes"/>
      <point x="1222" y="-9"/>
      <point x="1306" y="-6"/>
      <point x="1358" y="2" type="curve"/>
      <point x="1644" y="1348" type="line"/>
      <point x="1634" y="1361" type="line"/>
      <point x="1604" y="1370"/>
      <point x="1565" y="1374"/>
      <point x="1532" y="1374" type="curve" smooth="yes"/>
      <point x="1501" y="1374"/>
      <point x="1465" y="1372"/>
      <point x="1436" y="1366" type="curve"/>
      <point x="1282" y="588" type="line" smooth="yes"/>
      <point x="1261" y="483"/>
      <point x="1228" y="298"/>
      <point x="1211" y="176" type="curve"/>
      <point x="1200" y="176"/>
      <point x="1197" y="178"/>
      <point x="1193" y="199" type="curve" smooth="yes"/>
      <point x="993" y="1337" type="line"/>
      <point x="957" y="1344"/>
      <point x="897" y="1347"/>
      <point x="856" y="1347" type="curve" smooth="yes"/>
      <point x="817" y="1347"/>
      <point x="759" y="1344"/>
      <point x="717" y="1337" type="curve"/>
      <point x="499" y="176" type="line"/>
      <point x="488" y="176"/>
      <point x="485" y="177"/>
      <point x="482" y="199" type="curve" smooth="yes"/>
      <point x="467" y="295"/>
      <point x="436" y="484"/>
      <point x="417" y="587" type="curve" smooth="yes"/>
      <point x="292" y="1265" type="line" smooth="yes"/>
      <point x="278" y="1352"/>
      <point x="248" y="1380"/>
      <point x="178" y="1380" type="curve" smooth="yes"/>
      <point x="139" y="1380"/>
      <point x="100" y="1372"/>
    </contour>
  </outline>
</glyph>
<glyph name="X" format="2">
  <advance width="1175"/>
  <unicode hex="0058"/>
  <anchor x="590" y="1464" name="top"/>
  <outline>
    <contour>
      <point x="84" y="1333" type="curve"/>
      <point x="862" y="71" type="line"/>
      <point x="903" y="7"/>
      <point x="944" y="-15"/>
      <point x="998" y="-15" type="curve" smooth="yes"/>
      <point x="1042" y="-15"/>
      <point x="1095" y="2"/>
      <point x="1139" y="33" type="curve"/>
      <point x="359" y="1296" type="line" smooth="yes"/>
      <point x="319" y="1359"/>
      <point x="279" y="1381"/>
      <point x="225" y="1381" type="curve" smooth="yes"/>
      <point x="180" y="1381"/>
      <point x="128" y="1364"/>
    </contour>
    <contour>
      <point x="890" y="1366" type="curve"/>
      <point x="585" y="862" type="line"/>
      <point x="497" y="767" type="line"/>
      <point x="36" y="24" type="line"/>
      <point x="42" y="10" type="line"/>
      <point x="69" y="-1"/>
      <point x="112" y="-9"/>
      <point x="155" y="-9" type="curve" smooth="yes"/>
      <point x="188" y="-9"/>
      <point x="227" y="-5"/>
      <point x="246" y="0" type="curve"/>
      <point x="595" y="578" type="line"/>
      <point x="682" y="672" type="line"/>
      <point x="1096" y="1343" type="line"/>
      <point x="1090" y="1356" type="line"/>
      <point x="1065" y="1367"/>
      <point x="1021" y="1375"/>
      <point x="979" y="1375" type="curve" smooth="yes"/>
      <point x="945" y="1375"/>
      <point x="910" y="1371"/>
    </contour>
  </outline>
</glyph>
<glyph name="Y" format="2">
  <advance width="1006"/>
  <unicode hex="0059"/>
  <anchor x="504" y="0" name="bottom"/>
  <anchor x="510" y="1464" name="top"/>
  <outline>
    <contour>
      <point x="398" y="567" type="line"/>
      <point x="398" y="0" type="line"/>
      <point x="429" y="-6"/>
      <point x="473" y="-8"/>
      <point x="504" y="-8" type="curve" smooth="yes"/>
      <point x="538" y="-8"/>
      <point x="578" y="-6"/>
      <point x="611" y="0" type="curve"/>
      <point x="611" y="567" type="line"/>
    </contour>
    <contour>
      <point x="789" y="1366" type="curve"/>
      <point x="607" y="908" type="line" smooth="yes"/>
      <point x="584" y="851"/>
      <point x="541" y="734"/>
      <point x="518" y="654" type="curve"/>
      <point x="508" y="654" type="line"/>
      <point x="485" y="736"/>
      <point x="452" y="833"/>
      <point x="423" y="904" type="curve" smooth="yes"/>
      <point x="266" y="1288" type="line" smooth="yes"/>
      <point x="241" y="1352"/>
      <point x="211" y="1381"/>
      <point x="151" y="1381" type="curve" smooth="yes"/>
      <point x="110" y="1381"/>
      <point x="65" y="1368"/>
      <point x="18" y="1341" type="curve"/>
      <point x="418" y="395" type="line"/>
      <point x="594" y="395" type="line"/>
      <point x="991" y="1346" type="line"/>
      <point x="982" y="1360" type="line"/>
      <point x="953" y="1370"/>
      <point x="915" y="1375"/>
      <point x="879" y="1375" type="curve" smooth="yes"/>
      <point x="850" y="1375"/>
      <point x="818" y="1373"/>
    </contour>
  </outline>
</glyph>
<glyph name="Z" format="2">
  <advance width="1124"/>
  <unicode hex="005A"/>
  <anchor x="562" y="0" name="bottom"/>
  <anchor x="568" y="1464" name="top"/>
  <outline>
    <contour>
      <point x="629" y="984" type="curve" smooth="yes"/>
      <point x="124" y="226" type="line" smooth="yes"/>
      <point x="104" y="196"/>
      <point x="95" y="163"/>
      <point x="95" y="135" type="curve" smooth="yes"/>
      <point x="95" y="113"/>
      <point x="98" y="93"/>
      <point x="122" y="0" type="curve"/>
      <point x="882" y="0" type="line" smooth="yes"/>
      <point x="980" y="0"/>
      <point x="1029" y="42"/>
      <point x="1029" y="118" type="curve" smooth="yes"/>
      <point x="1029" y="154"/>
      <point x="1022" y="191"/>
      <point x="1012" y="221" type="curve"/>
      <point x="960" y="196"/>
      <point x="882" y="183"/>
      <point x="777" y="183" type="curve" smooth="yes"/>
      <point x="569" y="183" type="line" smooth="yes"/>
      <point x="506" y="183"/>
      <point x="412" y="179"/>
      <point x="327" y="172" type="curve"/>
      <point x="321" y="178" type="line"/>
      <point x="373" y="245"/>
      <point x="436" y="328"/>
      <point x="479" y="393" type="curve" smooth="yes"/>
      <point x="981" y="1143" type="line" smooth="yes"/>
      <point x="1001" y="1174"/>
      <point x="1009" y="1202"/>
      <point x="1009" y="1229" type="curve" smooth="yes"/>
      <point x="1009" y="1249"/>
      <point x="1006" y="1271"/>
      <point x="978" y="1366" type="curve"/>
      <point x="153" y="1366" type="line"/>
      <point x="143" y="1329"/>
      <point x="138" y="1296"/>
      <point x="138" y="1258" type="curve" smooth="yes"/>
      <point x="138" y="1235"/>
      <point x="140" y="1211"/>
      <point x="146" y="1186" type="curve"/>
      <point x="468" y="1186" type="line" smooth="yes"/>
      <point x="529" y="1186"/>
      <point x="715" y="1191"/>
      <point x="780" y="1202" type="curve"/>
      <point x="786" y="1196" type="line"/>
      <point x="729" y="1122"/>
      <point x="670" y="1046"/>
    </contour>
  </outline>
</glyph>
<glyph name="bracketleft" format="2">
  <advance width="688"/>
  <unicode hex="005B"/>
  <outline>
    <contour>
      <point x="199" y="1517" type="line"/>
      <point x="199" y="-385" type="line"/>
      <point x="405" y="-326" type="line"/>
      <point x="405" y="1444" type="line"/>
    </contour>
    <contour>
      <point x="213" y="-399" type="line"/>
      <point x="618" y="-383" type="line"/>
      <point x="624" y="-366"/>
      <point x="625" y="-340"/>
      <point x="625" y="-323" type="curve" smooth="yes"/>
      <point x="625" y="-291"/>
      <point x="616" y="-254"/>
      <point x="609" y="-234" type="curve"/>
      <point x="216" y="-224" type="line"/>
      <point x="199" y="-385" type="line"/>
    </contour>
    <contour>
      <point x="618" y="1515" type="curve"/>
      <point x="213" y="1531" type="line"/>
      <point x="199" y="1517" type="line"/>
      <point x="216" y="1356" type="line"/>
      <point x="609" y="1366" type="line"/>
      <point x="616" y="1386"/>
      <point x="625" y="1423"/>
      <point x="625" y="1455" type="curve" smooth="yes"/>
      <point x="625" y="1472"/>
      <point x="624" y="1498"/>
    </contour>
  </outline>
</glyph>
<glyph name="backslash" format="2">
  <advance width="845"/>
  <unicode hex="005C"/>
  <outline>
    <contour>
      <point x="651" y="-322" type="curve"/>
      <point x="19" y="1355" type="line"/>
      <point x="71" y="1395"/>
      <point x="139" y="1418"/>
      <point x="199" y="1423" type="curve"/>
      <point x="831" y="-254" type="line"/>
      <point x="780" y="-293"/>
      <point x="710" y="-316"/>
    </contour>
  </outline>
</glyph>
<glyph name="bracketright" format="2">
  <advance width="688"/>
  <unicode hex="005D"/>
  <outline>
    <contour>
      <point x="489" y="1517" type="line"/>
      <point x="489" y="-385" type="line"/>
      <point x="282" y="-326" type="line"/>
      <point x="282" y="1444" type="line"/>
    </contour>
    <contour>
      <point x="475" y="-399" type="line"/>
      <point x="69" y="-383" type="line"/>
      <point x="64" y="-366"/>
      <point x="62" y="-340"/>
      <point x="62" y="-323" type="curve" smooth="yes"/>
      <point x="62" y="-291"/>
      <point x="71" y="-254"/>
      <point x="78" y="-234" type="curve"/>
      <point x="472" y="-224" type="line"/>
      <point x="489" y="-385" type="line"/>
    </contour>
    <contour>
      <point x="69" y="1515" type="curve"/>
      <point x="475" y="1531" type="line"/>
      <point x="489" y="1517" type="line"/>
      <point x="472" y="1356" type="line"/>
      <point x="78" y="1366" type="line"/>
      <point x="71" y="1386"/>
      <point x="62" y="1423"/>
      <point x="62" y="1455" type="curve" smooth="yes"/>
      <point x="62" y="1472"/>
      <point x="64" y="1498"/>
    </contour>
  </outline>
</glyph>
<glyph name="asciicircum" format="2">
  <advance width="1060"/>
  <unicode hex="005E"/>
  <outline>
    <contour>
      <point x="972" y="612" type="curve"/>
      <point x="641" y="1296" type="line"/>
      <point x="616" y="1303"/>
      <point x="573" y="1306"/>
      <point x="531" y="1306" type="curve" smooth="yes"/>
      <point x="488" y="1306"/>
      <point x="444" y="1302"/>
      <point x="419" y="1296" type="curve"/>
      <point x="88" y="612" type="line"/>
      <point x="112" y="606"/>
      <point x="151" y="602"/>
      <point x="191" y="602" type="curve" smooth="yes"/>
      <point x="228" y="602"/>
      <point x="266" y="605"/>
      <point x="292" y="612" type="curve"/>
      <point x="456" y="963" type="line" smooth="yes"/>
      <point x="477" y="1010"/>
      <point x="505" y="1087"/>
      <point x="523" y="1132" type="curve"/>
      <point x="537" y="1132" type="line"/>
      <point x="555" y="1087"/>
      <point x="583" y="1010"/>
      <point x="604" y="963" type="curve" smooth="yes"/>
      <point x="768" y="612" type="line"/>
      <point x="794" y="605"/>
      <point x="832" y="602"/>
      <point x="869" y="602" type="curve" smooth="yes"/>
      <point x="909" y="602"/>
      <point x="948" y="606"/>
    </contour>
  </outline>
</glyph>
<glyph name="underscore" format="2">
  <advance width="1059"/>
  <unicode hex="005F"/>
  <outline>
    <contour>
      <point x="-1" y="-310" type="curve"/>
      <point x="1060" y="-310" type="line"/>
      <point x="1066" y="-286"/>
      <point x="1069" y="-264"/>
      <point x="1069" y="-230" type="curve"/>
      <point x="1069" y="-196"/>
      <point x="1066" y="-174"/>
      <point x="1060" y="-148" type="curve"/>
      <point x="-1" y="-148" type="line"/>
      <point x="-8" y="-174"/>
      <point x="-10" y="-205"/>
      <point x="-10" y="-230" type="curve" smooth="yes"/>
      <point x="-10" y="-256"/>
      <point x="-8" y="-286"/>
    </contour>
  </outline>
</glyph>
<glyph name="a" format="2">
  <advance width="1014"/>
  <unicode hex="0061"/>
  <anchor x="499" y="0" name="bottom"/>
  <anchor x="844" y="-15" name="ogonek"/>
  <anchor x="489" y="1084" name="top"/>
  <outline>
    <contour>
      <point x="87" y="269" type="curve" smooth="yes"/>
      <point x="87" y="126"/>
      <point x="182" y="-26"/>
      <point x="381" y="-26" type="curve" smooth="yes"/>
      <point x="556" y="-26"/>
      <point x="677" y="95"/>
      <point x="750" y="180" type="curve"/>
      <point x="718" y="338" type="line"/>
      <point x="643" y="206"/>
      <point x="524" y="137"/>
      <point x="427" y="137" type="curve" smooth="yes"/>
      <point x="340" y="137"/>
      <point x="292" y="201"/>
      <point x="292" y="283" type="curve" smooth="yes"/>
      <point x="292" y="392"/>
      <point x="361" y="457"/>
      <point x="482" y="457" type="curve" smooth="yes"/>
      <point x="559" y="457"/>
      <point x="656" y="453"/>
      <point x="728" y="437" type="curve"/>
      <point x="728" y="575" type="line"/>
      <point x="647" y="595"/>
      <point x="544" y="600"/>
      <point x="469" y="600" type="curve" smooth="yes"/>
      <point x="253" y="600"/>
      <point x="87" y="497"/>
    </contour>
    <contour>
      <point x="922" y="92" type="curve"/>
      <point x="876" y="132"/>
      <point x="866" y="188"/>
      <point x="866" y="263" type="curve" smooth="yes"/>
      <point x="866" y="673" type="line" smooth="yes"/>
      <point x="866" y="902"/>
      <point x="735" y="1009"/>
      <point x="539" y="1009" type="curve" smooth="yes"/>
      <point x="403" y="1009"/>
      <point x="236" y="965"/>
      <point x="123" y="917" type="curve"/>
      <point x="126" y="864"/>
      <point x="150" y="799"/>
      <point x="184" y="765" type="curve"/>
      <point x="289" y="807"/>
      <point x="398" y="841"/>
      <point x="499" y="841" type="curve" smooth="yes"/>
      <point x="602" y="841"/>
      <point x="662" y="790"/>
      <point x="662" y="665" type="curve" smooth="yes"/>
      <point x="662" y="214" type="line"/>
      <point x="669" y="109"/>
      <point x="718" y="10"/>
      <point x="844" y="-15" type="curve"/>
      <point x="878" y="6"/>
      <point x="911" y="54"/>
    </contour>
  </outline>
</glyph>
<glyph name="b" format="2">
  <advance width="1055"/>
  <unicode hex="0062"/>
  <anchor x="522" y="0" name="bottom"/>
  <anchor x="556" y="1520" name="top"/>
  <outline>
    <contour>
      <point x="358" y="50" type="line"/>
      <point x="358" y="1339" type="line" smooth="yes"/>
      <point x="358" y="1431"/>
      <point x="333" y="1471"/>
      <point x="246" y="1471" type="curve" smooth="yes"/>
      <point x="169" y="1471" type="line"/>
      <point x="156" y="1458" type="line"/>
      <point x="156" y="50" type="line"/>
    </contour>
    <contour>
      <point x="969" y="506" type="curve" smooth="yes"/>
      <point x="969" y="797"/>
      <point x="852" y="1005"/>
      <point x="623" y="1005" type="curve" smooth="yes"/>
      <point x="464" y="1005"/>
      <point x="349" y="908"/>
      <point x="288" y="830" type="curve"/>
      <point x="319" y="661" type="line"/>
      <point x="373" y="763"/>
      <point x="477" y="833"/>
      <point x="575" y="832" type="curve" smooth="yes"/>
      <point x="679" y="832"/>
      <point x="758" y="736"/>
      <point x="758" y="504" type="curve" smooth="yes"/>
      <point x="758" y="261"/>
      <point x="659" y="138"/>
      <point x="521" y="138" type="curve" smooth="yes"/>
      <point x="420" y="138"/>
      <point x="341" y="160"/>
      <point x="258" y="209" type="curve"/>
      <point x="156" y="50" type="line"/>
      <point x="267" y="8"/>
      <point x="391" y="-15"/>
      <point x="520" y="-15" type="curve" smooth="yes"/>
      <point x="765" y="-15"/>
      <point x="969" y="156"/>
    </contour>
  </outline>
</glyph>
<glyph name="c" format="2">
  <advance width="942"/>
  <unicode hex="0063"/>
  <anchor x="497" y="0" name="bottom"/>
  <anchor x="503" y="1084" name="top"/>
  <outline>
    <contour>
      <point x="678" y="606" type="curve"/>
      <point x="706" y="600"/>
      <point x="731" y="597"/>
      <point x="764" y="597" type="curve" smooth="yes"/>
      <point x="837" y="597"/>
      <point x="869" y="642"/>
      <point x="869" y="712" type="curve" smooth="yes"/>
      <point x="869" y="850"/>
      <point x="750" y="1013"/>
      <point x="507" y="1013" type="curve" smooth="yes"/>
      <point x="296" y="1013"/>
      <point x="88" y="859"/>
      <point x="88" y="488" type="curve" smooth="yes"/>
      <point x="88" y="212"/>
      <point x="210" y="-26"/>
      <point x="497" y="-26" type="curve" smooth="yes"/>
      <point x="640" y="-26"/>
      <point x="768" y="33"/>
      <point x="858" y="121" type="curve"/>
      <point x="848" y="166"/>
      <point x="807" y="222"/>
      <point x="771" y="245" type="curve"/>
      <point x="701" y="193"/>
      <point x="619" y="143"/>
      <point x="528" y="143" type="curve" smooth="yes"/>
      <point x="385" y="143"/>
      <point x="302" y="248"/>
      <point x="302" y="488" type="curve" smooth="yes"/>
      <point x="302" y="733"/>
      <point x="376" y="855"/>
      <point x="502" y="855" type="curve" smooth="yes"/>
      <point x="647" y="855"/>
      <point x="683" y="735"/>
    </contour>
  </outline>
</glyph>
<glyph name="e" format="2">
  <advance width="1001"/>
  <unicode hex="0065"/>
  <anchor x="517" y="0" name="bottom"/>
  <anchor x="686" y="0" name="ogonek"/>
  <anchor x="510" y="1084" name="top"/>
  <outline>
    <contour>
      <point x="217" y="429" type="line"/>
      <point x="887" y="429" type="line"/>
      <point x="898" y="484"/>
      <point x="902" y="523"/>
      <point x="902" y="587" type="curve" smooth="yes"/>
      <point x="902" y="825"/>
      <point x="764" y="1013"/>
      <point x="505" y="1013" type="curve" smooth="yes"/>
      <point x="228" y="1013"/>
      <point x="88" y="790"/>
      <point x="88" y="492" type="curve" smooth="yes"/>
      <point x="88" y="222"/>
      <point x="183" y="-26"/>
      <point x="501" y="-26" type="curve" smooth="yes"/>
      <point x="639" y="-26"/>
      <point x="780" y="19"/>
      <point x="875" y="87" type="curve"/>
      <point x="869" y="129"/>
      <point x="845" y="186"/>
      <point x="811" y="218" type="curve"/>
      <point x="726" y="175"/>
      <point x="633" y="142"/>
      <point x="532" y="142" type="curve" smooth="yes"/>
      <point x="348" y="142"/>
      <point x="301" y="286"/>
      <point x="301" y="475" type="curve" smooth="yes"/>
      <point x="301" y="538" type="line" smooth="yes"/>
      <point x="301" y="739"/>
      <point x="368" y="861"/>
      <point x="505" y="861" type="curve" smooth="yes"/>
      <point x="648" y="861"/>
      <point x="704" y="744"/>
      <point x="704" y="604" type="curve" smooth="yes"/>
      <point x="704" y="578" type="line"/>
      <point x="217" y="578" type="line"/>
    </contour>
  </outline>
</glyph>
<glyph name="f" format="2">
  <advance width="667"/>
  <unicode hex="0066"/>
  <anchor x="451" y="1526" name="top"/>
  <outline>
    <contour>
      <point x="300" y="985" type="line"/>
      <point x="29" y="989" type="line"/>
      <point x="24" y="963"/>
      <point x="21" y="939"/>
      <point x="21" y="914" type="curve" smooth="yes"/>
      <point x="21" y="888"/>
      <point x="24" y="861"/>
      <point x="29" y="837" type="curve"/>
      <point x="300" y="841" type="line"/>
      <point x="672" y="837" type="line"/>
      <point x="677" y="861"/>
      <point x="680" y="888"/>
      <point x="680" y="914" type="curve" smooth="yes"/>
      <point x="680" y="939"/>
      <point x="677" y="963"/>
      <point x="672" y="989" type="curve"/>
    </contour>
    <contour>
      <point x="201" y="899" type="curve"/>
      <point x="201" y="0" type="line"/>
      <point x="232" y="-5"/>
      <point x="269" y="-8"/>
      <point x="302" y="-8" type="curve" smooth="yes"/>
      <point x="335" y="-8"/>
      <point x="373" y="-5"/>
      <point x="404" y="0" type="curve"/>
      <point x="404" y="895" type="line"/>
      <point x="391" y="985"/>
      <point x="376" y="1075"/>
      <point x="376" y="1154" type="curve" smooth="yes"/>
      <point x="376" y="1263"/>
      <point x="431" y="1322"/>
      <point x="524" y="1322" type="curve" smooth="yes"/>
      <point x="581" y="1322"/>
      <point x="645" y="1308"/>
      <point x="697" y="1292" type="curve"/>
      <point x="726" y="1324"/>
      <point x="744" y="1383"/>
      <point x="744" y="1432" type="curve"/>
      <point x="683" y="1455"/>
      <point x="579" y="1479"/>
      <point x="488" y="1479" type="curve" smooth="yes"/>
      <point x="293" y="1479"/>
      <point x="179" y="1343"/>
      <point x="179" y="1167" type="curve" smooth="yes"/>
      <point x="179" y="1085"/>
      <point x="193" y="994"/>
    </contour>
  </outline>
</glyph>
<glyph name="g" format="2">
  <advance width="1056"/>
  <unicode hex="0067"/>
  <anchor x="516" y="-418" name="bottom"/>
  <anchor x="534" y="1084" name="top"/>
  <outline>
    <contour>
      <point x="959" y="895" type="curve"/>
      <point x="949" y="933"/>
      <point x="915" y="981"/>
      <point x="881" y="1002" type="curve"/>
      <point x="750" y="976"/>
      <point x="703" y="867"/>
      <point x="703" y="738" type="curve"/>
      <point x="703" y="-3" type="line" smooth="yes"/>
      <point x="703" y="-155"/>
      <point x="660" y="-281"/>
      <point x="457" y="-281" type="curve" smooth="yes"/>
      <point x="378" y="-281"/>
      <point x="268" y="-257"/>
      <point x="184" y="-218" type="curve"/>
      <point x="154" y="-254"/>
      <point x="131" y="-322"/>
      <point x="130" y="-373" type="curve"/>
      <point x="222" y="-411"/>
      <point x="353" y="-441"/>
      <point x="477" y="-441" type="curve" smooth="yes"/>
      <point x="627" y="-441"/>
      <point x="743" y="-388"/>
      <point x="808" y="-308" type="curve" smooth="yes"/>
      <point x="871" y="-229"/>
      <point x="903" y="-116"/>
      <point x="903" y="114" type="curve" smooth="yes"/>
      <point x="903" y="706" type="line" smooth="yes"/>
      <point x="903" y="784"/>
      <point x="915" y="857"/>
    </contour>
    <contour>
      <point x="88" y="492" type="curve" smooth="yes"/>
      <point x="88" y="188"/>
      <point x="204" y="-17"/>
      <point x="436" y="-17" type="curve" smooth="yes"/>
      <point x="595" y="-17"/>
      <point x="722" y="91"/>
      <point x="777" y="181" type="curve"/>
      <point x="747" y="341" type="line"/>
      <point x="691" y="233"/>
      <point x="585" y="155"/>
      <point x="478" y="155" type="curve" smooth="yes"/>
      <point x="379" y="155"/>
      <point x="299" y="253"/>
      <point x="299" y="491" type="curve" smooth="yes"/>
      <point x="299" y="734"/>
      <point x="386" y="848"/>
      <point x="503" y="848" type="curve" smooth="yes"/>
      <point x="603" y="848"/>
      <point x="713" y="771"/>
      <point x="784" y="662" type="curve"/>
      <point x="812" y="839" type="line"/>
      <point x="745" y="923"/>
      <point x="645" y="1013"/>
      <point x="470" y="1013" type="curve" smooth="yes"/>
      <point x="282" y="1013"/>
      <point x="88" y="846"/>
    </contour>
  </outline>
</glyph>
<glyph name="h" format="2">
  <advance width="1087"/>
  <unicode hex="0068"/>
  <anchor x="556" y="0" name="bottom"/>
  <anchor x="548" y="1520" name="top"/>
  <outline>
    <contour>
      <point x="358" y="0" type="curve"/>
      <point x="358" y="1339" type="line" smooth="yes"/>
      <point x="358" y="1431"/>
      <point x="334" y="1471"/>
      <point x="247" y="1471" type="curve" smooth="yes"/>
      <point x="169" y="1471" type="line"/>
      <point x="156" y="1458" type="line"/>
      <point x="156" y="0" type="line"/>
      <point x="186" y="-5"/>
      <point x="220" y="-8"/>
      <point x="257" y="-8" type="curve" smooth="yes"/>
      <point x="294" y="-8"/>
      <point x="330" y="-5"/>
    </contour>
    <contour>
      <point x="940" y="211" type="curve" smooth="yes"/>
      <point x="940" y="676" type="line" smooth="yes"/>
      <point x="940" y="860"/>
      <point x="862" y="1004"/>
      <point x="675" y="1004" type="curve" smooth="yes"/>
      <point x="530" y="1004"/>
      <point x="395" y="922"/>
      <point x="306" y="820" type="curve"/>
      <point x="306" y="621" type="line"/>
      <point x="370" y="741"/>
      <point x="508" y="817"/>
      <point x="609" y="817" type="curve" smooth="yes"/>
      <point x="707" y="817"/>
      <point x="734" y="760"/>
      <point x="734" y="626" type="curve" smooth="yes"/>
      <point x="734" y="118" type="line" smooth="yes"/>
      <point x="734" y="32"/>
      <point x="762" y="-13"/>
      <point x="843" y="-13" type="curve" smooth="yes"/>
      <point x="893" y="-13"/>
      <point x="943" y="5"/>
      <point x="973" y="31" type="curve"/>
      <point x="948" y="78"/>
      <point x="940" y="141"/>
    </contour>
  </outline>
</glyph>
<glyph name="l" format="2">
  <advance width="587"/>
  <unicode hex="006C"/>
  <anchor x="340" y="0" name="bottom"/>
  <anchor x="587" y="786" name="periodcentered"/>
  <anchor x="247" y="1556" name="top"/>
  <anchor x="355" y="987" name="topright"/>
  <outline>
    <contour>
      <point x="508" y="155" type="curve"/>
      <point x="434" y="155" type="line"/>
      <point x="380" y="155"/>
      <point x="355" y="185"/>
      <point x="355" y="243" type="curve" smooth="yes"/>
      <point x="355" y="1339" type="line" smooth="yes"/>
      <point x="355" y="1431"/>
      <point x="331" y="1471"/>
      <point x="244" y="1471" type="curve" smooth="yes"/>
      <point x="166" y="1471" type="line"/>
      <point x="153" y="1458" type="line"/>
      <point x="153" y="197" type="line" smooth="yes"/>
      <point x="153" y="60"/>
      <point x="221" y="-9"/>
      <point x="350" y="-9" type="curve" smooth="yes"/>
      <point x="404" y="-9"/>
      <point x="474" y="-1"/>
      <point x="521" y="6" type="curve"/>
      <point x="524" y="19"/>
      <point x="525" y="36"/>
      <point x="525" y="51" type="curve" smooth="yes"/>
      <point x="525" y="87"/>
      <point x="519" y="125"/>
    </contour>
  </outline>
</glyph>
<glyph name="m" format="2">
  <advance width="1594"/>
  <unicode hex="006D"/>
  <anchor x="802" y="0" name="bottom"/>
  <anchor x="791" y="1084" name="top"/>
  <outline>
    <contour>
      <point x="246" y="996" type="curve" smooth="yes"/>
      <point x="169" y="996" type="line"/>
      <point x="156" y="982" type="line"/>
      <point x="156" y="0" type="line"/>
      <point x="185" y="-5"/>
      <point x="223" y="-8"/>
      <point x="260" y="-8" type="curve" smooth="yes"/>
      <point x="297" y="-8"/>
      <point x="335" y="-5"/>
      <point x="363" y="0" type="curve"/>
      <point x="363" y="849" type="line" smooth="yes"/>
      <point x="363" y="941"/>
      <point x="332" y="996"/>
    </contour>
    <contour>
      <point x="698" y="626" type="curve" smooth="yes"/>
      <point x="698" y="0" type="line"/>
      <point x="727" y="-5"/>
      <point x="764" y="-8"/>
      <point x="802" y="-8" type="curve" smooth="yes"/>
      <point x="839" y="-8"/>
      <point x="876" y="-5"/>
      <point x="904" y="0" type="curve"/>
      <point x="904" y="694" type="line" smooth="yes"/>
      <point x="904" y="868"/>
      <point x="819" y="1005"/>
      <point x="645" y="1005" type="curve" smooth="yes"/>
      <point x="510" y="1005"/>
      <point x="380" y="912"/>
      <point x="292" y="789" type="curve"/>
      <point x="292" y="587" type="line"/>
      <point x="346" y="715"/>
      <point x="479" y="818"/>
      <point x="579" y="819" type="curve" smooth="yes"/>
      <point x="658" y="819"/>
      <point x="698" y="767"/>
    </contour>
    <contour>
      <point x="1241" y="628" type="curve"/>
      <point x="1241" y="118" type="line" smooth="yes"/>
      <point x="1241" y="32"/>
      <point x="1270" y="-13"/>
      <point x="1350" y="-13" type="curve" smooth="yes"/>
      <point x="1400" y="-13"/>
      <point x="1450" y="5"/>
      <point x="1480" y="31" type="curve"/>
      <point x="1455" y="78"/>
      <point x="1447" y="141"/>
      <point x="1447" y="211" type="curve" smooth="yes"/>
      <point x="1447" y="693" type="line" smooth="yes"/>
      <point x="1447" y="867"/>
      <point x="1366" y="1005"/>
      <point x="1191" y="1005" type="curve" smooth="yes"/>
      <point x="1058" y="1005"/>
      <point x="927" y="921"/>
      <point x="829" y="813" type="curve"/>
      <point x="829" y="583" type="line"/>
      <point x="894" y="720"/>
      <point x="1025" y="819"/>
      <point x="1120" y="819" type="curve" smooth="yes"/>
      <point x="1199" y="819"/>
      <point x="1241" y="769"/>
    </contour>
  </outline>
</glyph>
<glyph name="n" format="2">
  <advance width="1091"/>
  <unicode hex="006E"/>
  <anchor x="556" y="0" name="bottom"/>
  <anchor x="557" y="1084" name="top"/>
  <outline>
    <contour>
      <point x="247" y="996" type="curve" smooth="yes"/>
      <point x="169" y="996" type="line"/>
      <point x="156" y="983" type="line"/>
      <point x="156" y="0" type="line"/>
      <point x="185" y="-5"/>
      <point x="223" y="-8"/>
      <point x="260" y="-8" type="curve" smooth="yes"/>
      <point x="297" y="-8"/>
      <point x="335" y="-5"/>
      <point x="363" y="0" type="curve"/>
      <point x="363" y="849" type="line" smooth="yes"/>
      <point x="363" y="941"/>
      <point x="332" y="996"/>
    </contour>
    <contour>
      <point x="944" y="211" type="curve" smooth="yes"/>
      <point x="944" y="677" type="line" smooth="yes"/>
      <point x="944" y="861"/>
      <point x="866" y="1005"/>
      <point x="679" y="1005" type="curve" smooth="yes"/>
      <point x="534" y="1005"/>
      <point x="399" y="924"/>
      <point x="310" y="821" type="curve"/>
      <point x="310" y="623" type="line"/>
      <point x="374" y="742"/>
      <point x="512" y="819"/>
      <point x="613" y="819" type="curve" smooth="yes"/>
      <point x="711" y="819"/>
      <point x="738" y="761"/>
      <point x="738" y="627" type="curve" smooth="yes"/>
      <point x="738" y="118" type="line" smooth="yes"/>
      <point x="738" y="32"/>
      <point x="767" y="-13"/>
      <point x="847" y="-13" type="curve" smooth="yes"/>
      <point x="897" y="-13"/>
      <point x="947" y="5"/>
      <point x="977" y="31" type="curve"/>
      <point x="952" y="78"/>
      <point x="944" y="141"/>
    </contour>
  </outline>
</glyph>
<glyph name="o" format="2">
  <advance width="1040"/>
  <unicode hex="006F"/>
  <anchor x="519" y="0" name="bottom"/>
  <anchor x="677" y="0" name="ogonek"/>
  <anchor x="519" y="1084" name="top"/>
  <anchor x="808" y="964" name="topright"/>
  <outline>
    <contour>
      <point x="952" y="494" type="curve" smooth="yes"/>
      <point x="952" y="797"/>
      <point x="806" y="1013"/>
      <point x="519" y="1013" type="curve" smooth="yes"/>
      <point x="237" y="1013"/>
      <point x="88" y="799"/>
      <point x="88" y="494" type="curve" smooth="yes"/>
      <point x="88" y="191"/>
      <point x="234" y="-26"/>
      <point x="519" y="-26" type="curve" smooth="yes"/>
      <point x="804" y="-26"/>
      <point x="952" y="187"/>
    </contour>
    <contour>
      <point x="301" y="494" type="curve" smooth="yes"/>
      <point x="301" y="679"/>
      <point x="348" y="856"/>
      <point x="521" y="856" type="curve" smooth="yes"/>
      <point x="692" y="856"/>
      <point x="739" y="679"/>
      <point x="739" y="494" type="curve" smooth="yes"/>
      <point x="739" y="307"/>
      <point x="692" y="132"/>
      <point x="521" y="132" type="curve" smooth="yes"/>
      <point x="348" y="132"/>
      <point x="301" y="307"/>
    </contour>
  </outline>
</glyph>
<glyph name="p" format="2">
  <advance width="1060"/>
  <unicode hex="0070"/>
  <anchor x="524" y="1084" name="top"/>
  <outline>
    <contour>
      <point x="232" y="996" type="curve" smooth="yes"/>
      <point x="169" y="996" type="line"/>
      <point x="156" y="983" type="line"/>
      <point x="156" y="-418" type="line"/>
      <point x="169" y="-431" type="line"/>
      <point x="247" y="-431" type="line" smooth="yes"/>
      <point x="334" y="-431"/>
      <point x="359" y="-391"/>
      <point x="359" y="-299" type="curve" smooth="yes"/>
      <point x="359" y="835" type="line" smooth="yes"/>
      <point x="359" y="936"/>
      <point x="320" y="996"/>
    </contour>
    <contour>
      <point x="972" y="506" type="curve" smooth="yes"/>
      <point x="972" y="806"/>
      <point x="856" y="1013"/>
      <point x="628" y="1013" type="curve" smooth="yes"/>
      <point x="440" y="1013"/>
      <point x="296" y="871"/>
      <point x="258" y="736" type="curve"/>
      <point x="300" y="583" type="line"/>
      <point x="352" y="763"/>
      <point x="480" y="841"/>
      <point x="580" y="841" type="curve" smooth="yes"/>
      <point x="677" y="841"/>
      <point x="761" y="744"/>
      <point x="761" y="506" type="curve" smooth="yes"/>
      <point x="761" y="262"/>
      <point x="672" y="148"/>
      <point x="560" y="148" type="curve" smooth="yes"/>
      <point x="460" y="148"/>
      <point x="363" y="216"/>
      <point x="286" y="276" type="curve"/>
      <point x="263" y="112" type="line"/>
      <point x="356" y="45"/>
      <point x="461" y="-17"/>
      <point x="588" y="-17" type="curve" smooth="yes"/>
      <point x="779" y="-17"/>
      <point x="972" y="148"/>
    </contour>
  </outline>
</glyph>
<glyph name="q" format="2">
  <advance width="1058"/>
  <unicode hex="0071"/>
  <outline>
    <contour>
      <point x="88" y="492" type="curve" smooth="yes"/>
      <point x="88" y="188"/>
      <point x="204" y="-17"/>
      <point x="436" y="-17" type="curve" smooth="yes"/>
      <point x="595" y="-17"/>
      <point x="722" y="88"/>
      <point x="777" y="179" type="curve"/>
      <point x="747" y="341" type="line"/>
      <point x="691" y="233"/>
      <point x="585" y="155"/>
      <point x="478" y="155" type="curve" smooth="yes"/>
      <point x="382" y="155"/>
      <point x="299" y="253"/>
      <point x="299" y="491" type="curve" smooth="yes"/>
      <point x="299" y="734"/>
      <point x="388" y="848"/>
      <point x="503" y="848" type="curve" smooth="yes"/>
      <point x="603" y="848"/>
      <point x="713" y="771"/>
      <point x="784" y="662" type="curve"/>
      <point x="812" y="841" type="line"/>
      <point x="745" y="926"/>
      <point x="645" y="1013"/>
      <point x="470" y="1013" type="curve" smooth="yes"/>
      <point x="282" y="1013"/>
      <point x="88" y="846"/>
    </contour>
    <contour>
      <point x="700" y="738" type="curve" smooth="yes"/>
      <point x="700" y="-299" type="line" smooth="yes"/>
      <point x="700" y="-391"/>
      <point x="724" y="-431"/>
      <point x="811" y="-431" type="curve" smooth="yes"/>
      <point x="889" y="-431" type="line"/>
      <point x="902" y="-418" type="line"/>
      <point x="902" y="706" type="line" smooth="yes"/>
      <point x="902" y="784"/>
      <point x="914" y="857"/>
      <point x="958" y="895" type="curve"/>
      <point x="947" y="933"/>
      <point x="914" y="981"/>
      <point x="880" y="1002" type="curve"/>
      <point x="750" y="976"/>
      <point x="700" y="867"/>
    </contour>
  </outline>
</glyph>
<glyph name="r" format="2">
  <advance width="737"/>
  <unicode hex="0072"/>
  <anchor x="277" y="0" name="bottom"/>
  <anchor x="403" y="1084" name="top"/>
  <outline>
    <contour>
      <point x="726" y="990" type="curve"/>
      <point x="688" y="997"/>
      <point x="656" y="1001"/>
      <point x="620" y="1001" type="curve" smooth="yes"/>
      <point x="392" y="1001"/>
      <point x="315" y="775"/>
      <point x="309" y="587" type="curve"/>
      <point x="338" y="549" type="line"/>
      <point x="375" y="664"/>
      <point x="442" y="804"/>
      <point x="595" y="804" type="curve"/>
      <point x="622" y="803"/>
      <point x="649" y="801"/>
      <point x="676" y="795" type="curve"/>
      <point x="711" y="851"/>
      <point x="726" y="934"/>
    </contour>
    <contour>
      <point x="100" y="892" type="curve"/>
      <point x="135" y="861"/>
      <point x="174" y="792"/>
      <point x="174" y="686" type="curve" smooth="yes"/>
      <point x="174" y="0" type="line"/>
      <point x="202" y="-5"/>
      <point x="240" y="-8"/>
      <point x="277" y="-8" type="curve" smooth="yes"/>
      <point x="314" y="-8"/>
      <point x="352" y="-5"/>
      <point x="380" y="0" type="curve"/>
      <point x="380" y="704" type="line"/>
      <point x="370" y="862"/>
      <point x="308" y="973"/>
      <point x="175" y="1002" type="curve"/>
      <point x="143" y="980"/>
      <point x="110" y="929"/>
    </contour>
  </outline>
</glyph>
<glyph name="s" format="2">
  <advance width="875"/>
  <unicode hex="0073"/>
  <anchor x="434" y="0" name="bottom"/>
  <anchor x="436" y="1084" name="top"/>
  <outline>
    <contour>
      <point x="62" y="73" type="curve"/>
      <point x="148" y="20"/>
      <point x="270" y="-26"/>
      <point x="411" y="-26" type="curve" smooth="yes"/>
      <point x="646" y="-26"/>
      <point x="803" y="86"/>
      <point x="803" y="272" type="curve" smooth="yes"/>
      <point x="803" y="426"/>
      <point x="699" y="518"/>
      <point x="549" y="573" type="curve" smooth="yes"/>
      <point x="426" y="618" type="line" smooth="yes"/>
      <point x="343" y="649"/>
      <point x="302" y="683"/>
      <point x="302" y="739" type="curve" smooth="yes"/>
      <point x="302" y="809"/>
      <point x="359" y="855"/>
      <point x="447" y="855" type="curve" smooth="yes"/>
      <point x="546" y="855"/>
      <point x="644" y="821"/>
      <point x="714" y="790" type="curve"/>
      <point x="750" y="821"/>
      <point x="776" y="890"/>
      <point x="774" y="941" type="curve"/>
      <point x="691" y="980"/>
      <point x="556" y="1013"/>
      <point x="448" y="1013" type="curve" smooth="yes"/>
      <point x="246" y="1013"/>
      <point x="94" y="901"/>
      <point x="94" y="718" type="curve" smooth="yes"/>
      <point x="94" y="567"/>
      <point x="210" y="484"/>
      <point x="348" y="433" type="curve" smooth="yes"/>
      <point x="464" y="390" type="line" smooth="yes"/>
      <point x="546" y="360"/>
      <point x="589" y="310"/>
      <point x="589" y="254" type="curve" smooth="yes"/>
      <point x="588" y="181"/>
      <point x="520" y="129"/>
      <point x="411" y="129" type="curve" smooth="yes"/>
      <point x="312" y="129"/>
      <point x="214" y="172"/>
      <point x="130" y="218" type="curve"/>
      <point x="95" y="186"/>
      <point x="64" y="120"/>
    </contour>
  </outline>
</glyph>
<glyph name="t" format="2">
  <advance width="701"/>
  <unicode hex="0074"/>
  <anchor x="399" y="0" name="bottom"/>
  <anchor x="325" y="1364" name="top"/>
  <anchor x="395" y="987" name="topright"/>
  <outline>
    <contour>
      <point x="193" y="1162" type="curve" smooth="yes"/>
      <point x="193" y="197" type="line" smooth="yes"/>
      <point x="193" y="60"/>
      <point x="268" y="-9"/>
      <point x="405" y="-9" type="curve" smooth="yes"/>
      <point x="484" y="-9"/>
      <point x="562" y="-3"/>
      <point x="628" y="6" type="curve"/>
      <point x="631" y="19"/>
      <point x="632" y="36"/>
      <point x="632" y="51" type="curve" smooth="yes"/>
      <point x="632" y="87"/>
      <point x="626" y="125"/>
      <point x="615" y="155" type="curve"/>
      <point x="478" y="155" type="line" smooth="yes"/>
      <point x="418" y="155"/>
      <point x="395" y="189"/>
      <point x="395" y="242" type="curve" smooth="yes"/>
      <point x="395" y="1281" type="line"/>
      <point x="383" y="1294" type="line"/>
      <point x="305" y="1294" type="line" smooth="yes"/>
      <point x="218" y="1294"/>
      <point x="193" y="1254"/>
    </contour>
    <contour>
      <point x="643" y="989" type="curve"/>
      <point x="318" y="984" type="line"/>
      <point x="47" y="989" type="line"/>
      <point x="40" y="962"/>
      <point x="38" y="939"/>
      <point x="38" y="914" type="curve" smooth="yes"/>
      <point x="38" y="886"/>
      <point x="40" y="862"/>
      <point x="47" y="837" type="curve"/>
      <point x="315" y="841" type="line"/>
      <point x="643" y="837" type="line"/>
      <point x="649" y="862"/>
      <point x="652" y="886"/>
      <point x="652" y="914" type="curve" smooth="yes"/>
      <point x="652" y="939"/>
      <point x="649" y="962"/>
    </contour>
  </outline>
</glyph>
<glyph name="v" format="2">
  <advance width="911"/>
  <unicode hex="0076"/>
  <anchor x="460" y="0" name="bottom"/>
  <anchor x="455" y="1084" name="top"/>
  <outline>
    <contour>
      <point x="708" y="988" type="curve"/>
      <point x="473" y="167" type="line"/>
      <point x="461" y="167"/>
      <point x="457" y="169"/>
      <point x="454" y="183" type="curve" smooth="yes"/>
      <point x="440" y="245"/>
      <point x="408" y="375"/>
      <point x="377" y="474" type="curve" smooth="yes"/>
      <point x="243" y="914" type="line" smooth="yes"/>
      <point x="226" y="979"/>
      <point x="189" y="1003"/>
      <point x="131" y="1003" type="curve" smooth="yes"/>
      <point x="96" y="1003"/>
      <point x="57" y="993"/>
      <point x="11" y="971" type="curve"/>
      <point x="289" y="105" type="line" smooth="yes"/>
      <point x="319" y="6"/>
      <point x="356" y="-11"/>
      <point x="438" y="-11" type="curve" smooth="yes"/>
      <point x="487" y="-11"/>
      <point x="543" y="-8"/>
      <point x="588" y="0" type="curve"/>
      <point x="662" y="219"/>
      <point x="804" y="664"/>
      <point x="897" y="971" type="curve"/>
      <point x="891" y="980" type="line"/>
      <point x="859" y="991"/>
      <point x="823" y="996"/>
      <point x="786" y="996" type="curve" smooth="yes"/>
      <point x="761" y="996"/>
      <point x="735" y="994"/>
    </contour>
  </outline>
</glyph>
<glyph name="w" format="2">
  <advance width="1445"/>
  <unicode hex="0077"/>
  <anchor x="726" y="0" name="bottom"/>
  <anchor x="726" y="1084" name="top"/>
  <outline>
    <contour>
      <point x="45" y="975" type="curve"/>
      <point x="252" y="103" type="line" smooth="yes"/>
      <point x="275" y="7"/>
      <point x="322" y="-9"/>
      <point x="392" y="-9" type="curve" smooth="yes"/>
      <point x="443" y="-9"/>
      <point x="512" y="-7"/>
      <point x="557" y="0" type="curve"/>
      <point x="639" y="381" type="line" smooth="yes"/>
      <point x="660" y="487"/>
      <point x="694" y="653"/>
      <point x="720" y="795" type="curve"/>
      <point x="729" y="795" type="line"/>
      <point x="756" y="652"/>
      <point x="786" y="485"/>
      <point x="807" y="380" type="curve" smooth="yes"/>
      <point x="864" y="102" type="line" smooth="yes"/>
      <point x="882" y="4"/>
      <point x="929" y="-9"/>
      <point x="1008" y="-9" type="curve" smooth="yes"/>
      <point x="1057" y="-9"/>
      <point x="1123" y="-7"/>
      <point x="1163" y="-1" type="curve"/>
      <point x="1407" y="969" type="line"/>
      <point x="1400" y="980" type="line"/>
      <point x="1374" y="993"/>
      <point x="1329" y="997"/>
      <point x="1297" y="997" type="curve" smooth="yes"/>
      <point x="1267" y="997"/>
      <point x="1232" y="994"/>
      <point x="1209" y="988" type="curve"/>
      <point x="1100" y="503" type="line" smooth="yes"/>
      <point x="1073" y="384"/>
      <point x="1051" y="270"/>
      <point x="1027" y="154" type="curve"/>
      <point x="1016" y="154"/>
      <point x="1014" y="156"/>
      <point x="1011" y="171" type="curve" smooth="yes"/>
      <point x="849" y="983" type="line"/>
      <point x="819" y="990"/>
      <point x="756" y="992"/>
      <point x="725" y="992" type="curve" smooth="yes"/>
      <point x="697" y="992"/>
      <point x="634" y="990"/>
      <point x="603" y="983" type="curve"/>
      <point x="434" y="154" type="line"/>
      <point x="425" y="154"/>
      <point x="421" y="156"/>
      <point x="418" y="171" type="curve" smooth="yes"/>
      <point x="404" y="247"/>
      <point x="380" y="378"/>
      <point x="353" y="503" type="curve" smooth="yes"/>
      <point x="263" y="918" type="line" smooth="yes"/>
      <point x="250" y="979"/>
      <point x="220" y="1003"/>
      <point x="166" y="1003" type="curve" smooth="yes"/>
      <point x="131" y="1003"/>
      <point x="92" y="995"/>
    </contour>
  </outline>
</glyph>
<glyph name="x" format="2">
  <advance width="921"/>
  <unicode hex="0078"/>
  <anchor x="455" y="1084" name="top"/>
  <outline>
    <contour>
      <point x="55" y="957" type="curve"/>
      <point x="645" y="47" type="line"/>
      <point x="671" y="6"/>
      <point x="700" y="-15"/>
      <point x="751" y="-15" type="curve" smooth="yes"/>
      <point x="799" y="-15"/>
      <point x="854" y="6"/>
      <point x="894" y="32" type="curve"/>
      <point x="301" y="941" type="line" smooth="yes"/>
      <point x="274" y="982"/>
      <point x="248" y="1005"/>
      <point x="197" y="1005" type="curve" smooth="yes"/>
      <point x="152" y="1005"/>
      <point x="97" y="986"/>
    </contour>
    <contour>
      <point x="661" y="987" type="curve"/>
      <point x="438" y="622" type="line"/>
      <point x="376" y="561" type="line"/>
      <point x="29" y="22" type="line"/>
      <point x="37" y="7" type="line"/>
      <point x="64" y="-5"/>
      <point x="102" y="-11"/>
      <point x="142" y="-11" type="curve" smooth="yes"/>
      <point x="172" y="-11"/>
      <point x="209" y="-7"/>
      <point x="228" y="-1" type="curve"/>
      <point x="486" y="419" type="line"/>
      <point x="541" y="477" type="line"/>
      <point x="854" y="965" type="line"/>
      <point x="848" y="981" type="line"/>
      <point x="822" y="990"/>
      <point x="787" y="997"/>
      <point x="746" y="997" type="curve" smooth="yes"/>
      <point x="716" y="997"/>
      <point x="681" y="993"/>
    </contour>
  </outline>
</glyph>
<glyph name="y" format="2">
  <advance width="935"/>
  <unicode hex="0079"/>
  <anchor x="760" y="-89" name="bottom"/>
  <anchor x="466" y="1084" name="top"/>
  <outline>
    <contour>
      <point x="648" y="31" type="curve" smooth="yes"/>
      <point x="912" y="970" type="line"/>
      <point x="905" y="982" type="line"/>
      <point x="872" y="993"/>
      <point x="835" y="997"/>
      <point x="798" y="997" type="curve" smooth="yes"/>
      <point x="770" y="997"/>
      <point x="736" y="994"/>
      <point x="710" y="988" type="curve"/>
      <point x="491" y="142" type="line"/>
      <point x="481" y="142"/>
      <point x="476" y="144"/>
      <point x="472" y="156" type="curve" smooth="yes"/>
      <point x="454" y="232"/>
      <point x="425" y="358"/>
      <point x="398" y="450" type="curve" smooth="yes"/>
      <point x="262" y="910" type="line" smooth="yes"/>
      <point x="243" y="982"/>
      <point x="207" y="1003"/>
      <point x="158" y="1003" type="curve" smooth="yes"/>
      <point x="125" y="1003"/>
      <point x="80" y="992"/>
      <point x="33" y="971" type="curve"/>
      <point x="295" y="97" type="line" smooth="yes"/>
      <point x="320" y="17"/>
      <point x="367" y="-8"/>
      <point x="450" y="-10" type="curve"/>
      <point x="443" y="-34" type="line" smooth="yes"/>
      <point x="397" y="-185"/>
      <point x="338" y="-281"/>
      <point x="203" y="-281" type="curve" smooth="yes"/>
      <point x="151" y="-281"/>
      <point x="88" y="-268"/>
      <point x="55" y="-257" type="curve"/>
      <point x="28" y="-289"/>
      <point x="7" y="-357"/>
      <point x="11" y="-405" type="curve"/>
      <point x="53" y="-420"/>
      <point x="139" y="-437"/>
      <point x="202" y="-437" type="curve" smooth="yes"/>
      <point x="468" y="-437"/>
      <point x="561" y="-273"/>
    </contour>
  </outline>
</glyph>
<glyph name="z" format="2">
  <advance width="892"/>
  <unicode hex="007A"/>
  <anchor x="449" y="0" name="bottom"/>
  <anchor x="449" y="1084" name="top"/>
  <outline>
    <contour>
      <point x="429" y="639" type="curve" smooth="yes"/>
      <point x="102" y="195" type="line" smooth="yes"/>
      <point x="78" y="162"/>
      <point x="70" y="136"/>
      <point x="70" y="113" type="curve" smooth="yes"/>
      <point x="70" y="85"/>
      <point x="78" y="59"/>
      <point x="99" y="0" type="curve"/>
      <point x="695" y="0" type="line" smooth="yes"/>
      <point x="794" y="0"/>
      <point x="825" y="38"/>
      <point x="825" y="98" type="curve" smooth="yes"/>
      <point x="825" y="128"/>
      <point x="819" y="157"/>
      <point x="805" y="190" type="curve"/>
      <point x="755" y="168"/>
      <point x="680" y="162"/>
      <point x="590" y="162" type="curve" smooth="yes"/>
      <point x="494" y="162" type="line" smooth="yes"/>
      <point x="445" y="162"/>
      <point x="374" y="159"/>
      <point x="309" y="154" type="curve"/>
      <point x="303" y="161" type="line"/>
      <point x="352" y="218"/>
      <point x="413" y="294"/>
      <point x="458" y="356" type="curve" smooth="yes"/>
      <point x="783" y="795" type="line" smooth="yes"/>
      <point x="801" y="819"/>
      <point x="810" y="844"/>
      <point x="810" y="866" type="curve" smooth="yes"/>
      <point x="810" y="895"/>
      <point x="800" y="928"/>
      <point x="779" y="987" type="curve"/>
      <point x="110" y="987" type="line"/>
      <point x="103" y="956"/>
      <point x="99" y="920"/>
      <point x="99" y="894" type="curve" smooth="yes"/>
      <point x="99" y="876"/>
      <point x="100" y="849"/>
      <point x="106" y="827" type="curve"/>
      <point x="316" y="827" type="line" smooth="yes"/>
      <point x="398" y="827"/>
      <point x="524" y="833"/>
      <point x="581" y="839" type="curve"/>
      <point x="587" y="832" type="line"/>
      <point x="538" y="772"/>
      <point x="474" y="700"/>
    </contour>
  </outline>
</glyph>
<glyph name="braceleft" format="2">
  <advance width="693"/>
  <unicode hex="007B"/>
  <outline>
    <contour>
      <point x="85" y="619" type="curve"/>
      <point x="71" y="586"/>
      <point x="71" y="516"/>
      <point x="85" y="483" type="curve"/>
      <point x="177" y="454"/>
      <point x="248" y="365"/>
      <point x="248" y="248" type="curve" smooth="yes"/>
      <point x="248" y="-94" type="line" smooth="yes"/>
      <point x="248" y="-285"/>
      <point x="369" y="-393"/>
      <point x="533" y="-420" type="curve" smooth="yes"/>
      <point x="635" y="-437" type="line"/>
      <point x="664" y="-406"/>
      <point x="682" y="-335"/>
      <point x="673" y="-295" type="curve"/>
      <point x="573" y="-263" type="line" smooth="yes"/>
      <point x="501" y="-241"/>
      <point x="459" y="-182"/>
      <point x="459" y="-92" type="curve" smooth="yes"/>
      <point x="459" y="244" type="line" smooth="yes"/>
      <point x="459" y="370"/>
      <point x="394" y="496"/>
      <point x="292" y="543" type="curve"/>
      <point x="292" y="559" type="line"/>
      <point x="394" y="606"/>
      <point x="459" y="732"/>
      <point x="459" y="858" type="curve" smooth="yes"/>
      <point x="459" y="1192" type="line" smooth="yes"/>
      <point x="459" y="1283"/>
      <point x="501" y="1341"/>
      <point x="573" y="1364" type="curve" smooth="yes"/>
      <point x="673" y="1395" type="line"/>
      <point x="682" y="1436"/>
      <point x="664" y="1506"/>
      <point x="635" y="1538" type="curve"/>
      <point x="533" y="1521" type="line" smooth="yes"/>
      <point x="369" y="1493"/>
      <point x="248" y="1386"/>
      <point x="248" y="1194" type="curve" smooth="yes"/>
      <point x="248" y="854" type="line" smooth="yes"/>
      <point x="248" y="736"/>
      <point x="177" y="648"/>
    </contour>
  </outline>
</glyph>
<glyph name="bar" format="2">
  <advance width="511"/>
  <unicode hex="007C"/>
  <outline>
    <contour>
      <point x="158" y="1549" type="curve"/>
      <point x="158" y="-281" type="line"/>
      <point x="187" y="-288"/>
      <point x="229" y="-290"/>
      <point x="256" y="-290" type="curve" smooth="yes"/>
      <point x="286" y="-290"/>
      <point x="322" y="-288"/>
      <point x="352" y="-281" type="curve"/>
      <point x="352" y="1549" type="line"/>
      <point x="322" y="1555"/>
      <point x="286" y="1557"/>
      <point x="256" y="1557" type="curve" smooth="yes"/>
      <point x="229" y="1557"/>
      <point x="187" y="1555"/>
    </contour>
  </outline>
</glyph>
<glyph name="braceright" format="2">
  <advance width="693"/>
  <unicode hex="007D"/>
  <outline>
    <contour>
      <point x="608" y="619" type="curve"/>
      <point x="622" y="586"/>
      <point x="622" y="516"/>
      <point x="608" y="483" type="curve"/>
      <point x="516" y="454"/>
      <point x="444" y="365"/>
      <point x="444" y="248" type="curve" smooth="yes"/>
      <point x="444" y="-94" type="line" smooth="yes"/>
      <point x="444" y="-285"/>
      <point x="324" y="-393"/>
      <point x="160" y="-420" type="curve" smooth="yes"/>
      <point x="58" y="-437" type="line"/>
      <point x="29" y="-406"/>
      <point x="11" y="-335"/>
      <point x="20" y="-295" type="curve"/>
      <point x="120" y="-263" type="line" smooth="yes"/>
      <point x="192" y="-241"/>
      <point x="234" y="-182"/>
      <point x="234" y="-92" type="curve" smooth="yes"/>
      <point x="234" y="244" type="line" smooth="yes"/>
      <point x="234" y="370"/>
      <point x="299" y="496"/>
      <point x="401" y="543" type="curve"/>
      <point x="401" y="559" type="line"/>
      <point x="299" y="606"/>
      <point x="234" y="732"/>
      <point x="234" y="858" type="curve" smooth="yes"/>
      <point x="234" y="1192" type="line" smooth="yes"/>
      <point x="234" y="1283"/>
      <point x="192" y="1341"/>
      <point x="120" y="1364" type="curve" smooth="yes"/>
      <point x="20" y="1395" type="line"/>
      <point x="11" y="1436"/>
      <point x="29" y="1506"/>
      <point x="58" y="1538" type="curve"/>
      <point x="160" y="1521" type="line" smooth="yes"/>
      <point x="324" y="1493"/>
      <point x="444" y="1386"/>
      <point x="444" y="1194" type="curve" smooth="yes"/>
      <point x="444" y="854" type="line" smooth="yes"/>
      <point x="444" y="736"/>
      <point x="516" y="648"/>
    </contour>
  </outline>
</glyph>
<glyph name="asciitilde" format="2">
  <advance width="1172"/>
  <unicode hex="007E"/>
  <outline>
    <contour>
      <point x="709" y="641" type="curve" smooth="yes"/>
      <point x="551" y="711" type="line" smooth="yes"/>
      <point x="495" y="737"/>
      <point x="436" y="752"/>
      <point x="381" y="752" type="curve" smooth="yes"/>
      <point x="261" y="752"/>
      <point x="168" y="689"/>
      <point x="106" y="577" type="curve" smooth="yes"/>
      <point x="79" y="530" type="line"/>
      <point x="98" y="484"/>
      <point x="157" y="453"/>
      <point x="202" y="450" type="curve"/>
      <point x="239" y="494" type="line" smooth="yes"/>
      <point x="273" y="534"/>
      <point x="313" y="558"/>
      <point x="360" y="558" type="curve" smooth="yes"/>
      <point x="393" y="558"/>
      <point x="427" y="549"/>
      <point x="463" y="534" type="curve" smooth="yes"/>
      <point x="621" y="463" type="line" smooth="yes"/>
      <point x="677" y="438"/>
      <point x="736" y="422"/>
      <point x="790" y="422" type="curve" smooth="yes"/>
      <point x="911" y="422"/>
      <point x="1004" y="486"/>
      <point x="1066" y="598" type="curve" smooth="yes"/>
      <point x="1093" y="645" type="line"/>
      <point x="1073" y="690"/>
      <point x="1014" y="721"/>
      <point x="970" y="725" type="curve"/>
      <point x="932" y="681" type="line" smooth="yes"/>
      <point x="899" y="640"/>
      <point x="859" y="616"/>
      <point x="812" y="616" type="curve" smooth="yes"/>
      <point x="779" y="616"/>
      <point x="745" y="625"/>
    </contour>
  </outline>
</glyph>
<glyph name="cent" format="2">
  <advance width="1080"/>
  <unicode hex="00A2"/>
  <outline>
    <contour>
      <point x="565" y="-50" type="curve" smooth="yes"/>
      <point x="591" y="-50"/>
      <point x="625" y="-48"/>
      <point x="648" y="-42" type="curve"/>
      <point x="648" y="241" type="line"/>
      <point x="482" y="241" type="line"/>
      <point x="482" y="-42" type="line"/>
      <point x="505" y="-48"/>
      <point x="539" y="-50"/>
    </contour>
    <contour>
      <point x="488" y="1014" type="line"/>
      <point x="654" y="1014" type="line"/>
      <point x="654" y="1308" type="line"/>
      <point x="631" y="1314"/>
      <point x="599" y="1316"/>
      <point x="571" y="1316" type="curve" smooth="yes"/>
      <point x="543" y="1316"/>
      <point x="511" y="1314"/>
      <point x="488" y="1308" type="curve"/>
    </contour>
    <contour>
      <point x="567" y="134" type="curve" smooth="yes"/>
      <point x="715" y="134"/>
      <point x="865" y="198"/>
      <point x="951" y="294" type="curve"/>
      <point x="937" y="338"/>
      <point x="895" y="391"/>
      <point x="856" y="413" type="curve"/>
      <point x="787" y="353"/>
      <point x="694" y="305"/>
      <point x="598" y="305" type="curve" smooth="yes"/>
      <point x="436" y="305"/>
      <point x="338" y="409"/>
      <point x="338" y="628" type="curve" smooth="yes"/>
      <point x="338" y="849"/>
      <point x="422" y="971"/>
      <point x="570" y="971" type="curve" smooth="yes"/>
      <point x="728" y="971"/>
      <point x="775" y="841"/>
      <point x="769" y="724" type="curve"/>
      <point x="793" y="718"/>
      <point x="821" y="715"/>
      <point x="847" y="715" type="curve" smooth="yes"/>
      <point x="928" y="715"/>
      <point x="957" y="760"/>
      <point x="957" y="837" type="curve" smooth="yes"/>
      <point x="957" y="967"/>
      <point x="833" y="1132"/>
      <point x="576" y="1132" type="curve" smooth="yes"/>
      <point x="343" y="1132"/>
      <point x="125" y="977"/>
      <point x="125" y="628" type="curve" smooth="yes"/>
      <point x="125" y="399"/>
      <point x="232" y="134"/>
    </contour>
  </outline>
</glyph>
<glyph name="sterling" format="2">
  <advance width="1080"/>
  <unicode hex="00A3"/>
  <guideline x="148" y="121" angle="90.0"/>
  <outline>
    <contour>
      <point x="176" y="0" type="curve"/>
      <point x="840" y="0" type="line" smooth="yes"/>
      <point x="931" y="0"/>
      <point x="977" y="35"/>
      <point x="977" y="176" type="curve"/>
      <point x="688" y="176" type="line" smooth="yes"/>
      <point x="566" y="176"/>
      <point x="451" y="172"/>
      <point x="363" y="165" type="curve"/>
      <point x="357" y="170" type="line"/>
      <point x="448" y="253"/>
      <point x="525" y="364"/>
      <point x="525" y="499" type="curve" smooth="yes"/>
      <point x="525" y="662"/>
      <point x="451" y="791"/>
      <point x="451" y="920" type="curve" smooth="yes"/>
      <point x="451" y="1058"/>
      <point x="540" y="1119"/>
      <point x="640" y="1119" type="curve" smooth="yes"/>
      <point x="716" y="1119"/>
      <point x="794" y="1082"/>
      <point x="860" y="1023" type="curve"/>
      <point x="911" y="1049"/>
      <point x="951" y="1111"/>
      <point x="962" y="1163" type="curve"/>
      <point x="887" y="1230"/>
      <point x="774" y="1295"/>
      <point x="628" y="1295" type="curve" smooth="yes"/>
      <point x="379" y="1295"/>
      <point x="238" y="1118"/>
      <point x="238" y="931" type="curve" smooth="yes"/>
      <point x="238" y="773"/>
      <point x="331" y="643"/>
      <point x="331" y="484" type="curve" smooth="yes"/>
      <point x="331" y="386"/>
      <point x="286" y="320"/>
      <point x="228" y="255" type="curve" smooth="yes"/>
      <point x="203" y="228" type="line" smooth="yes"/>
      <point x="176" y="199"/>
      <point x="148" y="167"/>
      <point x="148" y="123" type="curve" smooth="yes"/>
      <point x="148" y="98"/>
      <point x="152" y="71"/>
    </contour>
    <contour>
      <point x="156" y="533" type="curve"/>
      <point x="403" y="534" type="line"/>
      <point x="811" y="533" type="line"/>
      <point x="817" y="553"/>
      <point x="819" y="584"/>
      <point x="819" y="610" type="curve" smooth="yes"/>
      <point x="819" y="637"/>
      <point x="817" y="665"/>
      <point x="811" y="685" type="curve"/>
      <point x="403" y="683" type="line"/>
      <point x="156" y="685" type="line"/>
      <point x="150" y="662"/>
      <point x="148" y="636"/>
      <point x="148" y="608" type="curve" smooth="yes"/>
      <point x="148" y="580"/>
      <point x="150" y="554"/>
    </contour>
  </outline>
</glyph>
<glyph name="currency" format="2">
  <advance width="1080"/>
  <unicode hex="00A4"/>
  <outline>
    <contour>
      <point x="538" y="245" type="curve" smooth="yes"/>
      <point x="767" y="245"/>
      <point x="928" y="406"/>
      <point x="928" y="632" type="curve" smooth="yes"/>
      <point x="928" y="860"/>
      <point x="767" y="1021"/>
      <point x="538" y="1021" type="curve" smooth="yes"/>
      <point x="312" y="1021"/>
      <point x="151" y="860"/>
      <point x="151" y="632" type="curve" smooth="yes"/>
      <point x="151" y="406"/>
      <point x="312" y="245"/>
    </contour>
    <contour>
      <point x="538" y="395" type="curve" smooth="yes"/>
      <point x="411" y="395"/>
      <point x="341" y="503"/>
      <point x="341" y="632" type="curve" smooth="yes"/>
      <point x="341" y="763"/>
      <point x="411" y="871"/>
      <point x="538" y="871" type="curve" smooth="yes"/>
      <point x="668" y="871"/>
      <point x="737" y="763"/>
      <point x="737" y="632" type="curve" smooth="yes"/>
      <point x="737" y="501"/>
      <point x="668" y="395"/>
    </contour>
    <contour>
      <point x="167" y="147" type="curve"/>
      <point x="392" y="351" type="line"/>
      <point x="261" y="484" type="line"/>
      <point x="54" y="260" type="line"/>
      <point x="80" y="215"/>
      <point x="123" y="171"/>
    </contour>
    <contour>
      <point x="261" y="780" type="line"/>
      <point x="391" y="913" type="line"/>
      <point x="167" y="1117" type="line"/>
      <point x="123" y="1092"/>
      <point x="78" y="1050"/>
      <point x="54" y="1004" type="curve"/>
    </contour>
    <contour>
      <point x="820" y="782" type="line"/>
      <point x="1026" y="1006" type="line"/>
      <point x="1000" y="1051"/>
      <point x="957" y="1094"/>
      <point x="913" y="1119" type="curve"/>
      <point x="689" y="914" type="line"/>
    </contour>
    <contour>
      <point x="911" y="146" type="line"/>
      <point x="957" y="172"/>
      <point x="1000" y="214"/>
      <point x="1023" y="259" type="curve"/>
      <point x="818" y="482" type="line"/>
      <point x="687" y="351" type="line"/>
    </contour>
  </outline>
</glyph>
<glyph name="yen" format="2">
  <advance width="1080"/>
  <unicode hex="00A5"/>
  <guideline x="758" y="1119" angle="352.277248"/>
  <outline>
    <contour>
      <point x="439" y="443" type="line"/>
      <point x="636" y="443" type="line"/>
      <point x="994" y="1250" type="line"/>
      <point x="986" y="1266" type="line"/>
      <point x="950" y="1276"/>
      <point x="915" y="1280"/>
      <point x="881" y="1280" type="curve" smooth="yes"/>
      <point x="855" y="1280"/>
      <point x="826" y="1278"/>
      <point x="798" y="1270" type="curve"/>
      <point x="641" y="887" type="line" smooth="yes"/>
      <point x="612" y="815"/>
      <point x="576" y="723"/>
      <point x="550" y="640" type="curve"/>
      <point x="539" y="640" type="line"/>
      <point x="512" y="731"/>
      <point x="485" y="810"/>
      <point x="454" y="887" type="curve" smooth="yes"/>
      <point x="322" y="1204" type="line" smooth="yes"/>
      <point x="299" y="1262"/>
      <point x="271" y="1287"/>
      <point x="220" y="1287" type="curve" smooth="yes"/>
      <point x="177" y="1287"/>
      <point x="130" y="1272"/>
      <point x="86" y="1249" type="curve"/>
    </contour>
    <contour>
      <point x="538" y="-8" type="curve" smooth="yes"/>
      <point x="567" y="-8"/>
      <point x="608" y="-6"/>
      <point x="640" y="0" type="curve"/>
      <point x="640" y="507" type="line"/>
      <point x="435" y="507" type="line"/>
      <point x="435" y="0" type="line"/>
      <point x="466" y="-6"/>
      <point x="510" y="-8"/>
    </contour>
    <contour>
      <point x="146" y="323" type="curve"/>
      <point x="929" y="323" type="line"/>
      <point x="935" y="346"/>
      <point x="938" y="373"/>
      <point x="938" y="397" type="curve" smooth="yes"/>
      <point x="938" y="422"/>
      <point x="935" y="447"/>
      <point x="929" y="468" type="curve"/>
      <point x="146" y="468" type="line"/>
      <point x="141" y="448"/>
      <point x="138" y="423"/>
      <point x="138" y="396" type="curve" smooth="yes"/>
      <point x="138" y="368"/>
      <point x="141" y="345"/>
    </contour>
    <contour>
      <point x="146" y="624" type="curve"/>
      <point x="419" y="624" type="line"/>
      <point x="419" y="770" type="line"/>
      <point x="146" y="770" type="line"/>
      <point x="141" y="749"/>
      <point x="138" y="724"/>
      <point x="138" y="697" type="curve" smooth="yes"/>
      <point x="138" y="670"/>
      <point x="141" y="644"/>
    </contour>
    <contour>
      <point x="656" y="624" type="line"/>
      <point x="929" y="624" type="line"/>
      <point x="935" y="646"/>
      <point x="938" y="672"/>
      <point x="938" y="697" type="curve" smooth="yes"/>
      <point x="938" y="725"/>
      <point x="934" y="751"/>
      <point x="929" y="770" type="curve"/>
      <point x="656" y="770" type="line"/>
    </contour>
  </outline>
</glyph>
<glyph name="brokenbar" format="2">
  <advance width="499"/>
  <unicode hex="00A6"/>
  <outline>
    <contour>
      <point x="153" y="493" type="curve"/>
      <point x="153" y="-281" type="line"/>
      <point x="182" y="-288"/>
      <point x="223" y="-290"/>
      <point x="250" y="-290" type="curve" smooth="yes"/>
      <point x="280" y="-290"/>
      <point x="315" y="-288"/>
      <point x="346" y="-281" type="curve"/>
      <point x="346" y="493" type="line"/>
      <point x="315" y="499"/>
      <point x="280" y="501"/>
      <point x="250" y="501" type="curve" smooth="yes"/>
      <point x="223" y="501"/>
      <point x="182" y="499"/>
    </contour>
    <contour>
      <point x="153" y="1549" type="curve"/>
      <point x="153" y="775" type="line"/>
      <point x="182" y="768"/>
      <point x="223" y="766"/>
      <point x="250" y="766" type="curve" smooth="yes"/>
      <point x="280" y="766"/>
      <point x="315" y="768"/>
      <point x="346" y="775" type="curve"/>
      <point x="346" y="1549" type="line"/>
      <point x="315" y="1555"/>
      <point x="280" y="1557"/>
      <point x="250" y="1557" type="curve" smooth="yes"/>
      <point x="223" y="1557"/>
      <point x="182" y="1555"/>
    </contour>
  </outline>
</glyph>
<glyph name="section" format="2">
  <advance width="971"/>
  <unicode hex="00A7"/>
  <outline>
    <contour>
      <point x="509" y="366" type="curve"/>
      <point x="579" y="262" type="line"/>
      <point x="751" y="315"/>
      <point x="910" y="443"/>
      <point x="910" y="609" type="curve" smooth="yes"/>
      <point x="910" y="788"/>
      <point x="757" y="873"/>
      <point x="588" y="941" type="curve" smooth="yes"/>
      <point x="471" y="988" type="line" smooth="yes"/>
      <point x="392" y="1020"/>
      <point x="346" y="1056"/>
      <point x="346" y="1116" type="curve" smooth="yes"/>
      <point x="346" y="1188"/>
      <point x="409" y="1234"/>
      <point x="498" y="1234" type="curve" smooth="yes"/>
      <point x="587" y="1234"/>
      <point x="677" y="1203"/>
      <point x="747" y="1172" type="curve"/>
      <point x="784" y="1203"/>
      <point x="810" y="1270"/>
      <point x="808" y="1322" type="curve"/>
      <point x="725" y="1361"/>
      <point x="602" y="1392"/>
      <point x="495" y="1392" type="curve" smooth="yes"/>
      <point x="292" y="1392"/>
      <point x="138" y="1273"/>
      <point x="138" y="1101" type="curve" smooth="yes"/>
      <point x="138" y="947"/>
      <point x="255" y="859"/>
      <point x="394" y="804" type="curve" smooth="yes"/>
      <point x="498" y="763" type="line" smooth="yes"/>
      <point x="607" y="721"/>
      <point x="705" y="669"/>
      <point x="705" y="577" type="curve" smooth="yes"/>
      <point x="705" y="476"/>
      <point x="610" y="403"/>
    </contour>
    <contour>
      <point x="465" y="812" type="curve"/>
      <point x="394" y="915" type="line"/>
      <point x="222" y="862"/>
      <point x="64" y="735"/>
      <point x="64" y="569" type="curve" smooth="yes"/>
      <point x="64" y="390"/>
      <point x="217" y="304"/>
      <point x="386" y="236" type="curve" smooth="yes"/>
      <point x="502" y="189" type="line" smooth="yes"/>
      <point x="582" y="158"/>
      <point x="628" y="120"/>
      <point x="628" y="60" type="curve" smooth="yes"/>
      <point x="628" y="-13"/>
      <point x="565" y="-58"/>
      <point x="468" y="-58" type="curve" smooth="yes"/>
      <point x="360" y="-58"/>
      <point x="265" y="-18"/>
      <point x="198" y="15" type="curve"/>
      <point x="163" y="-12"/>
      <point x="130" y="-81"/>
      <point x="132" y="-132" type="curve"/>
      <point x="215" y="-184"/>
      <point x="350" y="-216"/>
      <point x="464" y="-216" type="curve" smooth="yes"/>
      <point x="683" y="-216"/>
      <point x="836" y="-97"/>
      <point x="836" y="75" type="curve" smooth="yes"/>
      <point x="836" y="229"/>
      <point x="718" y="319"/>
      <point x="580" y="374" type="curve" smooth="yes"/>
      <point x="476" y="414" type="line" smooth="yes"/>
      <point x="363" y="458"/>
      <point x="269" y="508"/>
      <point x="269" y="601" type="curve" smooth="yes"/>
      <point x="269" y="702"/>
      <point x="363" y="774"/>
    </contour>
  </outline>
</glyph>
<glyph name="copyright" format="2">
  <advance width="1605"/>
  <unicode hex="00A9"/>
  <outline>
    <contour>
      <point x="80" y="682" type="curve" smooth="yes"/>
      <point x="80" y="275"/>
      <point x="394" y="-39"/>
      <point x="801" y="-39" type="curve" smooth="yes"/>
      <point x="1209" y="-39"/>
      <point x="1524" y="275"/>
      <point x="1524" y="682" type="curve" smooth="yes"/>
      <point x="1524" y="1089"/>
      <point x="1209" y="1405"/>
      <point x="801" y="1405" type="curve" smooth="yes"/>
      <point x="394" y="1405"/>
      <point x="80" y="1089"/>
    </contour>
    <contour>
      <point x="253" y="682" type="curve" smooth="yes"/>
      <point x="253" y="999"/>
      <point x="483" y="1257"/>
      <point x="801" y="1257" type="curve" smooth="yes"/>
      <point x="1119" y="1257"/>
      <point x="1351" y="999"/>
      <point x="1351" y="682" type="curve" smooth="yes"/>
      <point x="1351" y="365"/>
      <point x="1119" y="109"/>
      <point x="801" y="109" type="curve" smooth="yes"/>
      <point x="483" y="109"/>
      <point x="253" y="365"/>
    </contour>
    <contour>
      <point x="944" y="760" type="curve"/>
      <point x="962" y="753"/>
      <point x="987" y="749"/>
      <point x="1013" y="749" type="curve" smooth="yes"/>
      <point x="1079" y="749"/>
      <point x="1105" y="788"/>
      <point x="1105" y="843" type="curve" smooth="yes"/>
      <point x="1105" y="951"/>
      <point x="1003" y="1082"/>
      <point x="807" y="1082" type="curve" smooth="yes"/>
      <point x="636" y="1082"/>
      <point x="456" y="961"/>
      <point x="456" y="683" type="curve" smooth="yes"/>
      <point x="456" y="460"/>
      <point x="568" y="286"/>
      <point x="800" y="286" type="curve" smooth="yes"/>
      <point x="908" y="286"/>
      <point x="1029" y="338"/>
      <point x="1095" y="407" type="curve"/>
      <point x="1085" y="443"/>
      <point x="1055" y="487"/>
      <point x="1023" y="505" type="curve"/>
      <point x="966" y="461"/>
      <point x="892" y="425"/>
      <point x="825" y="425" type="curve" smooth="yes"/>
      <point x="706" y="425"/>
      <point x="634" y="516"/>
      <point x="634" y="683" type="curve" smooth="yes"/>
      <point x="634" y="857"/>
      <point x="697" y="948"/>
      <point x="801" y="948" type="curve" smooth="yes"/>
      <point x="914" y="948"/>
      <point x="949" y="849"/>
    </contour>
  </outline>
</glyph>
<glyph name="ordfeminine" format="2">
  <advance width="848"/>
  <unicode hex="00AA"/>
  <outline>
    <contour>
      <point x="79" y="717" type="curve" smooth="yes"/>
      <point x="79" y="600"/>
      <point x="160" y="485"/>
      <point x="317" y="485" type="curve" smooth="yes"/>
      <point x="458" y="485"/>
      <point x="560" y="581"/>
      <point x="619" y="651" type="curve"/>
      <point x="590" y="779" type="line"/>
      <point x="531" y="680"/>
      <point x="430" y="620"/>
      <point x="357" y="620" type="curve" smooth="yes"/>
      <point x="293" y="620"/>
      <point x="255" y="670"/>
      <point x="255" y="729" type="curve" smooth="yes"/>
      <point x="255" y="805"/>
      <point x="307" y="852"/>
      <point x="392" y="852" type="curve" smooth="yes"/>
      <point x="457" y="852"/>
      <point x="535" y="846"/>
      <point x="595" y="837" type="curve"/>
      <point x="595" y="959" type="line"/>
      <point x="528" y="968"/>
      <point x="446" y="974"/>
      <point x="384" y="974" type="curve" smooth="yes"/>
      <point x="208" y="974"/>
      <point x="79" y="895"/>
    </contour>
    <contour>
      <point x="757" y="584" type="curve"/>
      <point x="717" y="614"/>
      <point x="709" y="660"/>
      <point x="709" y="720" type="curve" smooth="yes"/>
      <point x="709" y="1029" type="line" smooth="yes"/>
      <point x="709" y="1209"/>
      <point x="602" y="1292"/>
      <point x="445" y="1292" type="curve" smooth="yes"/>
      <point x="334" y="1292"/>
      <point x="201" y="1258"/>
      <point x="111" y="1219" type="curve"/>
      <point x="112" y="1171"/>
      <point x="135" y="1121"/>
      <point x="162" y="1094" type="curve"/>
      <point x="250" y="1128"/>
      <point x="328" y="1149"/>
      <point x="413" y="1149" type="curve" smooth="yes"/>
      <point x="481" y="1149"/>
      <point x="532" y="1112"/>
      <point x="532" y="1022" type="curve" smooth="yes"/>
      <point x="532" y="700" type="line" smooth="yes"/>
      <point x="532" y="586"/>
      <point x="585" y="510"/>
      <point x="684" y="492" type="curve"/>
      <point x="719" y="509"/>
      <point x="751" y="551"/>
    </contour>
  </outline>
</glyph>
<glyph name="logicalnot" format="2">
  <advance width="1080"/>
  <unicode hex="00AC"/>
  <outline>
    <contour>
      <point x="113" y="728" type="curve"/>
      <point x="943" y="728" type="line"/>
      <point x="956" y="715" type="line"/>
      <point x="956" y="549" type="line"/>
      <point x="776" y="551" type="line" smooth="yes"/>
      <point x="744" y="551"/>
      <point x="704" y="549"/>
      <point x="671" y="549" type="curve" smooth="yes"/>
      <point x="113" y="549" type="line"/>
      <point x="106" y="577"/>
      <point x="104" y="612"/>
      <point x="104" y="638" type="curve" smooth="yes"/>
      <point x="104" y="666"/>
      <point x="106" y="699"/>
    </contour>
    <contour>
      <point x="768" y="567" type="curve" smooth="yes"/>
      <point x="766" y="634" type="line"/>
      <point x="956" y="634" type="line"/>
      <point x="956" y="270" type="line"/>
      <point x="929" y="264"/>
      <point x="896" y="262"/>
      <point x="863" y="262" type="curve" smooth="yes"/>
      <point x="828" y="262"/>
      <point x="799" y="264"/>
      <point x="766" y="270" type="curve"/>
      <point x="766" y="459" type="line" smooth="yes"/>
      <point x="766" y="492"/>
      <point x="769" y="535"/>
    </contour>
  </outline>
</glyph>
<glyph name="registered" format="2">
  <advance width="1186"/>
  <unicode hex="00AE"/>
  <outline>
    <contour>
      <point x="69" y="962" type="curve" smooth="yes"/>
      <point x="69" y="668"/>
      <point x="298" y="438"/>
      <point x="592" y="438" type="curve" smooth="yes"/>
      <point x="885" y="438"/>
      <point x="1117" y="668"/>
      <point x="1117" y="962" type="curve" smooth="yes"/>
      <point x="1117" y="1255"/>
      <point x="885" y="1487"/>
      <point x="592" y="1487" type="curve" smooth="yes"/>
      <point x="298" y="1487"/>
      <point x="69" y="1255"/>
    </contour>
    <contour>
      <point x="206" y="962" type="curve" smooth="yes"/>
      <point x="206" y="1182"/>
      <point x="372" y="1362"/>
      <point x="592" y="1362" type="curve" smooth="yes"/>
      <point x="813" y="1362"/>
      <point x="980" y="1182"/>
      <point x="980" y="962" type="curve" smooth="yes"/>
      <point x="980" y="741"/>
      <point x="813" y="564"/>
      <point x="592" y="564" type="curve" smooth="yes"/>
      <point x="372" y="564"/>
      <point x="206" y="741"/>
    </contour>
    <contour>
      <point x="796" y="1073" type="curve" smooth="yes"/>
      <point x="796" y="1161"/>
      <point x="737" y="1222"/>
      <point x="604" y="1222" type="curve" smooth="yes"/>
      <point x="545" y="1222"/>
      <point x="469" y="1220"/>
      <point x="403" y="1218" type="curve"/>
      <point x="397" y="1212" type="line"/>
      <point x="397" y="718" type="line"/>
      <point x="415" y="713"/>
      <point x="437" y="711"/>
      <point x="459" y="711" type="curve" smooth="yes"/>
      <point x="481" y="711"/>
      <point x="503" y="713"/>
      <point x="520" y="718" type="curve"/>
      <point x="520" y="1128" type="line"/>
      <point x="539" y="1128"/>
      <point x="572" y="1128"/>
      <point x="597" y="1128" type="curve" smooth="yes"/>
      <point x="648" y="1128"/>
      <point x="670" y="1098"/>
      <point x="670" y="1064" type="curve" smooth="yes"/>
      <point x="670" y="1027"/>
      <point x="647" y="998"/>
      <point x="589" y="998" type="curve" smooth="yes"/>
      <point x="562" y="998"/>
      <point x="498" y="997"/>
      <point x="464" y="996" type="curve"/>
      <point x="464" y="901" type="line"/>
      <point x="564" y="901" type="line" smooth="yes"/>
      <point x="596" y="901"/>
      <point x="612" y="886"/>
      <point x="625" y="862" type="curve" smooth="yes"/>
      <point x="673" y="769" type="line" smooth="yes"/>
      <point x="693" y="730"/>
      <point x="713" y="708"/>
      <point x="748" y="708" type="curve" smooth="yes"/>
      <point x="784" y="708"/>
      <point x="817" y="729"/>
      <point x="833" y="754" type="curve"/>
      <point x="815" y="766"/>
      <point x="801" y="787"/>
      <point x="789" y="810" type="curve" smooth="yes"/>
      <point x="761" y="862" type="line" smooth="yes"/>
      <point x="736" y="909"/>
      <point x="723" y="928"/>
      <point x="695" y="940" type="curve"/>
      <point x="745" y="955"/>
      <point x="796" y="997"/>
    </contour>
  </outline>
</glyph>
<glyph name="degree" format="2">
  <advance width="741"/>
  <unicode hex="00B0"/>
  <outline>
    <contour>
      <point x="59" y="978" type="curve" smooth="yes"/>
      <point x="59" y="798"/>
      <point x="192" y="664"/>
      <point x="371" y="664" type="curve" smooth="yes"/>
      <point x="549" y="664"/>
      <point x="682" y="798"/>
      <point x="682" y="978" type="curve" smooth="yes"/>
      <point x="682" y="1158"/>
      <point x="549" y="1292"/>
      <point x="371" y="1292" type="curve" smooth="yes"/>
      <point x="192" y="1292"/>
      <point x="59" y="1158"/>
    </contour>
    <contour>
      <point x="217" y="978" type="curve" smooth="yes"/>
      <point x="217" y="1078"/>
      <point x="276" y="1151"/>
      <point x="371" y="1151" type="curve" smooth="yes"/>
      <point x="463" y="1151"/>
      <point x="523" y="1078"/>
      <point x="523" y="978" type="curve" smooth="yes"/>
      <point x="523" y="877"/>
      <point x="463" y="805"/>
      <point x="371" y="805" type="curve" smooth="yes"/>
      <point x="276" y="805"/>
      <point x="217" y="877"/>
    </contour>
  </outline>
</glyph>
<glyph name="plusminus" format="2">
  <advance width="1080"/>
  <unicode hex="00B1"/>
  <outline>
    <contour>
      <point x="144" y="774" type="curve"/>
      <point x="353" y="774" type="line" smooth="yes"/>
      <point x="385" y="774"/>
      <point x="425" y="772"/>
      <point x="457" y="772" type="curve" smooth="yes"/>
      <point x="623" y="772" type="line" smooth="yes"/>
      <point x="655" y="772"/>
      <point x="695" y="774"/>
      <point x="727" y="774" type="curve" smooth="yes"/>
      <point x="936" y="774" type="line"/>
      <point x="942" y="745"/>
      <point x="944" y="724"/>
      <point x="944" y="691" type="curve" smooth="yes"/>
      <point x="944" y="657"/>
      <point x="942" y="635"/>
      <point x="936" y="606" type="curve"/>
      <point x="727" y="606" type="line" smooth="yes"/>
      <point x="695" y="606"/>
      <point x="655" y="608"/>
      <point x="623" y="608" type="curve" smooth="yes"/>
      <point x="457" y="608" type="line" smooth="yes"/>
      <point x="425" y="608"/>
      <point x="385" y="606"/>
      <point x="353" y="606" type="curve" smooth="yes"/>
      <point x="144" y="606" type="line"/>
      <point x="138" y="635"/>
      <point x="136" y="657"/>
      <point x="136" y="691" type="curve" smooth="yes"/>
      <point x="136" y="724"/>
      <point x="138" y="745"/>
    </contour>
    <contour>
      <point x="447" y="872" type="curve" smooth="yes"/>
      <point x="447" y="1083" type="line"/>
      <point x="476" y="1089"/>
      <point x="507" y="1091"/>
      <point x="541" y="1091" type="curve" smooth="yes"/>
      <point x="573" y="1091"/>
      <point x="606" y="1089"/>
      <point x="634" y="1083" type="curve"/>
      <point x="634" y="872" type="line" smooth="yes"/>
      <point x="634" y="839"/>
      <point x="632" y="796"/>
      <point x="632" y="765" type="curve" smooth="yes"/>
      <point x="632" y="616" type="line" smooth="yes"/>
      <point x="632" y="584"/>
      <point x="634" y="542"/>
      <point x="634" y="509" type="curve" smooth="yes"/>
      <point x="634" y="303" type="line"/>
      <point x="606" y="297"/>
      <point x="573" y="295"/>
      <point x="541" y="295" type="curve" smooth="yes"/>
      <point x="507" y="295"/>
      <point x="476" y="297"/>
      <point x="447" y="303" type="curve"/>
      <point x="447" y="509" type="line" smooth="yes"/>
      <point x="447" y="542"/>
      <point x="449" y="584"/>
      <point x="449" y="616" type="curve" smooth="yes"/>
      <point x="449" y="765" type="line" smooth="yes"/>
      <point x="449" y="796"/>
      <point x="447" y="839"/>
    </contour>
    <contour>
      <point x="144" y="0" type="curve"/>
      <point x="936" y="0" type="line"/>
      <point x="942" y="31"/>
      <point x="944" y="54"/>
      <point x="944" y="86" type="curve" smooth="yes"/>
      <point x="944" y="121"/>
      <point x="942" y="140"/>
      <point x="936" y="172" type="curve"/>
      <point x="144" y="172" type="line"/>
      <point x="138" y="140"/>
      <point x="136" y="121"/>
      <point x="136" y="86" type="curve" smooth="yes"/>
      <point x="136" y="54"/>
      <point x="138" y="31"/>
    </contour>
  </outline>
</glyph>
<glyph name="twosuperior" format="2">
  <advance width="834"/>
  <unicode hex="00B2"/>
  <outline>
    <contour>
      <point x="121" y="1293" type="curve"/>
      <point x="143" y="1263"/>
      <point x="210" y="1235"/>
      <point x="255" y="1231" type="curve"/>
      <point x="280" y="1296"/>
      <point x="327" y="1346"/>
      <point x="390" y="1346" type="curve" smooth="yes"/>
      <point x="453" y="1347"/>
      <point x="496" y="1302"/>
      <point x="496" y="1238" type="curve" smooth="yes"/>
      <point x="496" y="1168"/>
      <point x="443" y="1120"/>
      <point x="392" y="1080" type="curve" smooth="yes"/>
      <point x="266" y="983" type="line" smooth="yes"/>
      <point x="180" y="917"/>
      <point x="109" y="826"/>
      <point x="109" y="751" type="curve" smooth="yes"/>
      <point x="109" y="717"/>
      <point x="123" y="691"/>
      <point x="167" y="642" type="curve"/>
      <point x="286" y="642" type="line"/>
      <point x="286" y="747" type="line" smooth="yes"/>
      <point x="286" y="790"/>
      <point x="333" y="838"/>
      <point x="416" y="899" type="curve" smooth="yes"/>
      <point x="511" y="968" type="line" smooth="yes"/>
      <point x="581" y="1019"/>
      <point x="678" y="1102"/>
      <point x="678" y="1240" type="curve" smooth="yes"/>
      <point x="678" y="1385"/>
      <point x="570" y="1499"/>
      <point x="405" y="1499" type="curve" smooth="yes"/>
      <point x="256" y="1499"/>
      <point x="156" y="1406"/>
    </contour>
    <contour>
      <point x="702" y="799" type="curve"/>
      <point x="486" y="799" type="line" smooth="yes"/>
      <point x="371" y="799"/>
      <point x="249" y="786"/>
      <point x="167" y="750" type="curve"/>
      <point x="189" y="642" type="line"/>
      <point x="600" y="642" type="line" smooth="yes"/>
      <point x="665" y="642"/>
      <point x="702" y="666"/>
    </contour>
  </outline>
</glyph>
<glyph name="threesuperior" format="2">
  <advance width="834"/>
  <unicode hex="00B3"/>
  <outline>
    <contour>
      <point x="520" y="912" type="curve" smooth="yes"/>
      <point x="520" y="823"/>
      <point x="458" y="772"/>
      <point x="370" y="772" type="curve" smooth="yes"/>
      <point x="294" y="772"/>
      <point x="229" y="800"/>
      <point x="175" y="837" type="curve"/>
      <point x="143" y="810"/>
      <point x="114" y="762"/>
      <point x="106" y="715" type="curve"/>
      <point x="166" y="666"/>
      <point x="263" y="629"/>
      <point x="378" y="629" type="curve" smooth="yes"/>
      <point x="538" y="629"/>
      <point x="700" y="720"/>
      <point x="700" y="910" type="curve" smooth="yes"/>
      <point x="700" y="1069"/>
      <point x="584" y="1164"/>
      <point x="453" y="1164" type="curve" smooth="yes"/>
      <point x="387" y="1164"/>
      <point x="301" y="1147"/>
      <point x="233" y="1124" type="curve"/>
      <point x="240" y="1083"/>
      <point x="270" y="1043"/>
      <point x="301" y="1029" type="curve"/>
      <point x="325" y="1042"/>
      <point x="356" y="1048"/>
      <point x="384" y="1048" type="curve" smooth="yes"/>
      <point x="457" y="1048"/>
      <point x="520" y="1001"/>
    </contour>
    <contour>
      <point x="523" y="1206" type="curve" smooth="yes"/>
      <point x="626" y="1311" type="line"/>
      <point x="652" y="1334"/>
      <point x="665" y="1355"/>
      <point x="665" y="1385" type="curve" smooth="yes"/>
      <point x="665" y="1416"/>
      <point x="647" y="1456"/>
      <point x="631" y="1485" type="curve"/>
      <point x="150" y="1485" type="line"/>
      <point x="139" y="1458"/>
      <point x="136" y="1427"/>
      <point x="136" y="1405" type="curve" smooth="yes"/>
      <point x="136" y="1386"/>
      <point x="139" y="1363"/>
      <point x="144" y="1338" type="curve"/>
      <point x="304" y="1338" type="line" smooth="yes"/>
      <point x="349" y="1338"/>
      <point x="424" y="1341"/>
      <point x="458" y="1348" type="curve"/>
      <point x="463" y="1342" type="line"/>
      <point x="438" y="1326"/>
      <point x="408" y="1298"/>
      <point x="388" y="1279" type="curve" smooth="yes"/>
      <point x="233" y="1124" type="line"/>
      <point x="330" y="1092" type="line"/>
      <point x="399" y="1117"/>
      <point x="480" y="1165"/>
    </contour>
  </outline>
</glyph>
<glyph name="micro" format="2">
  <advance width="1108"/>
  <unicode hex="00B5"/>
  <outline>
    <contour>
      <point x="229" y="456" type="line"/>
      <point x="359" y="456" type="line"/>
      <point x="359" y="359" type="line" smooth="yes"/>
      <point x="359" y="233"/>
      <point x="429" y="160"/>
      <point x="537" y="160" type="curve" smooth="yes"/>
      <point x="646" y="160"/>
      <point x="733" y="242"/>
      <point x="788" y="363" type="curve"/>
      <point x="798" y="170" type="line"/>
      <point x="744" y="62"/>
      <point x="646" y="-19"/>
      <point x="513" y="-19" type="curve" smooth="yes"/>
      <point x="338" y="-19"/>
      <point x="229" y="131"/>
      <point x="229" y="319" type="curve" smooth="yes"/>
    </contour>
    <contour>
      <point x="947" y="987" type="curve"/>
      <point x="947" y="280" type="line" smooth="yes"/>
      <point x="947" y="203"/>
      <point x="960" y="129"/>
      <point x="1003" y="90" type="curve"/>
      <point x="993" y="53"/>
      <point x="960" y="6"/>
      <point x="926" y="-15" type="curve"/>
      <point x="794" y="11"/>
      <point x="741" y="123"/>
      <point x="741" y="251" type="curve" smooth="yes"/>
      <point x="741" y="987" type="line"/>
      <point x="769" y="993"/>
      <point x="807" y="995"/>
      <point x="844" y="995" type="curve" smooth="yes"/>
      <point x="881" y="995"/>
      <point x="919" y="993"/>
    </contour>
    <contour>
      <point x="359" y="987" type="curve"/>
      <point x="359" y="158" type="line"/>
      <point x="349" y="158" type="line"/>
      <point x="349" y="-298" type="line" smooth="yes"/>
      <point x="349" y="-384"/>
      <point x="331" y="-437"/>
      <point x="249" y="-437" type="curve" smooth="yes"/>
      <point x="200" y="-437"/>
      <point x="156" y="-422"/>
      <point x="123" y="-395" type="curve"/>
      <point x="150" y="-345"/>
      <point x="156" y="-271"/>
      <point x="156" y="-213" type="curve" smooth="yes"/>
      <point x="156" y="987" type="line"/>
      <point x="184" y="993"/>
      <point x="220" y="995"/>
      <point x="257" y="995" type="curve" smooth="yes"/>
      <point x="294" y="995"/>
      <point x="330" y="993"/>
    </contour>
  </outline>
</glyph>
<glyph name="paragraph" format="2">
  <advance width="1342"/>
  <unicode hex="00B6"/>
  <outline>
    <contour>
      <point x="574" y="120" type="curve" smooth="yes"/>
      <point x="574" y="503" type="line"/>
      <point x="536" y="503" type="line" smooth="yes"/>
      <point x="276" y="503"/>
      <point x="84" y="650"/>
      <point x="84" y="941" type="curve" smooth="yes"/>
      <point x="84" y="1240"/>
      <point x="278" y="1375"/>
      <point x="543" y="1375" type="curve" smooth="yes"/>
      <point x="627" y="1375"/>
      <point x="684" y="1372"/>
      <point x="771" y="1368" type="curve"/>
      <point x="784" y="1355" type="line"/>
      <point x="784" y="155" type="line" smooth="yes"/>
      <point x="784" y="-143"/>
      <point x="697" y="-311"/>
      <point x="401" y="-311" type="curve" smooth="yes"/>
      <point x="304" y="-311"/>
      <point x="197" y="-286"/>
      <point x="140" y="-264" type="curve"/>
      <point x="139" y="-218"/>
      <point x="160" y="-145"/>
      <point x="190" y="-105" type="curve"/>
      <point x="244" y="-126"/>
      <point x="319" y="-148"/>
      <point x="382" y="-148" type="curve" smooth="yes"/>
      <point x="540" y="-148"/>
      <point x="574" y="-55"/>
    </contour>
    <contour>
      <point x="914" y="1353" type="line"/>
      <point x="914" y="-265" type="line"/>
      <point x="945" y="-272"/>
      <point x="989" y="-274"/>
      <point x="1020" y="-274" type="curve" smooth="yes"/>
      <point x="1054" y="-274"/>
      <point x="1093" y="-272"/>
      <point x="1126" y="-265" type="curve"/>
      <point x="1126" y="1366" type="line"/>
      <point x="927" y="1366" type="line"/>
    </contour>
    <contour>
      <point x="1022" y="1366" type="line"/>
      <point x="1022" y="1187" type="line"/>
      <point x="1093" y="1187" type="line" smooth="yes"/>
      <point x="1126" y="1187"/>
      <point x="1167" y="1183"/>
      <point x="1207" y="1183" type="curve" smooth="yes"/>
      <point x="1286" y="1183" type="line"/>
      <point x="1300" y="1225"/>
      <point x="1300" y="1324"/>
      <point x="1286" y="1366" type="curve"/>
    </contour>
  </outline>
</glyph>
<glyph name="onesuperior" format="2">
  <advance width="834"/>
  <unicode hex="00B9"/>
  <outline>
    <contour>
      <point x="545" y="716" type="line"/>
      <point x="545" y="1483" type="line"/>
      <point x="512" y="1489"/>
      <point x="490" y="1492"/>
      <point x="464" y="1492" type="curve" smooth="yes"/>
      <point x="438" y="1492"/>
      <point x="409" y="1489"/>
      <point x="380" y="1483" type="curve"/>
      <point x="381" y="1299" type="line" smooth="yes"/>
      <point x="381" y="1238"/>
      <point x="373" y="1152"/>
      <point x="373" y="1107" type="curve" smooth="yes"/>
      <point x="373" y="716" type="line"/>
    </contour>
    <contour>
      <point x="277" y="788" type="curve" smooth="yes"/>
      <point x="171" y="788" type="line"/>
      <point x="166" y="765"/>
      <point x="163" y="738"/>
      <point x="163" y="715" type="curve" smooth="yes"/>
      <point x="163" y="691"/>
      <point x="166" y="668"/>
      <point x="171" y="642" type="curve"/>
      <point x="708" y="642" type="line"/>
      <point x="715" y="667"/>
      <point x="717" y="693"/>
      <point x="717" y="715" type="curve" smooth="yes"/>
      <point x="717" y="740"/>
      <point x="714" y="765"/>
      <point x="708" y="788" type="curve"/>
      <point x="645" y="788" type="line" smooth="yes"/>
      <point x="622" y="788"/>
      <point x="567" y="787"/>
      <point x="545" y="787" type="curve" smooth="yes"/>
      <point x="373" y="787" type="line" smooth="yes"/>
      <point x="350" y="787"/>
      <point x="301" y="788"/>
    </contour>
    <contour>
      <point x="118" y="1210" type="curve"/>
      <point x="125" y="1167"/>
      <point x="155" y="1118"/>
      <point x="195" y="1099" type="curve"/>
      <point x="321" y="1156"/>
      <point x="407" y="1235"/>
      <point x="443" y="1360" type="curve"/>
      <point x="380" y="1483" type="line"/>
      <point x="328" y="1371"/>
      <point x="257" y="1291"/>
    </contour>
  </outline>
</glyph>
<glyph name="ordmasculine" format="2">
  <advance width="825"/>
  <unicode hex="00BA"/>
  <outline>
    <contour>
      <point x="754" y="889" type="curve" smooth="yes"/>
      <point x="754" y="1011"/>
      <point x="722" y="1124"/>
      <point x="641" y="1209" type="curve" smooth="yes"/>
      <point x="587" y="1266"/>
      <point x="503" y="1292"/>
      <point x="412" y="1292" type="curve" smooth="yes"/>
      <point x="321" y="1292"/>
      <point x="241" y="1263"/>
      <point x="184" y="1209" type="curve" smooth="yes"/>
      <point x="99" y="1128"/>
      <point x="71" y="1011"/>
      <point x="71" y="889" type="curve" smooth="yes"/>
      <point x="71" y="764"/>
      <point x="103" y="651"/>
      <point x="184" y="567" type="curve" smooth="yes"/>
      <point x="239" y="511"/>
      <point x="321" y="484"/>
      <point x="412" y="484" type="curve" smooth="yes"/>
      <point x="503" y="484"/>
      <point x="584" y="513"/>
      <point x="641" y="567" type="curve" smooth="yes"/>
      <point x="725" y="647"/>
      <point x="754" y="764"/>
    </contour>
    <contour>
      <point x="251" y="889" type="curve" smooth="yes"/>
      <point x="251" y="1031"/>
      <point x="292" y="1153"/>
      <point x="413" y="1153" type="curve" smooth="yes"/>
      <point x="534" y="1153"/>
      <point x="575" y="1031"/>
      <point x="575" y="889" type="curve" smooth="yes"/>
      <point x="575" y="746"/>
      <point x="534" y="624"/>
      <point x="413" y="624" type="curve" smooth="yes"/>
      <point x="292" y="624"/>
      <point x="251" y="746"/>
    </contour>
  </outline>
</glyph>
<glyph name="Aring" format="2">
  <advance width="1223"/>
  <unicode hex="00C5"/>
  <anchor x="614" y="0" name="bottom"/>
  <anchor x="1183" y="13" name="ogonek"/>
  <anchor x="613" y="1826" name="top"/>
  <outline>
    <contour>
      <point x="493" y="1372" type="line"/>
      <point x="40" y="14" type="line"/>
      <point x="46" y="4" type="line"/>
      <point x="74" y="-5"/>
      <point x="112" y="-10"/>
      <point x="150" y="-10" type="curve" smooth="yes"/>
      <point x="182" y="-10"/>
      <point x="215" y="-8"/>
      <point x="242" y="-2" type="curve"/>
      <point x="518" y="866" type="line" smooth="yes"/>
      <point x="539" y="939"/>
      <point x="576" y="1066"/>
      <point x="596" y="1155" type="curve"/>
      <point x="607" y="1155" type="line"/>
      <point x="634" y="1050"/>
      <point x="675" y="910"/>
      <point x="711" y="794" type="curve" smooth="yes"/>
      <point x="932" y="99" type="line" smooth="yes"/>
      <point x="959" y="10"/>
      <point x="991" y="-14"/>
      <point x="1059" y="-14" type="curve" smooth="yes"/>
      <point x="1104" y="-14"/>
      <point x="1152" y="-5"/>
      <point x="1183" y="13" type="curve"/>
      <point x="733" y="1372" type="line"/>
    </contour>
    <contour>
      <point x="464" y="330" type="curve" smooth="yes"/>
      <point x="739" y="330" type="line" smooth="yes"/>
      <point x="757" y="330"/>
      <point x="854" y="332"/>
      <point x="874" y="332" type="curve" smooth="yes"/>
      <point x="972" y="332" type="line"/>
      <point x="915" y="505" type="line"/>
      <point x="826" y="505" type="line" smooth="yes"/>
      <point x="807" y="505"/>
      <point x="722" y="507"/>
      <point x="704" y="507" type="curve" smooth="yes"/>
      <point x="505" y="507" type="line" smooth="yes"/>
      <point x="486" y="507"/>
      <point x="405" y="505"/>
      <point x="385" y="505" type="curve" smooth="yes"/>
      <point x="298" y="505" type="line"/>
      <point x="232" y="332" type="line"/>
      <point x="330" y="332" type="line" smooth="yes"/>
      <point x="350" y="332"/>
      <point x="446" y="330"/>
    </contour>
    <contour>
      <point x="372" y="1561" type="curve" smooth="yes"/>
      <point x="372" y="1437"/>
      <point x="471" y="1335"/>
      <point x="613" y="1335" type="curve" smooth="yes"/>
      <point x="756" y="1335"/>
      <point x="855" y="1437"/>
      <point x="855" y="1561" type="curve" smooth="yes"/>
      <point x="855" y="1686"/>
      <point x="756" y="1788"/>
      <point x="613" y="1788" type="curve" smooth="yes"/>
      <point x="471" y="1788"/>
      <point x="372" y="1686"/>
    </contour>
    <contour>
      <point x="513" y="1561" type="curve" smooth="yes"/>
      <point x="513" y="1624"/>
      <point x="555" y="1670"/>
      <point x="613" y="1670" type="curve" smooth="yes"/>
      <point x="672" y="1670"/>
      <point x="714" y="1624"/>
      <point x="714" y="1561" type="curve" smooth="yes"/>
      <point x="714" y="1499"/>
      <point x="672" y="1452"/>
      <point x="613" y="1452" type="curve" smooth="yes"/>
      <point x="555" y="1452"/>
      <point x="513" y="1499"/>
    </contour>
  </outline>
</glyph>
<glyph name="AE" format="2">
  <advance width="1753"/>
  <unicode hex="00C6"/>
  <anchor x="924" y="1464" name="top"/>
  <outline>
    <contour>
      <point x="687" y="1346" type="curve"/>
      <point x="30" y="15" type="line"/>
      <point x="37" y="5" type="line"/>
      <point x="66" y="-5"/>
      <point x="103" y="-9"/>
      <point x="143" y="-9" type="curve" smooth="yes"/>
      <point x="175" y="-9"/>
      <point x="216" y="-8"/>
      <point x="247" y="-1" type="curve"/>
      <point x="666" y="866" type="line" smooth="yes"/>
      <point x="706" y="951"/>
      <point x="755" y="1063"/>
      <point x="791" y="1155" type="curve"/>
      <point x="802" y="1155" type="line"/>
      <point x="965" y="1366" type="line"/>
      <point x="814" y="1366" type="line"/>
      <point x="776" y="1366"/>
      <point x="719" y="1361"/>
    </contour>
    <contour>
      <point x="514" y="330" type="curve" smooth="yes"/>
      <point x="693" y="330" type="line" smooth="yes"/>
      <point x="724" y="330"/>
      <point x="795" y="332"/>
      <point x="822" y="332" type="curve" smooth="yes"/>
      <point x="897" y="332" type="line"/>
      <point x="897" y="503" type="line"/>
      <point x="822" y="503" type="line" smooth="yes"/>
      <point x="796" y="503"/>
      <point x="725" y="505"/>
      <point x="693" y="505" type="curve" smooth="yes"/>
      <point x="571" y="505" type="line" smooth="yes"/>
      <point x="540" y="505"/>
      <point x="488" y="503"/>
      <point x="462" y="503" type="curve" smooth="yes"/>
      <point x="385" y="503" type="line"/>
      <point x="304" y="332" type="line"/>
      <point x="387" y="332" type="line" smooth="yes"/>
      <point x="413" y="332"/>
      <point x="483" y="330"/>
    </contour>
    <contour>
      <point x="802" y="1353" type="line"/>
      <point x="802" y="129" type="line" smooth="yes"/>
      <point x="802" y="48"/>
      <point x="847" y="-2"/>
      <point x="922" y="-2" type="curve" smooth="yes"/>
      <point x="1006" y="-2" type="line"/>
      <point x="1006" y="175" type="line" smooth="yes"/>
      <point x="1006" y="213"/>
      <point x="1008" y="241"/>
      <point x="1008" y="278" type="curve" smooth="yes"/>
      <point x="1008" y="1055" type="line" smooth="yes"/>
      <point x="1008" y="1109"/>
      <point x="1006" y="1135"/>
      <point x="1006" y="1191" type="curve" smooth="yes"/>
      <point x="1006" y="1366" type="line"/>
      <point x="814" y="1366" type="line"/>
    </contour>
    <contour>
      <point x="1510" y="778" type="curve"/>
      <point x="1132" y="778" type="line" smooth="yes"/>
      <point x="1086" y="778"/>
      <point x="996" y="776"/>
      <point x="936" y="776" type="curve"/>
      <point x="936" y="604" type="line"/>
      <point x="996" y="603"/>
      <point x="1086" y="601"/>
      <point x="1132" y="601" type="curve" smooth="yes"/>
      <point x="1510" y="601" type="line"/>
      <point x="1517" y="630"/>
      <point x="1521" y="666"/>
      <point x="1521" y="690" type="curve" smooth="yes"/>
      <point x="1521" y="713"/>
      <point x="1517" y="750"/>
    </contour>
    <contour>
      <point x="1618" y="1366" type="curve"/>
      <point x="936" y="1366" type="line"/>
      <point x="936" y="1189" type="line"/>
      <point x="996" y="1187"/>
      <point x="1086" y="1186"/>
      <point x="1132" y="1186" type="curve" smooth="yes"/>
      <point x="1609" y="1186" type="line"/>
      <point x="1620" y="1218"/>
      <point x="1625" y="1257"/>
      <point x="1625" y="1281" type="curve" smooth="yes"/>
      <point x="1625" y="1305"/>
      <point x="1624" y="1334"/>
    </contour>
    <contour>
      <point x="1658" y="179" type="curve"/>
      <point x="1138" y="179" type="line" smooth="yes"/>
      <point x="1056" y="179"/>
      <point x="1001" y="175"/>
      <point x="936" y="171" type="curve"/>
      <point x="936" y="-2" type="line"/>
      <point x="1517" y="-2" type="line" smooth="yes"/>
      <point x="1618" y="-2"/>
      <point x="1658" y="40"/>
    </contour>
  </outline>
</glyph>
<glyph name="Eth" format="2">
  <advance width="1328"/>
  <unicode hex="00D0"/>
  <outline>
    <contour>
      <point x="1226" y="684" type="curve" smooth="yes"/>
      <point x="1226" y="916"/>
      <point x="1192" y="1125"/>
      <point x="1014" y="1273" type="curve" smooth="yes"/>
      <point x="927" y="1345"/>
      <point x="771" y="1374"/>
      <point x="666" y="1374" type="curve" smooth="yes"/>
      <point x="504" y="1374"/>
      <point x="399" y="1373"/>
      <point x="225" y="1367" type="curve"/>
      <point x="213" y="1355" type="line"/>
      <point x="213" y="11" type="line"/>
      <point x="225" y="-1" type="line"/>
      <point x="399" y="-5"/>
      <point x="504" y="-9"/>
      <point x="666" y="-9" type="curve" smooth="yes"/>
      <point x="771" y="-9"/>
      <point x="927" y="20"/>
      <point x="1014" y="92" type="curve" smooth="yes"/>
      <point x="1194" y="240"/>
      <point x="1226" y="450"/>
    </contour>
    <contour>
      <point x="1005" y="684" type="curve" smooth="yes"/>
      <point x="1005" y="446"/>
      <point x="961" y="162"/>
      <point x="665" y="162" type="curve" smooth="yes"/>
      <point x="580" y="162"/>
      <point x="513" y="164"/>
      <point x="422" y="163" type="curve"/>
      <point x="422" y="1204" type="line"/>
      <point x="513" y="1204"/>
      <point x="580" y="1202"/>
      <point x="665" y="1202" type="curve" smooth="yes"/>
      <point x="961" y="1202"/>
      <point x="1005" y="923"/>
    </contour>
    <contour>
      <point x="59" y="604" type="curve"/>
      <point x="731" y="604" type="line"/>
      <point x="737" y="631"/>
      <point x="740" y="658"/>
      <point x="740" y="691" type="curve" smooth="yes"/>
      <point x="740" y="726"/>
      <point x="737" y="752"/>
      <point x="731" y="781" type="curve"/>
      <point x="59" y="781" type="line"/>
      <point x="52" y="752"/>
      <point x="50" y="722"/>
      <point x="50" y="690" type="curve" smooth="yes"/>
      <point x="50" y="658"/>
      <point x="52" y="631"/>
    </contour>
  </outline>
</glyph>
<glyph name="multiply" format="2">
  <advance width="1080"/>
  <unicode hex="00D7"/>
  <outline>
    <contour>
      <point x="352" y="688" type="curve" smooth="yes"/>
      <point x="154" y="884" type="line"/>
      <point x="167" y="913"/>
      <point x="183" y="938"/>
      <point x="206" y="962" type="curve" smooth="yes"/>
      <point x="228" y="984"/>
      <point x="254" y="1002"/>
      <point x="283" y="1014" type="curve"/>
      <point x="480" y="816" type="line" smooth="yes"/>
      <point x="502" y="793"/>
      <point x="531" y="763"/>
      <point x="553" y="740" type="curve" smooth="yes"/>
      <point x="653" y="641" type="line" smooth="yes"/>
      <point x="675" y="618"/>
      <point x="705" y="590"/>
      <point x="728" y="567" type="curve" smooth="yes"/>
      <point x="926" y="370" type="line"/>
      <point x="913" y="341"/>
      <point x="896" y="315"/>
      <point x="874" y="294" type="curve" smooth="yes"/>
      <point x="853" y="272"/>
      <point x="825" y="253"/>
      <point x="797" y="241" type="curve"/>
      <point x="600" y="440" type="line" smooth="yes"/>
      <point x="578" y="462"/>
      <point x="549" y="492"/>
      <point x="527" y="514" type="curve" smooth="yes"/>
      <point x="427" y="614" type="line" smooth="yes"/>
      <point x="404" y="637"/>
      <point x="375" y="665"/>
    </contour>
    <contour>
      <point x="480" y="440" type="curve" smooth="yes"/>
      <point x="283" y="240" type="line"/>
      <point x="253" y="254"/>
      <point x="228" y="273"/>
      <point x="207" y="294" type="curve" smooth="yes"/>
      <point x="187" y="314"/>
      <point x="167" y="341"/>
      <point x="154" y="370" type="curve"/>
      <point x="352" y="567" type="line" smooth="yes"/>
      <point x="375" y="589"/>
      <point x="404" y="618"/>
      <point x="427" y="640" type="curve" smooth="yes"/>
      <point x="527" y="740" type="line" smooth="yes"/>
      <point x="549" y="762"/>
      <point x="578" y="792"/>
      <point x="600" y="815" type="curve" smooth="yes"/>
      <point x="797" y="1013" type="line"/>
      <point x="824" y="1002"/>
      <point x="850" y="984"/>
      <point x="872" y="962" type="curve" smooth="yes"/>
      <point x="894" y="940"/>
      <point x="913" y="914"/>
      <point x="926" y="884" type="curve"/>
      <point x="728" y="687" type="line" smooth="yes"/>
      <point x="705" y="664"/>
      <point x="675" y="636"/>
      <point x="653" y="614" type="curve" smooth="yes"/>
      <point x="553" y="514" type="line" smooth="yes"/>
      <point x="531" y="492"/>
      <point x="502" y="462"/>
    </contour>
  </outline>
</glyph>
